<ttFont>
<head>
    <!-- Most of this table will be recalculated by the compiler -->
    <tableVersion value="1.0"/>
    <fontRevision value="1.002"/>
    <checkSumAdjustment value="0xaad78ffe"/>
    <magicNumber value="0x5f0f3cf5"/>
    <flags value="00000000 00000011"/>
    <unitsPerEm value="1000"/>
    <created value="Thu Jan 14 20:43:00 2016"/>
    <modified value="Thu Jan 14 20:43:03 2016"/>
    <xMin value="-10"/>
    <yMin value="-288"/>
    <xMax value="630"/>
    <yMax value="1144"/>
    <macStyle value="00000000 00000000"/>
    <lowestRecPPEM value="6"/>
    <fontDirectionHint value="2"/>
    <indexToLocFormat value="0"/>
    <glyphDataFormat value="0"/>
  </head>
    <TTGlyph name=".notdef" xMin="5" yMin="-200" xMax="545" yMax="800">
      <contour>
        <pt x="5" y="-200" on="1"/>
        <pt x="5" y="800" on="1"/>
        <pt x="545" y="800" on="1"/>
        <pt x="545" y="-200" on="1"/>
      </contour>
      <contour>
        <pt x="82" y="750" on="1"/>
        <pt x="275" y="360" on="1"/>
        <pt x="468" y="750" on="1"/>
      </contour>
      <contour>
        <pt x="491" y="676" on="1"/>
        <pt x="305" y="300" on="1"/>
        <pt x="491" y="-76" on="1"/>
      </contour>
      <contour>
        <pt x="59" y="-76" on="1"/>
        <pt x="245" y="300" on="1"/>
        <pt x="59" y="676" on="1"/>
      </contour>
      <contour>
        <pt x="275" y="240" on="1"/>
        <pt x="82" y="-150" on="1"/>
        <pt x="468" y="-150" on="1"/>
      </contour>
    </TTGlyph>
    <TTGlyph name="A" xMin="36" yMin="-3" xMax="514" yMax="622">
      <contour>
        <pt x="430" y="-3" on="1"/>
        <pt x="417" y="45" on="0"/>
        <pt x="391" y="142" on="0"/>
        <pt x="378" y="190" on="1"/>
        <pt x="169" y="190" on="1"/>
        <pt x="156" y="143" on="0"/>
        <pt x="132" y="47" on="0"/>
        <pt x="119" y="0" on="1"/>
        <pt x="36" y="0" on="1"/>
        <pt x="79" y="154" on="0"/>
        <pt x="168" y="466" on="0"/>
        <pt x="217" y="622" on="1"/>
        <pt x="333" y="622" on="1"/>
        <pt x="382" y="467" on="0"/>
        <pt x="471" y="157" on="0"/>
        <pt x="514" y="3" on="1"/>
      </contour>
      <contour>
        <pt x="270" y="551" on="1"/>
        <pt x="248" y="476" on="0"/>
        <pt x="207" y="327" on="0"/>
        <pt x="186" y="253" on="1"/>
        <pt x="361" y="253" on="1"/>
        <pt x="341" y="327" on="0"/>
        <pt x="300" y="477" on="0"/>
        <pt x="278" y="551" on="1"/>
      </contour>
    </TTGlyph>
    <TTGlyph name="AE" xMin="4" yMin="0" xMax="512" yMax="620">
      <contour>
        <pt x="256" y="549" on="1"/>
        <pt x="233" y="474" on="0"/>
        <pt x="184" y="320" on="0"/>
        <pt x="160" y="244" on="1"/>
        <pt x="262" y="244" on="1"/>
        <pt x="262" y="549" on="1"/>
      </contour>
      <contour>
        <pt x="262" y="0" on="1"/>
        <pt x="262" y="182" on="1"/>
        <pt x="141" y="182" on="1"/>
        <pt x="127" y="136" on="0"/>
        <pt x="98" y="45" on="0"/>
        <pt x="85" y="0" on="1"/>
        <pt x="4" y="0" on="1"/>
        <pt x="52" y="154" on="0"/>
        <pt x="156" y="466" on="0"/>
        <pt x="207" y="620" on="1"/>
        <pt x="508" y="620" on="1"/>
        <pt x="508" y="549" on="1"/>
        <pt x="335" y="549" on="1"/>
        <pt x="335" y="345" on="1"/>
        <pt x="481" y="345" on="1"/>
        <pt x="481" y="282" on="1"/>
        <pt x="335" y="282" on="1"/>
        <pt x="335" y="71" on="1"/>
        <pt x="512" y="71" on="1"/>
        <pt x="506" y="0" on="1"/>
      </contour>
    </TTGlyph>
    <TTGlyph name="AEacute" xMin="4" yMin="0" xMax="512" yMax="902">
      <contour>
        <pt x="214" y="724" on="1"/>
        <pt x="236" y="739" on="0"/>
        <pt x="288" y="782" on="0"/>
        <pt x="340" y="831" on="0"/>
        <pt x="389" y="881" on="0"/>
        <pt x="407" y="902" on="1"/>
        <pt x="472" y="839" on="1"/>
        <pt x="450" y="819" on="0"/>
        <pt x="390" y="776" on="0"/>
        <pt x="326" y="736" on="0"/>
        <pt x="262" y="700" on="0"/>
        <pt x="237" y="688" on="1"/>
      </contour>
      <contour>
        <pt x="256" y="549" on="1"/>
        <pt x="233" y="474" on="0"/>
        <pt x="184" y="320" on="0"/>
        <pt x="160" y="244" on="1"/>
        <pt x="262" y="244" on="1"/>
        <pt x="262" y="549" on="1"/>
      </contour>
      <contour>
        <pt x="262" y="0" on="1"/>
        <pt x="262" y="182" on="1"/>
        <pt x="141" y="182" on="1"/>
        <pt x="127" y="136" on="0"/>
        <pt x="98" y="45" on="0"/>
        <pt x="85" y="0" on="1"/>
        <pt x="4" y="0" on="1"/>
        <pt x="52" y="154" on="0"/>
        <pt x="156" y="466" on="0"/>
        <pt x="207" y="620" on="1"/>
        <pt x="508" y="620" on="1"/>
        <pt x="508" y="549" on="1"/>
        <pt x="335" y="549" on="1"/>
        <pt x="335" y="345" on="1"/>
        <pt x="481" y="345" on="1"/>
        <pt x="481" y="282" on="1"/>
        <pt x="335" y="282" on="1"/>
        <pt x="335" y="71" on="1"/>
        <pt x="512" y="71" on="1"/>
        <pt x="506" y="0" on="1"/>
      </contour>
    </TTGlyph>
    <TTGlyph name="Aacute" xMin="36" yMin="-3" xMax="514" yMax="902">
      <contour>
        <pt x="169" y="724" on="1"/>
        <pt x="191" y="739" on="0"/>
        <pt x="243" y="782" on="0"/>
        <pt x="295" y="831" on="0"/>
        <pt x="344" y="881" on="0"/>
        <pt x="362" y="902" on="1"/>
        <pt x="427" y="839" on="1"/>
        <pt x="405" y="819" on="0"/>
        <pt x="345" y="776" on="0"/>
        <pt x="281" y="736" on="0"/>
        <pt x="217" y="700" on="0"/>
        <pt x="192" y="688" on="1"/>
      </contour>
      <contour>
        <pt x="430" y="-3" on="1"/>
        <pt x="417" y="45" on="0"/>
        <pt x="391" y="142" on="0"/>
        <pt x="378" y="190" on="1"/>
        <pt x="169" y="190" on="1"/>
        <pt x="156" y="143" on="0"/>
        <pt x="132" y="47" on="0"/>
        <pt x="119" y="0" on="1"/>
        <pt x="36" y="0" on="1"/>
        <pt x="79" y="154" on="0"/>
        <pt x="168" y="466" on="0"/>
        <pt x="217" y="622" on="1"/>
        <pt x="333" y="622" on="1"/>
        <pt x="382" y="467" on="0"/>
        <pt x="471" y="157" on="0"/>
        <pt x="514" y="3" on="1"/>
      </contour>
      <contour>
        <pt x="270" y="551" on="1"/>
        <pt x="248" y="476" on="0"/>
        <pt x="207" y="327" on="0"/>
        <pt x="186" y="253" on="1"/>
        <pt x="361" y="253" on="1"/>
        <pt x="341" y="327" on="0"/>
        <pt x="300" y="477" on="0"/>
        <pt x="278" y="551" on="1"/>
      </contour>
    </TTGlyph>
    <TTGlyph name="Abreve" xMin="36" yMin="-3" xMax="514" yMax="872">
      <contour>
        <pt x="273" y="695" on="1"/>
        <pt x="221" y="695" on="0"/>
        <pt x="128" y="767" on="0"/>
        <pt x="88" y="839" on="1"/>
        <pt x="145" y="872" on="1"/>
        <pt x="182" y="812" on="0"/>
        <pt x="243" y="761" on="0"/>
        <pt x="280" y="761" on="1"/>
        <pt x="319" y="761" on="0"/>
        <pt x="383" y="816" on="0"/>
        <pt x="418" y="868" on="1"/>
        <pt x="466" y="843" on="1"/>
        <pt x="424" y="774" on="0"/>
        <pt x="326" y="695" on="0"/>
      </contour>
      <contour>
        <pt x="430" y="-3" on="1"/>
        <pt x="417" y="45" on="0"/>
        <pt x="391" y="142" on="0"/>
        <pt x="378" y="190" on="1"/>
        <pt x="169" y="190" on="1"/>
        <pt x="156" y="143" on="0"/>
        <pt x="132" y="47" on="0"/>
        <pt x="119" y="0" on="1"/>
        <pt x="36" y="0" on="1"/>
        <pt x="79" y="154" on="0"/>
        <pt x="168" y="466" on="0"/>
        <pt x="217" y="622" on="1"/>
        <pt x="333" y="622" on="1"/>
        <pt x="382" y="467" on="0"/>
        <pt x="471" y="157" on="0"/>
        <pt x="514" y="3" on="1"/>
      </contour>
      <contour>
        <pt x="270" y="551" on="1"/>
        <pt x="248" y="476" on="0"/>
        <pt x="207" y="327" on="0"/>
        <pt x="186" y="253" on="1"/>
        <pt x="361" y="253" on="1"/>
        <pt x="341" y="327" on="0"/>
        <pt x="300" y="477" on="0"/>
        <pt x="278" y="551" on="1"/>
      </contour>
    </TTGlyph>
    <TTGlyph name="Acircumflex" xMin="36" yMin="-3" xMax="514" yMax="883">
      <contour>
        <pt x="401" y="690" on="1"/>
        <pt x="268" y="804" on="1"/>
        <pt x="136" y="691" on="1"/>
        <pt x="96" y="730" on="1"/>
        <pt x="272" y="883" on="1"/>
        <pt x="276" y="883" on="1"/>
        <pt x="452" y="739" on="1"/>
      </contour>
      <contour>
        <pt x="430" y="-3" on="1"/>
        <pt x="417" y="45" on="0"/>
        <pt x="391" y="142" on="0"/>
        <pt x="378" y="190" on="1"/>
        <pt x="169" y="190" on="1"/>
        <pt x="156" y="143" on="0"/>
        <pt x="132" y="47" on="0"/>
        <pt x="119" y="0" on="1"/>
        <pt x="36" y="0" on="1"/>
        <pt x="79" y="154" on="0"/>
        <pt x="168" y="466" on="0"/>
        <pt x="217" y="622" on="1"/>
        <pt x="333" y="622" on="1"/>
        <pt x="382" y="467" on="0"/>
        <pt x="471" y="157" on="0"/>
        <pt x="514" y="3" on="1"/>
      </contour>
      <contour>
        <pt x="270" y="551" on="1"/>
        <pt x="248" y="476" on="0"/>
        <pt x="207" y="327" on="0"/>
        <pt x="186" y="253" on="1"/>
        <pt x="361" y="253" on="1"/>
        <pt x="341" y="327" on="0"/>
        <pt x="300" y="477" on="0"/>
        <pt x="278" y="551" on="1"/>
      </contour>
    </TTGlyph>
    <TTGlyph name="Adieresis" xMin="36" yMin="-3" xMax="514" yMax="835">
      <contour>
        <pt x="426" y="699" on="1"/>
        <pt x="344" y="699" on="1"/>
        <pt x="345" y="835" on="1"/>
        <pt x="428" y="835" on="1"/>
      </contour>
      <contour>
        <pt x="206" y="699" on="1"/>
        <pt x="124" y="699" on="1"/>
        <pt x="125" y="835" on="1"/>
        <pt x="208" y="835" on="1"/>
      </contour>
      <contour>
        <pt x="430" y="-3" on="1"/>
        <pt x="417" y="45" on="0"/>
        <pt x="391" y="142" on="0"/>
        <pt x="378" y="190" on="1"/>
        <pt x="169" y="190" on="1"/>
        <pt x="156" y="143" on="0"/>
        <pt x="132" y="47" on="0"/>
        <pt x="119" y="0" on="1"/>
        <pt x="36" y="0" on="1"/>
        <pt x="79" y="154" on="0"/>
        <pt x="168" y="466" on="0"/>
        <pt x="217" y="622" on="1"/>
        <pt x="333" y="622" on="1"/>
        <pt x="382" y="467" on="0"/>
        <pt x="471" y="157" on="0"/>
        <pt x="514" y="3" on="1"/>
      </contour>
      <contour>
        <pt x="270" y="551" on="1"/>
        <pt x="248" y="476" on="0"/>
        <pt x="207" y="327" on="0"/>
        <pt x="186" y="253" on="1"/>
        <pt x="361" y="253" on="1"/>
        <pt x="341" y="327" on="0"/>
        <pt x="300" y="477" on="0"/>
        <pt x="278" y="551" on="1"/>
      </contour>
    </TTGlyph>
    <TTGlyph name="Agrave" xMin="36" yMin="-3" xMax="514" yMax="898">
      <contour>
        <pt x="374" y="718" on="1"/>
        <pt x="350" y="682" on="1"/>
        <pt x="325" y="695" on="0"/>
        <pt x="263" y="731" on="0"/>
        <pt x="200" y="771" on="0"/>
        <pt x="140" y="813" on="0"/>
        <pt x="117" y="831" on="1"/>
        <pt x="177" y="898" on="1"/>
        <pt x="196" y="878" on="0"/>
        <pt x="247" y="828" on="0"/>
        <pt x="301" y="779" on="0"/>
        <pt x="353" y="734" on="0"/>
      </contour>
      <contour>
        <pt x="430" y="-3" on="1"/>
        <pt x="417" y="45" on="0"/>
        <pt x="391" y="142" on="0"/>
        <pt x="378" y="190" on="1"/>
        <pt x="169" y="190" on="1"/>
        <pt x="156" y="143" on="0"/>
        <pt x="132" y="47" on="0"/>
        <pt x="119" y="0" on="1"/>
        <pt x="36" y="0" on="1"/>
        <pt x="79" y="154" on="0"/>
        <pt x="168" y="466" on="0"/>
        <pt x="217" y="622" on="1"/>
        <pt x="333" y="622" on="1"/>
        <pt x="382" y="467" on="0"/>
        <pt x="471" y="157" on="0"/>
        <pt x="514" y="3" on="1"/>
      </contour>
      <contour>
        <pt x="270" y="551" on="1"/>
        <pt x="248" y="476" on="0"/>
        <pt x="207" y="327" on="0"/>
        <pt x="186" y="253" on="1"/>
        <pt x="361" y="253" on="1"/>
        <pt x="341" y="327" on="0"/>
        <pt x="300" y="477" on="0"/>
        <pt x="278" y="551" on="1"/>
      </contour>
    </TTGlyph>
    <TTGlyph name="Amacron" xMin="36" yMin="-3" xMax="514" yMax="804">
      <contour>
        <pt x="441" y="804" on="1"/>
        <pt x="441" y="734" on="1"/>
        <pt x="107" y="734" on="1"/>
        <pt x="107" y="804" on="1"/>
      </contour>
      <contour>
        <pt x="430" y="-3" on="1"/>
        <pt x="417" y="45" on="0"/>
        <pt x="391" y="142" on="0"/>
        <pt x="378" y="190" on="1"/>
        <pt x="169" y="190" on="1"/>
        <pt x="156" y="143" on="0"/>
        <pt x="132" y="47" on="0"/>
        <pt x="119" y="0" on="1"/>
        <pt x="36" y="0" on="1"/>
        <pt x="79" y="154" on="0"/>
        <pt x="168" y="466" on="0"/>
        <pt x="217" y="622" on="1"/>
        <pt x="333" y="622" on="1"/>
        <pt x="382" y="467" on="0"/>
        <pt x="471" y="157" on="0"/>
        <pt x="514" y="3" on="1"/>
      </contour>
      <contour>
        <pt x="270" y="551" on="1"/>
        <pt x="248" y="476" on="0"/>
        <pt x="207" y="327" on="0"/>
        <pt x="186" y="253" on="1"/>
        <pt x="361" y="253" on="1"/>
        <pt x="341" y="327" on="0"/>
        <pt x="300" y="477" on="0"/>
        <pt x="278" y="551" on="1"/>
      </contour>
    </TTGlyph>
    <TTGlyph name="Aogonek" xMin="36" yMin="-212" xMax="514" yMax="622">
      <contour>
        <pt x="492" y="-212" on="1"/>
        <pt x="391" y="-205" on="0"/>
        <pt x="307" y="-156" on="0"/>
        <pt x="307" y="-119" on="1"/>
        <pt x="307" y="-91" on="0"/>
        <pt x="363" y="-31" on="0"/>
        <pt x="428" y="5" on="1"/>
        <pt x="416" y="51" on="0"/>
        <pt x="391" y="144" on="0"/>
        <pt x="378" y="190" on="1"/>
        <pt x="169" y="190" on="1"/>
        <pt x="156" y="143" on="0"/>
        <pt x="132" y="47" on="0"/>
        <pt x="119" y="0" on="1"/>
        <pt x="36" y="0" on="1"/>
        <pt x="79" y="154" on="0"/>
        <pt x="168" y="466" on="0"/>
        <pt x="217" y="622" on="1"/>
        <pt x="333" y="622" on="1"/>
        <pt x="382" y="467" on="0"/>
        <pt x="471" y="157" on="0"/>
        <pt x="514" y="3" on="1"/>
        <pt x="438" y="-33" on="0"/>
        <pt x="383" y="-81" on="0"/>
        <pt x="383" y="-99" on="1"/>
        <pt x="383" y="-117" on="0"/>
        <pt x="437" y="-141" on="0"/>
        <pt x="500" y="-147" on="1"/>
      </contour>
      <contour>
        <pt x="270" y="551" on="1"/>
        <pt x="248" y="476" on="0"/>
        <pt x="207" y="327" on="0"/>
        <pt x="186" y="253" on="1"/>
        <pt x="361" y="253" on="1"/>
        <pt x="341" y="327" on="0"/>
        <pt x="300" y="477" on="0"/>
        <pt x="278" y="551" on="1"/>
      </contour>
    </TTGlyph>
    <TTGlyph name="Aring" xMin="36" yMin="-3" xMax="514" yMax="890">
      <contour>
        <pt x="272" y="890" on="1"/>
        <pt x="330" y="890" on="0"/>
        <pt x="404" y="828" on="0"/>
        <pt x="404" y="786" on="1"/>
        <pt x="404" y="740" on="0"/>
        <pt x="332" y="678" on="0"/>
        <pt x="272" y="678" on="1"/>
        <pt x="215" y="678" on="0"/>
        <pt x="141" y="739" on="0"/>
        <pt x="141" y="782" on="1"/>
        <pt x="141" y="828" on="0"/>
        <pt x="212" y="890" on="0"/>
      </contour>
      <contour>
        <pt x="430" y="-3" on="1"/>
        <pt x="417" y="45" on="0"/>
        <pt x="391" y="142" on="0"/>
        <pt x="378" y="190" on="1"/>
        <pt x="169" y="190" on="1"/>
        <pt x="156" y="143" on="0"/>
        <pt x="132" y="47" on="0"/>
        <pt x="119" y="0" on="1"/>
        <pt x="36" y="0" on="1"/>
        <pt x="79" y="154" on="0"/>
        <pt x="168" y="466" on="0"/>
        <pt x="217" y="622" on="1"/>
        <pt x="333" y="622" on="1"/>
        <pt x="382" y="467" on="0"/>
        <pt x="471" y="157" on="0"/>
        <pt x="514" y="3" on="1"/>
      </contour>
      <contour>
        <pt x="270" y="551" on="1"/>
        <pt x="248" y="476" on="0"/>
        <pt x="207" y="327" on="0"/>
        <pt x="186" y="253" on="1"/>
        <pt x="361" y="253" on="1"/>
        <pt x="341" y="327" on="0"/>
        <pt x="300" y="477" on="0"/>
        <pt x="278" y="551" on="1"/>
      </contour>
    </TTGlyph>
    <TTGlyph name="Aringacute" xMin="36" yMin="-3" xMax="514" yMax="1144">
      <contour>
        <pt x="169" y="966" on="1"/>
        <pt x="191" y="981" on="0"/>
        <pt x="243" y="1024" on="0"/>
        <pt x="295" y="1073" on="0"/>
        <pt x="344" y="1123" on="0"/>
        <pt x="362" y="1144" on="1"/>
        <pt x="427" y="1081" on="1"/>
        <pt x="405" y="1061" on="0"/>
        <pt x="345" y="1018" on="0"/>
        <pt x="281" y="978" on="0"/>
        <pt x="217" y="942" on="0"/>
        <pt x="192" y="930" on="1"/>
      </contour>
      <contour>
        <pt x="272" y="890" on="1"/>
        <pt x="330" y="890" on="0"/>
        <pt x="404" y="828" on="0"/>
        <pt x="404" y="786" on="1"/>
        <pt x="404" y="740" on="0"/>
        <pt x="332" y="678" on="0"/>
        <pt x="272" y="678" on="1"/>
        <pt x="215" y="678" on="0"/>
        <pt x="141" y="739" on="0"/>
        <pt x="141" y="782" on="1"/>
        <pt x="141" y="828" on="0"/>
        <pt x="212" y="890" on="0"/>
      </contour>
      <contour>
        <pt x="430" y="-3" on="1"/>
        <pt x="417" y="45" on="0"/>
        <pt x="391" y="142" on="0"/>
        <pt x="378" y="190" on="1"/>
        <pt x="169" y="190" on="1"/>
        <pt x="156" y="143" on="0"/>
        <pt x="132" y="47" on="0"/>
        <pt x="119" y="0" on="1"/>
        <pt x="36" y="0" on="1"/>
        <pt x="79" y="154" on="0"/>
        <pt x="168" y="466" on="0"/>
        <pt x="217" y="622" on="1"/>
        <pt x="333" y="622" on="1"/>
        <pt x="382" y="467" on="0"/>
        <pt x="471" y="157" on="0"/>
        <pt x="514" y="3" on="1"/>
      </contour>
      <contour>
        <pt x="270" y="551" on="1"/>
        <pt x="248" y="476" on="0"/>
        <pt x="207" y="327" on="0"/>
        <pt x="186" y="253" on="1"/>
        <pt x="361" y="253" on="1"/>
        <pt x="341" y="327" on="0"/>
        <pt x="300" y="477" on="0"/>
        <pt x="278" y="551" on="1"/>
      </contour>
    </TTGlyph>
    <TTGlyph name="Atilde" xMin="36" yMin="-3" xMax="514" yMax="864">
      <contour>
        <pt x="350" y="697" on="1"/>
        <pt x="326" y="697" on="0"/>
        <pt x="286" y="728" on="0"/>
        <pt x="251" y="766" on="0"/>
        <pt x="219" y="797" on="0"/>
        <pt x="203" y="797" on="1"/>
        <pt x="184" y="797" on="0"/>
        <pt x="145" y="748" on="0"/>
        <pt x="125" y="705" on="1"/>
        <pt x="80" y="725" on="1"/>
        <pt x="106" y="788" on="0"/>
        <pt x="174" y="864" on="0"/>
        <pt x="212" y="864" on="1"/>
        <pt x="236" y="864" on="0"/>
        <pt x="276" y="832" on="0"/>
        <pt x="311" y="795" on="0"/>
        <pt x="343" y="763" on="0"/>
        <pt x="359" y="763" on="1"/>
        <pt x="378" y="763" on="0"/>
        <pt x="416" y="812" on="0"/>
        <pt x="436" y="856" on="1"/>
        <pt x="482" y="836" on="1"/>
        <pt x="455" y="773" on="0"/>
        <pt x="387" y="697" on="0"/>
      </contour>
      <contour>
        <pt x="430" y="-3" on="1"/>
        <pt x="417" y="45" on="0"/>
        <pt x="391" y="142" on="0"/>
        <pt x="378" y="190" on="1"/>
        <pt x="169" y="190" on="1"/>
        <pt x="156" y="143" on="0"/>
        <pt x="132" y="47" on="0"/>
        <pt x="119" y="0" on="1"/>
        <pt x="36" y="0" on="1"/>
        <pt x="79" y="154" on="0"/>
        <pt x="168" y="466" on="0"/>
        <pt x="217" y="622" on="1"/>
        <pt x="333" y="622" on="1"/>
        <pt x="382" y="467" on="0"/>
        <pt x="471" y="157" on="0"/>
        <pt x="514" y="3" on="1"/>
      </contour>
      <contour>
        <pt x="270" y="551" on="1"/>
        <pt x="248" y="476" on="0"/>
        <pt x="207" y="327" on="0"/>
        <pt x="186" y="253" on="1"/>
        <pt x="361" y="253" on="1"/>
        <pt x="341" y="327" on="0"/>
        <pt x="300" y="477" on="0"/>
        <pt x="278" y="551" on="1"/>
      </contour>
    </TTGlyph>
    <TTGlyph name="B" xMin="95" yMin="-8" xMax="495" yMax="628">
      <contour>
        <pt x="215" y="-8" on="1"/>
        <pt x="187" y="-8" on="0"/>
        <pt x="126" y="-4" on="0"/>
        <pt x="95" y="0" on="1"/>
        <pt x="95" y="620" on="1"/>
        <pt x="131" y="624" on="0"/>
        <pt x="197" y="628" on="0"/>
        <pt x="226" y="628" on="1"/>
        <pt x="342" y="628" on="0"/>
        <pt x="475" y="557" on="0"/>
        <pt x="475" y="477" on="1"/>
        <pt x="475" y="417" on="0"/>
        <pt x="407" y="342" on="0"/>
        <pt x="356" y="324" on="1"/>
        <pt x="420" y="311" on="0"/>
        <pt x="495" y="240" on="0"/>
        <pt x="495" y="177" on="1"/>
        <pt x="495" y="176" on="1"/>
        <pt x="495" y="128" on="0"/>
        <pt x="454" y="58" on="0"/>
        <pt x="380" y="13" on="0"/>
        <pt x="277" y="-8" on="0"/>
      </contour>
      <contour>
        <pt x="203" y="341" on="1"/>
        <pt x="308" y="341" on="0"/>
        <pt x="395" y="398" on="0"/>
        <pt x="395" y="457" on="1"/>
        <pt x="395" y="511" on="0"/>
        <pt x="313" y="561" on="0"/>
        <pt x="241" y="561" on="1"/>
        <pt x="226" y="561" on="0"/>
        <pt x="194" y="559" on="0"/>
        <pt x="177" y="557" on="1"/>
        <pt x="177" y="342" on="1"/>
        <pt x="184" y="341" on="0"/>
        <pt x="197" y="341" on="0"/>
      </contour>
      <contour>
        <pt x="258" y="58" on="1"/>
        <pt x="331" y="58" on="0"/>
        <pt x="413" y="112" on="0"/>
        <pt x="413" y="172" on="1"/>
        <pt x="413" y="235" on="0"/>
        <pt x="317" y="282" on="0"/>
        <pt x="223" y="282" on="1"/>
        <pt x="212" y="282" on="0"/>
        <pt x="189" y="281" on="0"/>
        <pt x="177" y="281" on="1"/>
        <pt x="177" y="64" on="1"/>
        <pt x="199" y="61" on="0"/>
        <pt x="239" y="58" on="0"/>
      </contour>
    </TTGlyph>
    <TTGlyph name="C" xMin="66" yMin="-5" xMax="479" yMax="628">
      <contour>
        <pt x="479" y="68" on="1"/>
        <pt x="472" y="-3" on="1"/>
        <pt x="456" y="-4" on="0"/>
        <pt x="424" y="-5" on="0"/>
        <pt x="409" y="-5" on="1"/>
        <pt x="310" y="-5" on="0"/>
        <pt x="177" y="42" on="0"/>
        <pt x="99" y="123" on="0"/>
        <pt x="66" y="235" on="0"/>
        <pt x="66" y="300" on="1"/>
        <pt x="66" y="363" on="0"/>
        <pt x="106" y="480" on="0"/>
        <pt x="200" y="568" on="0"/>
        <pt x="355" y="624" on="0"/>
        <pt x="468" y="628" on="1"/>
        <pt x="473" y="548" on="1"/>
        <pt x="372" y="547" on="0"/>
        <pt x="245" y="512" on="0"/>
        <pt x="176" y="451" on="0"/>
        <pt x="152" y="364" on="0"/>
        <pt x="152" y="311" on="1"/>
        <pt x="152" y="252" on="0"/>
        <pt x="178" y="161" on="0"/>
        <pt x="243" y="99" on="0"/>
        <pt x="353" y="67" on="0"/>
        <pt x="437" y="67" on="1"/>
        <pt x="447" y="67" on="0"/>
        <pt x="468" y="67" on="0"/>
      </contour>
    </TTGlyph>
    <TTGlyph name="Cacute" xMin="66" yMin="-5" xMax="479" yMax="902">
      <contour>
        <pt x="207" y="724" on="1"/>
        <pt x="229" y="739" on="0"/>
        <pt x="281" y="782" on="0"/>
        <pt x="333" y="831" on="0"/>
        <pt x="382" y="881" on="0"/>
        <pt x="400" y="902" on="1"/>
        <pt x="465" y="839" on="1"/>
        <pt x="443" y="819" on="0"/>
        <pt x="383" y="776" on="0"/>
        <pt x="319" y="736" on="0"/>
        <pt x="255" y="700" on="0"/>
        <pt x="230" y="688" on="1"/>
      </contour>
      <contour>
        <pt x="479" y="68" on="1"/>
        <pt x="472" y="-3" on="1"/>
        <pt x="456" y="-4" on="0"/>
        <pt x="424" y="-5" on="0"/>
        <pt x="409" y="-5" on="1"/>
        <pt x="310" y="-5" on="0"/>
        <pt x="177" y="42" on="0"/>
        <pt x="99" y="123" on="0"/>
        <pt x="66" y="235" on="0"/>
        <pt x="66" y="300" on="1"/>
        <pt x="66" y="363" on="0"/>
        <pt x="106" y="480" on="0"/>
        <pt x="200" y="568" on="0"/>
        <pt x="355" y="624" on="0"/>
        <pt x="468" y="628" on="1"/>
        <pt x="473" y="548" on="1"/>
        <pt x="372" y="547" on="0"/>
        <pt x="245" y="512" on="0"/>
        <pt x="176" y="451" on="0"/>
        <pt x="152" y="364" on="0"/>
        <pt x="152" y="311" on="1"/>
        <pt x="152" y="252" on="0"/>
        <pt x="178" y="161" on="0"/>
        <pt x="243" y="99" on="0"/>
        <pt x="353" y="67" on="0"/>
        <pt x="437" y="67" on="1"/>
        <pt x="447" y="67" on="0"/>
        <pt x="468" y="67" on="0"/>
      </contour>
    </TTGlyph>
    <TTGlyph name="Ccaron" xMin="66" yMin="-5" xMax="496" yMax="877">
      <contour>
        <pt x="320" y="685" on="1"/>
        <pt x="316" y="685" on="1"/>
        <pt x="140" y="828" on="1"/>
        <pt x="191" y="877" on="1"/>
        <pt x="324" y="764" on="1"/>
        <pt x="455" y="876" on="1"/>
        <pt x="496" y="836" on="1"/>
      </contour>
      <contour>
        <pt x="479" y="68" on="1"/>
        <pt x="472" y="-3" on="1"/>
        <pt x="456" y="-4" on="0"/>
        <pt x="424" y="-5" on="0"/>
        <pt x="409" y="-5" on="1"/>
        <pt x="310" y="-5" on="0"/>
        <pt x="177" y="42" on="0"/>
        <pt x="99" y="123" on="0"/>
        <pt x="66" y="235" on="0"/>
        <pt x="66" y="300" on="1"/>
        <pt x="66" y="363" on="0"/>
        <pt x="106" y="480" on="0"/>
        <pt x="200" y="568" on="0"/>
        <pt x="355" y="624" on="0"/>
        <pt x="468" y="628" on="1"/>
        <pt x="473" y="548" on="1"/>
        <pt x="372" y="547" on="0"/>
        <pt x="245" y="512" on="0"/>
        <pt x="176" y="451" on="0"/>
        <pt x="152" y="364" on="0"/>
        <pt x="152" y="311" on="1"/>
        <pt x="152" y="252" on="0"/>
        <pt x="178" y="161" on="0"/>
        <pt x="243" y="99" on="0"/>
        <pt x="353" y="67" on="0"/>
        <pt x="437" y="67" on="1"/>
        <pt x="447" y="67" on="0"/>
        <pt x="468" y="67" on="0"/>
      </contour>
    </TTGlyph>
    <TTGlyph name="Ccedilla" xMin="66" yMin="-216" xMax="479" yMax="628">
      <contour>
        <pt x="391" y="-112" on="1"/>
        <pt x="391" y="-149" on="0"/>
        <pt x="299" y="-205" on="0"/>
        <pt x="208" y="-216" on="1"/>
        <pt x="202" y="-152" on="1"/>
        <pt x="264" y="-143" on="0"/>
        <pt x="319" y="-120" on="0"/>
        <pt x="319" y="-104" on="1"/>
        <pt x="319" y="-88" on="0"/>
        <pt x="274" y="-43" on="0"/>
        <pt x="225" y="-14" on="1"/>
        <pt x="241" y="19" on="1"/>
        <pt x="142" y="53" on="0"/>
        <pt x="66" y="204" on="0"/>
        <pt x="66" y="300" on="1"/>
        <pt x="66" y="363" on="0"/>
        <pt x="106" y="480" on="0"/>
        <pt x="200" y="568" on="0"/>
        <pt x="355" y="624" on="0"/>
        <pt x="468" y="628" on="1"/>
        <pt x="473" y="548" on="1"/>
        <pt x="372" y="547" on="0"/>
        <pt x="245" y="512" on="0"/>
        <pt x="176" y="451" on="0"/>
        <pt x="152" y="364" on="0"/>
        <pt x="152" y="311" on="1"/>
        <pt x="152" y="252" on="0"/>
        <pt x="178" y="161" on="0"/>
        <pt x="243" y="99" on="0"/>
        <pt x="353" y="67" on="0"/>
        <pt x="437" y="67" on="1"/>
        <pt x="447" y="67" on="0"/>
        <pt x="468" y="67" on="0"/>
        <pt x="479" y="68" on="1"/>
        <pt x="472" y="-3" on="1"/>
        <pt x="456" y="-4" on="0"/>
        <pt x="424" y="-5" on="0"/>
        <pt x="409" y="-5" on="1"/>
        <pt x="375" y="-5" on="0"/>
        <pt x="313" y="1" on="0"/>
        <pt x="287" y="6" on="1"/>
        <pt x="341" y="-25" on="0"/>
        <pt x="391" y="-85" on="0"/>
      </contour>
    </TTGlyph>
    <TTGlyph name="Cdotaccent" xMin="66" yMin="-5" xMax="479" yMax="835">
      <contour>
        <pt x="354" y="699" on="1"/>
        <pt x="271" y="699" on="1"/>
        <pt x="274" y="835" on="1"/>
        <pt x="359" y="835" on="1"/>
      </contour>
      <contour>
        <pt x="479" y="68" on="1"/>
        <pt x="472" y="-3" on="1"/>
        <pt x="456" y="-4" on="0"/>
        <pt x="424" y="-5" on="0"/>
        <pt x="409" y="-5" on="1"/>
        <pt x="310" y="-5" on="0"/>
        <pt x="177" y="42" on="0"/>
        <pt x="99" y="123" on="0"/>
        <pt x="66" y="235" on="0"/>
        <pt x="66" y="300" on="1"/>
        <pt x="66" y="363" on="0"/>
        <pt x="106" y="480" on="0"/>
        <pt x="200" y="568" on="0"/>
        <pt x="355" y="624" on="0"/>
        <pt x="468" y="628" on="1"/>
        <pt x="473" y="548" on="1"/>
        <pt x="372" y="547" on="0"/>
        <pt x="245" y="512" on="0"/>
        <pt x="176" y="451" on="0"/>
        <pt x="152" y="364" on="0"/>
        <pt x="152" y="311" on="1"/>
        <pt x="152" y="252" on="0"/>
        <pt x="178" y="161" on="0"/>
        <pt x="243" y="99" on="0"/>
        <pt x="353" y="67" on="0"/>
        <pt x="437" y="67" on="1"/>
        <pt x="447" y="67" on="0"/>
        <pt x="468" y="67" on="0"/>
      </contour>
    </TTGlyph>
    <TTGlyph name="D" xMin="85" yMin="-9" xMax="501" yMax="630">
      <contour>
        <pt x="501" y="322" on="1"/>
        <pt x="501" y="165" on="0"/>
        <pt x="344" y="-9" on="0"/>
        <pt x="187" y="-9" on="1"/>
        <pt x="163" y="-9" on="0"/>
        <pt x="112" y="-5" on="0"/>
        <pt x="85" y="-1" on="1"/>
        <pt x="85" y="621" on="1"/>
        <pt x="118" y="625" on="0"/>
        <pt x="179" y="630" on="0"/>
        <pt x="206" y="630" on="1"/>
        <pt x="364" y="630" on="0"/>
        <pt x="501" y="475" on="0"/>
      </contour>
      <contour>
        <pt x="417" y="309" on="1"/>
        <pt x="417" y="434" on="0"/>
        <pt x="325" y="559" on="0"/>
        <pt x="221" y="559" on="1"/>
        <pt x="208" y="559" on="0"/>
        <pt x="181" y="556" on="0"/>
        <pt x="167" y="555" on="1"/>
        <pt x="167" y="66" on="1"/>
        <pt x="182" y="64" on="0"/>
        <pt x="211" y="61" on="0"/>
        <pt x="224" y="61" on="1"/>
        <pt x="324" y="61" on="0"/>
        <pt x="417" y="188" on="0"/>
      </contour>
    </TTGlyph>
    <TTGlyph name="Dcaron" xMin="85" yMin="-9" xMax="501" yMax="883">
      <contour>
        <pt x="274" y="691" on="1"/>
        <pt x="270" y="691" on="1"/>
        <pt x="94" y="834" on="1"/>
        <pt x="145" y="883" on="1"/>
        <pt x="278" y="770" on="1"/>
        <pt x="409" y="882" on="1"/>
        <pt x="450" y="842" on="1"/>
      </contour>
      <contour>
        <pt x="501" y="322" on="1"/>
        <pt x="501" y="165" on="0"/>
        <pt x="344" y="-9" on="0"/>
        <pt x="187" y="-9" on="1"/>
        <pt x="163" y="-9" on="0"/>
        <pt x="112" y="-5" on="0"/>
        <pt x="85" y="-1" on="1"/>
        <pt x="85" y="621" on="1"/>
        <pt x="118" y="625" on="0"/>
        <pt x="179" y="630" on="0"/>
        <pt x="206" y="630" on="1"/>
        <pt x="364" y="630" on="0"/>
        <pt x="501" y="475" on="0"/>
      </contour>
      <contour>
        <pt x="417" y="309" on="1"/>
        <pt x="417" y="434" on="0"/>
        <pt x="325" y="559" on="0"/>
        <pt x="221" y="559" on="1"/>
        <pt x="208" y="559" on="0"/>
        <pt x="181" y="556" on="0"/>
        <pt x="167" y="555" on="1"/>
        <pt x="167" y="66" on="1"/>
        <pt x="182" y="64" on="0"/>
        <pt x="211" y="61" on="0"/>
        <pt x="224" y="61" on="1"/>
        <pt x="324" y="61" on="0"/>
        <pt x="417" y="188" on="0"/>
      </contour>
    </TTGlyph>
    <TTGlyph name="Dcroat" xMin="15" yMin="-9" xMax="501" yMax="630">
      <contour>
        <pt x="187" y="-9" on="1"/>
        <pt x="163" y="-9" on="0"/>
        <pt x="112" y="-5" on="0"/>
        <pt x="85" y="-1" on="1"/>
        <pt x="85" y="285" on="1"/>
        <pt x="15" y="285" on="1"/>
        <pt x="15" y="344" on="1"/>
        <pt x="85" y="344" on="1"/>
        <pt x="85" y="621" on="1"/>
        <pt x="118" y="625" on="0"/>
        <pt x="179" y="630" on="0"/>
        <pt x="206" y="630" on="1"/>
        <pt x="364" y="630" on="0"/>
        <pt x="501" y="475" on="0"/>
        <pt x="501" y="322" on="1"/>
        <pt x="501" y="165" on="0"/>
        <pt x="344" y="-9" on="0"/>
      </contour>
      <contour>
        <pt x="224" y="61" on="1"/>
        <pt x="324" y="61" on="0"/>
        <pt x="417" y="188" on="0"/>
        <pt x="417" y="309" on="1"/>
        <pt x="417" y="434" on="0"/>
        <pt x="325" y="559" on="0"/>
        <pt x="221" y="559" on="1"/>
        <pt x="208" y="559" on="0"/>
        <pt x="181" y="556" on="0"/>
        <pt x="167" y="555" on="1"/>
        <pt x="167" y="344" on="1"/>
        <pt x="298" y="344" on="1"/>
        <pt x="295" y="285" on="1"/>
        <pt x="167" y="285" on="1"/>
        <pt x="167" y="66" on="1"/>
        <pt x="182" y="64" on="0"/>
        <pt x="211" y="61" on="0"/>
      </contour>
    </TTGlyph>
    <TTGlyph name="E" xMin="105" yMin="0" xMax="486" yMax="620">
      <contour>
        <pt x="486" y="71" on="1"/>
        <pt x="478" y="0" on="1"/>
        <pt x="105" y="0" on="1"/>
        <pt x="105" y="620" on="1"/>
        <pt x="481" y="620" on="1"/>
        <pt x="481" y="549" on="1"/>
        <pt x="188" y="549" on="1"/>
        <pt x="188" y="345" on="1"/>
        <pt x="441" y="345" on="1"/>
        <pt x="441" y="282" on="1"/>
        <pt x="188" y="282" on="1"/>
        <pt x="188" y="71" on="1"/>
      </contour>
    </TTGlyph>
    <TTGlyph name="Eacute" xMin="105" yMin="0" xMax="486" yMax="902">
      <contour>
        <pt x="189" y="724" on="1"/>
        <pt x="211" y="739" on="0"/>
        <pt x="263" y="782" on="0"/>
        <pt x="315" y="831" on="0"/>
        <pt x="364" y="881" on="0"/>
        <pt x="382" y="902" on="1"/>
        <pt x="447" y="839" on="1"/>
        <pt x="425" y="819" on="0"/>
        <pt x="365" y="776" on="0"/>
        <pt x="301" y="736" on="0"/>
        <pt x="237" y="700" on="0"/>
        <pt x="212" y="688" on="1"/>
      </contour>
      <contour>
        <pt x="486" y="71" on="1"/>
        <pt x="478" y="0" on="1"/>
        <pt x="105" y="0" on="1"/>
        <pt x="105" y="620" on="1"/>
        <pt x="481" y="620" on="1"/>
        <pt x="481" y="549" on="1"/>
        <pt x="188" y="549" on="1"/>
        <pt x="188" y="345" on="1"/>
        <pt x="441" y="345" on="1"/>
        <pt x="441" y="282" on="1"/>
        <pt x="188" y="282" on="1"/>
        <pt x="188" y="71" on="1"/>
      </contour>
    </TTGlyph>
    <TTGlyph name="Ebreve" xMin="105" yMin="0" xMax="486" yMax="872">
      <contour>
        <pt x="293" y="695" on="1"/>
        <pt x="241" y="695" on="0"/>
        <pt x="148" y="767" on="0"/>
        <pt x="108" y="839" on="1"/>
        <pt x="165" y="872" on="1"/>
        <pt x="202" y="812" on="0"/>
        <pt x="263" y="761" on="0"/>
        <pt x="300" y="761" on="1"/>
        <pt x="339" y="761" on="0"/>
        <pt x="403" y="816" on="0"/>
        <pt x="438" y="868" on="1"/>
        <pt x="486" y="843" on="1"/>
        <pt x="444" y="774" on="0"/>
        <pt x="346" y="695" on="0"/>
      </contour>
      <contour>
        <pt x="486" y="71" on="1"/>
        <pt x="478" y="0" on="1"/>
        <pt x="105" y="0" on="1"/>
        <pt x="105" y="620" on="1"/>
        <pt x="481" y="620" on="1"/>
        <pt x="481" y="549" on="1"/>
        <pt x="188" y="549" on="1"/>
        <pt x="188" y="345" on="1"/>
        <pt x="441" y="345" on="1"/>
        <pt x="441" y="282" on="1"/>
        <pt x="188" y="282" on="1"/>
        <pt x="188" y="71" on="1"/>
      </contour>
    </TTGlyph>
    <TTGlyph name="Ecaron" xMin="105" yMin="0" xMax="486" yMax="877">
      <contour>
        <pt x="302" y="685" on="1"/>
        <pt x="298" y="685" on="1"/>
        <pt x="122" y="828" on="1"/>
        <pt x="173" y="877" on="1"/>
        <pt x="306" y="764" on="1"/>
        <pt x="437" y="876" on="1"/>
        <pt x="478" y="836" on="1"/>
      </contour>
      <contour>
        <pt x="486" y="71" on="1"/>
        <pt x="478" y="0" on="1"/>
        <pt x="105" y="0" on="1"/>
        <pt x="105" y="620" on="1"/>
        <pt x="481" y="620" on="1"/>
        <pt x="481" y="549" on="1"/>
        <pt x="188" y="549" on="1"/>
        <pt x="188" y="345" on="1"/>
        <pt x="441" y="345" on="1"/>
        <pt x="441" y="282" on="1"/>
        <pt x="188" y="282" on="1"/>
        <pt x="188" y="71" on="1"/>
      </contour>
    </TTGlyph>
    <TTGlyph name="Ecircumflex" xMin="105" yMin="0" xMax="486" yMax="883">
      <contour>
        <pt x="421" y="690" on="1"/>
        <pt x="288" y="804" on="1"/>
        <pt x="156" y="691" on="1"/>
        <pt x="116" y="730" on="1"/>
        <pt x="292" y="883" on="1"/>
        <pt x="296" y="883" on="1"/>
        <pt x="472" y="739" on="1"/>
      </contour>
      <contour>
        <pt x="486" y="71" on="1"/>
        <pt x="478" y="0" on="1"/>
        <pt x="105" y="0" on="1"/>
        <pt x="105" y="620" on="1"/>
        <pt x="481" y="620" on="1"/>
        <pt x="481" y="549" on="1"/>
        <pt x="188" y="549" on="1"/>
        <pt x="188" y="345" on="1"/>
        <pt x="441" y="345" on="1"/>
        <pt x="441" y="282" on="1"/>
        <pt x="188" y="282" on="1"/>
        <pt x="188" y="71" on="1"/>
      </contour>
    </TTGlyph>
    <TTGlyph name="Edieresis" xMin="105" yMin="0" xMax="486" yMax="835">
      <contour>
        <pt x="446" y="699" on="1"/>
        <pt x="364" y="699" on="1"/>
        <pt x="365" y="835" on="1"/>
        <pt x="448" y="835" on="1"/>
      </contour>
      <contour>
        <pt x="226" y="699" on="1"/>
        <pt x="144" y="699" on="1"/>
        <pt x="145" y="835" on="1"/>
        <pt x="228" y="835" on="1"/>
      </contour>
      <contour>
        <pt x="486" y="71" on="1"/>
        <pt x="478" y="0" on="1"/>
        <pt x="105" y="0" on="1"/>
        <pt x="105" y="620" on="1"/>
        <pt x="481" y="620" on="1"/>
        <pt x="481" y="549" on="1"/>
        <pt x="188" y="549" on="1"/>
        <pt x="188" y="345" on="1"/>
        <pt x="441" y="345" on="1"/>
        <pt x="441" y="282" on="1"/>
        <pt x="188" y="282" on="1"/>
        <pt x="188" y="71" on="1"/>
      </contour>
    </TTGlyph>
    <TTGlyph name="Edotaccent" xMin="105" yMin="0" xMax="486" yMax="835">
      <contour>
        <pt x="336" y="699" on="1"/>
        <pt x="253" y="699" on="1"/>
        <pt x="256" y="835" on="1"/>
        <pt x="341" y="835" on="1"/>
      </contour>
      <contour>
        <pt x="486" y="71" on="1"/>
        <pt x="478" y="0" on="1"/>
        <pt x="105" y="0" on="1"/>
        <pt x="105" y="620" on="1"/>
        <pt x="481" y="620" on="1"/>
        <pt x="481" y="549" on="1"/>
        <pt x="188" y="549" on="1"/>
        <pt x="188" y="345" on="1"/>
        <pt x="441" y="345" on="1"/>
        <pt x="441" y="282" on="1"/>
        <pt x="188" y="282" on="1"/>
        <pt x="188" y="71" on="1"/>
      </contour>
    </TTGlyph>
    <TTGlyph name="Egrave" xMin="105" yMin="0" xMax="486" yMax="898">
      <contour>
        <pt x="395" y="718" on="1"/>
        <pt x="371" y="682" on="1"/>
        <pt x="346" y="695" on="0"/>
        <pt x="284" y="731" on="0"/>
        <pt x="221" y="771" on="0"/>
        <pt x="161" y="813" on="0"/>
        <pt x="138" y="831" on="1"/>
        <pt x="198" y="898" on="1"/>
        <pt x="217" y="878" on="0"/>
        <pt x="268" y="828" on="0"/>
        <pt x="322" y="779" on="0"/>
        <pt x="374" y="734" on="0"/>
      </contour>
      <contour>
        <pt x="486" y="71" on="1"/>
        <pt x="478" y="0" on="1"/>
        <pt x="105" y="0" on="1"/>
        <pt x="105" y="620" on="1"/>
        <pt x="481" y="620" on="1"/>
        <pt x="481" y="549" on="1"/>
        <pt x="188" y="549" on="1"/>
        <pt x="188" y="345" on="1"/>
        <pt x="441" y="345" on="1"/>
        <pt x="441" y="282" on="1"/>
        <pt x="188" y="282" on="1"/>
        <pt x="188" y="71" on="1"/>
      </contour>
    </TTGlyph>
    <TTGlyph name="Emacron" xMin="105" yMin="0" xMax="486" yMax="804">
      <contour>
        <pt x="461" y="804" on="1"/>
        <pt x="461" y="734" on="1"/>
        <pt x="127" y="734" on="1"/>
        <pt x="127" y="804" on="1"/>
      </contour>
      <contour>
        <pt x="486" y="71" on="1"/>
        <pt x="478" y="0" on="1"/>
        <pt x="105" y="0" on="1"/>
        <pt x="105" y="620" on="1"/>
        <pt x="481" y="620" on="1"/>
        <pt x="481" y="549" on="1"/>
        <pt x="188" y="549" on="1"/>
        <pt x="188" y="345" on="1"/>
        <pt x="441" y="345" on="1"/>
        <pt x="441" y="282" on="1"/>
        <pt x="188" y="282" on="1"/>
        <pt x="188" y="71" on="1"/>
      </contour>
    </TTGlyph>
    <TTGlyph name="Eogonek" xMin="105" yMin="-216" xMax="486" yMax="620">
      <contour>
        <pt x="464" y="-150" on="1"/>
        <pt x="457" y="-216" on="1"/>
        <pt x="356" y="-208" on="0"/>
        <pt x="272" y="-159" on="0"/>
        <pt x="272" y="-122" on="1"/>
        <pt x="272" y="-94" on="0"/>
        <pt x="326" y="-35" on="0"/>
        <pt x="389" y="0" on="1"/>
        <pt x="105" y="0" on="1"/>
        <pt x="105" y="620" on="1"/>
        <pt x="481" y="620" on="1"/>
        <pt x="481" y="549" on="1"/>
        <pt x="188" y="549" on="1"/>
        <pt x="188" y="345" on="1"/>
        <pt x="441" y="345" on="1"/>
        <pt x="441" y="282" on="1"/>
        <pt x="188" y="282" on="1"/>
        <pt x="188" y="71" on="1"/>
        <pt x="486" y="71" on="1"/>
        <pt x="478" y="0" on="1"/>
        <pt x="402" y="-36" on="0"/>
        <pt x="347" y="-84" on="0"/>
        <pt x="347" y="-102" on="1"/>
        <pt x="347" y="-120" on="0"/>
        <pt x="401" y="-144" on="0"/>
      </contour>
    </TTGlyph>
    <TTGlyph name="Eth" xMin="15" yMin="-9" xMax="501" yMax="630">
      <contour>
        <pt x="187" y="-9" on="1"/>
        <pt x="163" y="-9" on="0"/>
        <pt x="112" y="-5" on="0"/>
        <pt x="85" y="-1" on="1"/>
        <pt x="85" y="285" on="1"/>
        <pt x="15" y="285" on="1"/>
        <pt x="15" y="344" on="1"/>
        <pt x="85" y="344" on="1"/>
        <pt x="85" y="621" on="1"/>
        <pt x="118" y="625" on="0"/>
        <pt x="179" y="630" on="0"/>
        <pt x="206" y="630" on="1"/>
        <pt x="364" y="630" on="0"/>
        <pt x="501" y="475" on="0"/>
        <pt x="501" y="322" on="1"/>
        <pt x="501" y="165" on="0"/>
        <pt x="344" y="-9" on="0"/>
      </contour>
      <contour>
        <pt x="224" y="61" on="1"/>
        <pt x="324" y="61" on="0"/>
        <pt x="417" y="188" on="0"/>
        <pt x="417" y="309" on="1"/>
        <pt x="417" y="434" on="0"/>
        <pt x="325" y="559" on="0"/>
        <pt x="221" y="559" on="1"/>
        <pt x="208" y="559" on="0"/>
        <pt x="181" y="556" on="0"/>
        <pt x="167" y="555" on="1"/>
        <pt x="167" y="344" on="1"/>
        <pt x="298" y="344" on="1"/>
        <pt x="295" y="285" on="1"/>
        <pt x="167" y="285" on="1"/>
        <pt x="167" y="66" on="1"/>
        <pt x="182" y="64" on="0"/>
        <pt x="211" y="61" on="0"/>
      </contour>
    </TTGlyph>
    <TTGlyph name="Euro" xMin="61" yMin="-21" xMax="485" yMax="642">
      <contour>
        <pt x="485" y="47" on="1"/>
        <pt x="474" y="-21" on="1"/>
        <pt x="318" y="-3" on="0"/>
        <pt x="161" y="107" on="0"/>
        <pt x="137" y="194" on="1"/>
        <pt x="62" y="194" on="1"/>
        <pt x="62" y="255" on="1"/>
        <pt x="126" y="255" on="1"/>
        <pt x="125" y="268" on="0"/>
        <pt x="123" y="295" on="0"/>
        <pt x="123" y="308" on="1"/>
        <pt x="123" y="319" on="0"/>
        <pt x="124" y="342" on="0"/>
        <pt x="125" y="353" on="1"/>
        <pt x="61" y="353" on="1"/>
        <pt x="61" y="414" on="1"/>
        <pt x="135" y="414" on="1"/>
        <pt x="157" y="496" on="0"/>
        <pt x="306" y="612" on="0"/>
        <pt x="465" y="642" on="1"/>
        <pt x="478" y="564" on="1"/>
        <pt x="344" y="544" on="0"/>
        <pt x="225" y="472" on="0"/>
        <pt x="209" y="409" on="1"/>
        <pt x="432" y="409" on="1"/>
        <pt x="429" y="353" on="1"/>
        <pt x="200" y="353" on="1"/>
        <pt x="199" y="343" on="0"/>
        <pt x="199" y="322" on="0"/>
        <pt x="199" y="312" on="1"/>
        <pt x="199" y="297" on="0"/>
        <pt x="201" y="270" on="0"/>
        <pt x="202" y="257" on="1"/>
        <pt x="428" y="257" on="1"/>
        <pt x="425" y="202" on="1"/>
        <pt x="214" y="202" on="1"/>
        <pt x="234" y="141" on="0"/>
        <pt x="358" y="66" on="0"/>
      </contour>
    </TTGlyph>
    <TTGlyph name="F" xMin="111" yMin="0" xMax="492" yMax="620">
      <contour>
        <pt x="451" y="270" on="1"/>
        <pt x="195" y="270" on="1"/>
        <pt x="195" y="0" on="1"/>
        <pt x="111" y="0" on="1"/>
        <pt x="111" y="620" on="1"/>
        <pt x="492" y="620" on="1"/>
        <pt x="492" y="549" on="1"/>
        <pt x="195" y="549" on="1"/>
        <pt x="195" y="335" on="1"/>
        <pt x="451" y="335" on="1"/>
      </contour>
    </TTGlyph>
    <TTGlyph name="G" xMin="54" yMin="-9" xMax="477" yMax="628">
      <contour>
        <pt x="342" y="-9" on="1"/>
        <pt x="267" y="-9" on="0"/>
        <pt x="158" y="35" on="0"/>
        <pt x="88" y="115" on="0"/>
        <pt x="54" y="227" on="0"/>
        <pt x="54" y="294" on="1"/>
        <pt x="54" y="360" on="0"/>
        <pt x="92" y="478" on="0"/>
        <pt x="184" y="568" on="0"/>
        <pt x="337" y="624" on="0"/>
        <pt x="450" y="628" on="1"/>
        <pt x="455" y="548" on="1"/>
        <pt x="451" y="548" on="1"/>
        <pt x="353" y="548" on="0"/>
        <pt x="230" y="512" on="0"/>
        <pt x="163" y="448" on="0"/>
        <pt x="139" y="360" on="0"/>
        <pt x="139" y="309" on="1"/>
        <pt x="139" y="193" on="0"/>
        <pt x="239" y="58" on="0"/>
        <pt x="367" y="58" on="1"/>
        <pt x="375" y="58" on="0"/>
        <pt x="392" y="58" on="0"/>
        <pt x="401" y="59" on="1"/>
        <pt x="400" y="109" on="0"/>
        <pt x="398" y="242" on="0"/>
        <pt x="398" y="311" on="1"/>
        <pt x="476" y="311" on="1"/>
        <pt x="476" y="141" on="1"/>
        <pt x="476" y="104" on="0"/>
        <pt x="476" y="37" on="0"/>
        <pt x="477" y="7" on="1"/>
        <pt x="440" y="-1" on="0"/>
        <pt x="372" y="-9" on="0"/>
      </contour>
    </TTGlyph>
    <TTGlyph name="Gbreve" xMin="54" yMin="-9" xMax="484" yMax="872">
      <contour>
        <pt x="291" y="695" on="1"/>
        <pt x="239" y="695" on="0"/>
        <pt x="146" y="767" on="0"/>
        <pt x="106" y="839" on="1"/>
        <pt x="163" y="872" on="1"/>
        <pt x="200" y="812" on="0"/>
        <pt x="261" y="761" on="0"/>
        <pt x="298" y="761" on="1"/>
        <pt x="337" y="761" on="0"/>
        <pt x="401" y="816" on="0"/>
        <pt x="436" y="868" on="1"/>
        <pt x="484" y="843" on="1"/>
        <pt x="442" y="774" on="0"/>
        <pt x="344" y="695" on="0"/>
      </contour>
      <contour>
        <pt x="342" y="-9" on="1"/>
        <pt x="267" y="-9" on="0"/>
        <pt x="158" y="35" on="0"/>
        <pt x="88" y="115" on="0"/>
        <pt x="54" y="227" on="0"/>
        <pt x="54" y="294" on="1"/>
        <pt x="54" y="360" on="0"/>
        <pt x="92" y="478" on="0"/>
        <pt x="184" y="568" on="0"/>
        <pt x="337" y="624" on="0"/>
        <pt x="450" y="628" on="1"/>
        <pt x="455" y="548" on="1"/>
        <pt x="451" y="548" on="1"/>
        <pt x="353" y="548" on="0"/>
        <pt x="230" y="512" on="0"/>
        <pt x="163" y="448" on="0"/>
        <pt x="139" y="360" on="0"/>
        <pt x="139" y="309" on="1"/>
        <pt x="139" y="193" on="0"/>
        <pt x="239" y="58" on="0"/>
        <pt x="367" y="58" on="1"/>
        <pt x="375" y="58" on="0"/>
        <pt x="392" y="58" on="0"/>
        <pt x="401" y="59" on="1"/>
        <pt x="400" y="109" on="0"/>
        <pt x="398" y="242" on="0"/>
        <pt x="398" y="311" on="1"/>
        <pt x="476" y="311" on="1"/>
        <pt x="476" y="141" on="1"/>
        <pt x="476" y="104" on="0"/>
        <pt x="476" y="37" on="0"/>
        <pt x="477" y="7" on="1"/>
        <pt x="440" y="-1" on="0"/>
        <pt x="372" y="-9" on="0"/>
      </contour>
    </TTGlyph>
    <TTGlyph name="Gcommaaccent" xMin="54" yMin="-286" xMax="477" yMax="628">
      <contour>
        <pt x="342" y="-9" on="1"/>
        <pt x="267" y="-9" on="0"/>
        <pt x="158" y="35" on="0"/>
        <pt x="88" y="115" on="0"/>
        <pt x="54" y="227" on="0"/>
        <pt x="54" y="294" on="1"/>
        <pt x="54" y="360" on="0"/>
        <pt x="92" y="478" on="0"/>
        <pt x="184" y="568" on="0"/>
        <pt x="337" y="624" on="0"/>
        <pt x="450" y="628" on="1"/>
        <pt x="455" y="548" on="1"/>
        <pt x="451" y="548" on="1"/>
        <pt x="353" y="548" on="0"/>
        <pt x="230" y="512" on="0"/>
        <pt x="163" y="448" on="0"/>
        <pt x="139" y="360" on="0"/>
        <pt x="139" y="309" on="1"/>
        <pt x="139" y="193" on="0"/>
        <pt x="239" y="58" on="0"/>
        <pt x="367" y="58" on="1"/>
        <pt x="375" y="58" on="0"/>
        <pt x="392" y="58" on="0"/>
        <pt x="401" y="59" on="1"/>
        <pt x="400" y="109" on="0"/>
        <pt x="398" y="242" on="0"/>
        <pt x="398" y="311" on="1"/>
        <pt x="476" y="311" on="1"/>
        <pt x="476" y="141" on="1"/>
        <pt x="476" y="104" on="0"/>
        <pt x="476" y="37" on="0"/>
        <pt x="477" y="7" on="1"/>
        <pt x="440" y="-1" on="0"/>
        <pt x="372" y="-9" on="0"/>
      </contour>
      <contour>
        <pt x="233" y="-273" on="1"/>
        <pt x="246" y="-247" on="0"/>
        <pt x="257" y="-196" on="0"/>
        <pt x="257" y="-172" on="1"/>
        <pt x="257" y="-148" on="0"/>
        <pt x="247" y="-103" on="0"/>
        <pt x="239" y="-81" on="1"/>
        <pt x="241" y="-81" on="0"/>
        <pt x="271" y="-79" on="0"/>
        <pt x="307" y="-78" on="0"/>
        <pt x="337" y="-76" on="0"/>
        <pt x="339" y="-76" on="1"/>
        <pt x="340" y="-84" on="0"/>
        <pt x="341" y="-100" on="0"/>
        <pt x="341" y="-108" on="1"/>
        <pt x="341" y="-152" on="0"/>
        <pt x="308" y="-246" on="0"/>
        <pt x="274" y="-286" on="1"/>
      </contour>
    </TTGlyph>
    <TTGlyph name="Gdotaccent" xMin="54" yMin="-9" xMax="477" yMax="835">
      <contour>
        <pt x="333" y="699" on="1"/>
        <pt x="250" y="699" on="1"/>
        <pt x="253" y="835" on="1"/>
        <pt x="338" y="835" on="1"/>
      </contour>
      <contour>
        <pt x="342" y="-9" on="1"/>
        <pt x="267" y="-9" on="0"/>
        <pt x="158" y="35" on="0"/>
        <pt x="88" y="115" on="0"/>
        <pt x="54" y="227" on="0"/>
        <pt x="54" y="294" on="1"/>
        <pt x="54" y="360" on="0"/>
        <pt x="92" y="478" on="0"/>
        <pt x="184" y="568" on="0"/>
        <pt x="337" y="624" on="0"/>
        <pt x="450" y="628" on="1"/>
        <pt x="455" y="548" on="1"/>
        <pt x="451" y="548" on="1"/>
        <pt x="353" y="548" on="0"/>
        <pt x="230" y="512" on="0"/>
        <pt x="163" y="448" on="0"/>
        <pt x="139" y="360" on="0"/>
        <pt x="139" y="309" on="1"/>
        <pt x="139" y="193" on="0"/>
        <pt x="239" y="58" on="0"/>
        <pt x="367" y="58" on="1"/>
        <pt x="375" y="58" on="0"/>
        <pt x="392" y="58" on="0"/>
        <pt x="401" y="59" on="1"/>
        <pt x="400" y="109" on="0"/>
        <pt x="398" y="242" on="0"/>
        <pt x="398" y="311" on="1"/>
        <pt x="476" y="311" on="1"/>
        <pt x="476" y="141" on="1"/>
        <pt x="476" y="104" on="0"/>
        <pt x="476" y="37" on="0"/>
        <pt x="477" y="7" on="1"/>
        <pt x="440" y="-1" on="0"/>
        <pt x="372" y="-9" on="0"/>
      </contour>
    </TTGlyph>
    <TTGlyph name="H" xMin="79" yMin="0" xMax="471" yMax="620">
      <contour>
        <pt x="386" y="0" on="1"/>
        <pt x="386" y="282" on="1"/>
        <pt x="164" y="282" on="1"/>
        <pt x="164" y="0" on="1"/>
        <pt x="79" y="0" on="1"/>
        <pt x="79" y="620" on="1"/>
        <pt x="164" y="620" on="1"/>
        <pt x="164" y="346" on="1"/>
        <pt x="386" y="346" on="1"/>
        <pt x="386" y="620" on="1"/>
        <pt x="471" y="620" on="1"/>
        <pt x="471" y="0" on="1"/>
      </contour>
    </TTGlyph>
    <TTGlyph name="Hbar" xMin="9" yMin="0" xMax="541" yMax="620">
      <contour>
        <pt x="386" y="332" on="1"/>
        <pt x="386" y="446" on="1"/>
        <pt x="164" y="446" on="1"/>
        <pt x="164" y="332" on="1"/>
      </contour>
      <contour>
        <pt x="386" y="0" on="1"/>
        <pt x="386" y="268" on="1"/>
        <pt x="164" y="268" on="1"/>
        <pt x="164" y="0" on="1"/>
        <pt x="79" y="0" on="1"/>
        <pt x="79" y="444" on="1"/>
        <pt x="9" y="444" on="1"/>
        <pt x="9" y="502" on="1"/>
        <pt x="79" y="502" on="1"/>
        <pt x="79" y="620" on="1"/>
        <pt x="164" y="620" on="1"/>
        <pt x="164" y="500" on="1"/>
        <pt x="386" y="500" on="1"/>
        <pt x="386" y="620" on="1"/>
        <pt x="471" y="620" on="1"/>
        <pt x="471" y="502" on="1"/>
        <pt x="541" y="502" on="1"/>
        <pt x="541" y="444" on="1"/>
        <pt x="471" y="444" on="1"/>
        <pt x="471" y="0" on="1"/>
      </contour>
    </TTGlyph>
    <TTGlyph name="I" xMin="80" yMin="0" xMax="474" yMax="620">
      <contour>
        <pt x="316" y="554" on="1"/>
        <pt x="316" y="66" on="1"/>
        <pt x="474" y="66" on="1"/>
        <pt x="468" y="0" on="1"/>
        <pt x="80" y="0" on="1"/>
        <pt x="80" y="66" on="1"/>
        <pt x="233" y="66" on="1"/>
        <pt x="233" y="554" on="1"/>
        <pt x="80" y="554" on="1"/>
        <pt x="80" y="620" on="1"/>
        <pt x="470" y="620" on="1"/>
        <pt x="470" y="554" on="1"/>
      </contour>
    </TTGlyph>
    <TTGlyph name="Iacute" xMin="80" yMin="0" xMax="474" yMax="902">
      <contour>
        <pt x="172" y="724" on="1"/>
        <pt x="194" y="739" on="0"/>
        <pt x="246" y="782" on="0"/>
        <pt x="298" y="831" on="0"/>
        <pt x="347" y="881" on="0"/>
        <pt x="365" y="902" on="1"/>
        <pt x="430" y="839" on="1"/>
        <pt x="408" y="819" on="0"/>
        <pt x="348" y="776" on="0"/>
        <pt x="284" y="736" on="0"/>
        <pt x="220" y="700" on="0"/>
        <pt x="195" y="688" on="1"/>
      </contour>
      <contour>
        <pt x="316" y="554" on="1"/>
        <pt x="316" y="66" on="1"/>
        <pt x="474" y="66" on="1"/>
        <pt x="468" y="0" on="1"/>
        <pt x="80" y="0" on="1"/>
        <pt x="80" y="66" on="1"/>
        <pt x="233" y="66" on="1"/>
        <pt x="233" y="554" on="1"/>
        <pt x="80" y="554" on="1"/>
        <pt x="80" y="620" on="1"/>
        <pt x="470" y="620" on="1"/>
        <pt x="470" y="554" on="1"/>
      </contour>
    </TTGlyph>
    <TTGlyph name="Ibreve" xMin="80" yMin="0" xMax="474" yMax="872">
      <contour>
        <pt x="276" y="695" on="1"/>
        <pt x="224" y="695" on="0"/>
        <pt x="131" y="767" on="0"/>
        <pt x="91" y="839" on="1"/>
        <pt x="148" y="872" on="1"/>
        <pt x="185" y="812" on="0"/>
        <pt x="246" y="761" on="0"/>
        <pt x="283" y="761" on="1"/>
        <pt x="322" y="761" on="0"/>
        <pt x="386" y="816" on="0"/>
        <pt x="421" y="868" on="1"/>
        <pt x="469" y="843" on="1"/>
        <pt x="427" y="774" on="0"/>
        <pt x="329" y="695" on="0"/>
      </contour>
      <contour>
        <pt x="316" y="554" on="1"/>
        <pt x="316" y="66" on="1"/>
        <pt x="474" y="66" on="1"/>
        <pt x="468" y="0" on="1"/>
        <pt x="80" y="0" on="1"/>
        <pt x="80" y="66" on="1"/>
        <pt x="233" y="66" on="1"/>
        <pt x="233" y="554" on="1"/>
        <pt x="80" y="554" on="1"/>
        <pt x="80" y="620" on="1"/>
        <pt x="470" y="620" on="1"/>
        <pt x="470" y="554" on="1"/>
      </contour>
    </TTGlyph>
    <TTGlyph name="Icircumflex" xMin="80" yMin="0" xMax="474" yMax="883">
      <contour>
        <pt x="404" y="690" on="1"/>
        <pt x="271" y="804" on="1"/>
        <pt x="139" y="691" on="1"/>
        <pt x="99" y="730" on="1"/>
        <pt x="275" y="883" on="1"/>
        <pt x="279" y="883" on="1"/>
        <pt x="455" y="739" on="1"/>
      </contour>
      <contour>
        <pt x="316" y="554" on="1"/>
        <pt x="316" y="66" on="1"/>
        <pt x="474" y="66" on="1"/>
        <pt x="468" y="0" on="1"/>
        <pt x="80" y="0" on="1"/>
        <pt x="80" y="66" on="1"/>
        <pt x="233" y="66" on="1"/>
        <pt x="233" y="554" on="1"/>
        <pt x="80" y="554" on="1"/>
        <pt x="80" y="620" on="1"/>
        <pt x="470" y="620" on="1"/>
        <pt x="470" y="554" on="1"/>
      </contour>
    </TTGlyph>
    <TTGlyph name="Idieresis" xMin="80" yMin="0" xMax="474" yMax="835">
      <contour>
        <pt x="429" y="699" on="1"/>
        <pt x="347" y="699" on="1"/>
        <pt x="348" y="835" on="1"/>
        <pt x="431" y="835" on="1"/>
      </contour>
      <contour>
        <pt x="209" y="699" on="1"/>
        <pt x="127" y="699" on="1"/>
        <pt x="128" y="835" on="1"/>
        <pt x="211" y="835" on="1"/>
      </contour>
      <contour>
        <pt x="316" y="554" on="1"/>
        <pt x="316" y="66" on="1"/>
        <pt x="474" y="66" on="1"/>
        <pt x="468" y="0" on="1"/>
        <pt x="80" y="0" on="1"/>
        <pt x="80" y="66" on="1"/>
        <pt x="233" y="66" on="1"/>
        <pt x="233" y="554" on="1"/>
        <pt x="80" y="554" on="1"/>
        <pt x="80" y="620" on="1"/>
        <pt x="470" y="620" on="1"/>
        <pt x="470" y="554" on="1"/>
      </contour>
    </TTGlyph>
    <TTGlyph name="Idotaccent" xMin="80" yMin="0" xMax="474" yMax="835">
      <contour>
        <pt x="319" y="699" on="1"/>
        <pt x="236" y="699" on="1"/>
        <pt x="239" y="835" on="1"/>
        <pt x="324" y="835" on="1"/>
      </contour>
      <contour>
        <pt x="316" y="554" on="1"/>
        <pt x="316" y="66" on="1"/>
        <pt x="474" y="66" on="1"/>
        <pt x="468" y="0" on="1"/>
        <pt x="80" y="0" on="1"/>
        <pt x="80" y="66" on="1"/>
        <pt x="233" y="66" on="1"/>
        <pt x="233" y="554" on="1"/>
        <pt x="80" y="554" on="1"/>
        <pt x="80" y="620" on="1"/>
        <pt x="470" y="620" on="1"/>
        <pt x="470" y="554" on="1"/>
      </contour>
    </TTGlyph>
    <TTGlyph name="Igrave" xMin="80" yMin="0" xMax="474" yMax="898">
      <contour>
        <pt x="378" y="718" on="1"/>
        <pt x="354" y="682" on="1"/>
        <pt x="329" y="695" on="0"/>
        <pt x="267" y="731" on="0"/>
        <pt x="204" y="771" on="0"/>
        <pt x="144" y="813" on="0"/>
        <pt x="121" y="831" on="1"/>
        <pt x="181" y="898" on="1"/>
        <pt x="200" y="878" on="0"/>
        <pt x="251" y="828" on="0"/>
        <pt x="305" y="779" on="0"/>
        <pt x="357" y="734" on="0"/>
      </contour>
      <contour>
        <pt x="316" y="554" on="1"/>
        <pt x="316" y="66" on="1"/>
        <pt x="474" y="66" on="1"/>
        <pt x="468" y="0" on="1"/>
        <pt x="80" y="0" on="1"/>
        <pt x="80" y="66" on="1"/>
        <pt x="233" y="66" on="1"/>
        <pt x="233" y="554" on="1"/>
        <pt x="80" y="554" on="1"/>
        <pt x="80" y="620" on="1"/>
        <pt x="470" y="620" on="1"/>
        <pt x="470" y="554" on="1"/>
      </contour>
    </TTGlyph>
    <TTGlyph name="Imacron" xMin="80" yMin="0" xMax="474" yMax="804">
      <contour>
        <pt x="444" y="804" on="1"/>
        <pt x="444" y="734" on="1"/>
        <pt x="110" y="734" on="1"/>
        <pt x="110" y="804" on="1"/>
      </contour>
      <contour>
        <pt x="316" y="554" on="1"/>
        <pt x="316" y="66" on="1"/>
        <pt x="474" y="66" on="1"/>
        <pt x="468" y="0" on="1"/>
        <pt x="80" y="0" on="1"/>
        <pt x="80" y="66" on="1"/>
        <pt x="233" y="66" on="1"/>
        <pt x="233" y="554" on="1"/>
        <pt x="80" y="554" on="1"/>
        <pt x="80" y="620" on="1"/>
        <pt x="470" y="620" on="1"/>
        <pt x="470" y="554" on="1"/>
      </contour>
    </TTGlyph>
    <TTGlyph name="Iogonek" xMin="80" yMin="-214" xMax="474" yMax="620">
      <contour>
        <pt x="353" y="-149" on="1"/>
        <pt x="345" y="-214" on="1"/>
        <pt x="244" y="-206" on="0"/>
        <pt x="160" y="-155" on="0"/>
        <pt x="160" y="-116" on="1"/>
        <pt x="160" y="-90" on="0"/>
        <pt x="199" y="-34" on="0"/>
        <pt x="242" y="0" on="1"/>
        <pt x="80" y="0" on="1"/>
        <pt x="80" y="66" on="1"/>
        <pt x="233" y="66" on="1"/>
        <pt x="233" y="554" on="1"/>
        <pt x="80" y="554" on="1"/>
        <pt x="80" y="620" on="1"/>
        <pt x="470" y="620" on="1"/>
        <pt x="470" y="554" on="1"/>
        <pt x="316" y="554" on="1"/>
        <pt x="316" y="66" on="1"/>
        <pt x="474" y="66" on="1"/>
        <pt x="468" y="0" on="1"/>
        <pt x="312" y="0" on="1"/>
        <pt x="269" y="-35" on="0"/>
        <pt x="236" y="-80" on="0"/>
        <pt x="236" y="-98" on="1"/>
        <pt x="236" y="-117" on="0"/>
        <pt x="290" y="-142" on="0"/>
      </contour>
    </TTGlyph>
    <TTGlyph name="J" xMin="88" yMin="-10" xMax="423" yMax="620">
      <contour>
        <pt x="126" y="620" on="1"/>
        <pt x="423" y="620" on="1"/>
        <pt x="423" y="201" on="1"/>
        <pt x="423" y="147" on="0"/>
        <pt x="393" y="67" on="0"/>
        <pt x="323" y="16" on="0"/>
        <pt x="207" y="-10" on="0"/>
        <pt x="123" y="-10" on="1"/>
        <pt x="88" y="-10" on="1"/>
        <pt x="88" y="64" on="1"/>
        <pt x="107" y="63" on="0"/>
        <pt x="141" y="62" on="0"/>
        <pt x="157" y="62" on="1"/>
        <pt x="216" y="62" on="0"/>
        <pt x="288" y="76" on="0"/>
        <pt x="327" y="108" on="0"/>
        <pt x="340" y="162" on="0"/>
        <pt x="340" y="201" on="1"/>
        <pt x="340" y="553" on="1"/>
        <pt x="126" y="553" on="1"/>
      </contour>
    </TTGlyph>
    <TTGlyph name="K" xMin="91" yMin="-6" xMax="519" yMax="620">
      <contour>
        <pt x="428" y="-6" on="1"/>
        <pt x="238" y="279" on="1"/>
        <pt x="174" y="279" on="1"/>
        <pt x="174" y="0" on="1"/>
        <pt x="91" y="0" on="1"/>
        <pt x="91" y="620" on="1"/>
        <pt x="174" y="620" on="1"/>
        <pt x="174" y="347" on="1"/>
        <pt x="242" y="347" on="1"/>
        <pt x="415" y="620" on="1"/>
        <pt x="504" y="620" on="1"/>
        <pt x="307" y="317" on="1"/>
        <pt x="519" y="5" on="1"/>
      </contour>
    </TTGlyph>
    <TTGlyph name="Kcommaaccent" xMin="91" yMin="-283" xMax="519" yMax="620">
      <contour>
        <pt x="428" y="-6" on="1"/>
        <pt x="238" y="279" on="1"/>
        <pt x="174" y="279" on="1"/>
        <pt x="174" y="0" on="1"/>
        <pt x="91" y="0" on="1"/>
        <pt x="91" y="620" on="1"/>
        <pt x="174" y="620" on="1"/>
        <pt x="174" y="347" on="1"/>
        <pt x="242" y="347" on="1"/>
        <pt x="415" y="620" on="1"/>
        <pt x="504" y="620" on="1"/>
        <pt x="307" y="317" on="1"/>
        <pt x="519" y="5" on="1"/>
      </contour>
      <contour>
        <pt x="216" y="-270" on="1"/>
        <pt x="229" y="-244" on="0"/>
        <pt x="240" y="-193" on="0"/>
        <pt x="240" y="-169" on="1"/>
        <pt x="240" y="-145" on="0"/>
        <pt x="230" y="-100" on="0"/>
        <pt x="222" y="-78" on="1"/>
        <pt x="224" y="-78" on="0"/>
        <pt x="254" y="-76" on="0"/>
        <pt x="290" y="-75" on="0"/>
        <pt x="320" y="-73" on="0"/>
        <pt x="322" y="-73" on="1"/>
        <pt x="323" y="-81" on="0"/>
        <pt x="324" y="-97" on="0"/>
        <pt x="324" y="-105" on="1"/>
        <pt x="324" y="-149" on="0"/>
        <pt x="291" y="-243" on="0"/>
        <pt x="257" y="-283" on="1"/>
      </contour>
    </TTGlyph>
    <TTGlyph name="L" xMin="113" yMin="0" xMax="498" yMax="620">
      <contour>
        <pt x="490" y="0" on="1"/>
        <pt x="113" y="0" on="1"/>
        <pt x="113" y="620" on="1"/>
        <pt x="197" y="620" on="1"/>
        <pt x="197" y="71" on="1"/>
        <pt x="498" y="71" on="1"/>
      </contour>
    </TTGlyph>
    <TTGlyph name="Lacute" xMin="113" yMin="0" xMax="498" yMax="902">
      <contour>
        <pt x="197" y="724" on="1"/>
        <pt x="219" y="739" on="0"/>
        <pt x="271" y="782" on="0"/>
        <pt x="323" y="831" on="0"/>
        <pt x="372" y="881" on="0"/>
        <pt x="390" y="902" on="1"/>
        <pt x="455" y="839" on="1"/>
        <pt x="433" y="819" on="0"/>
        <pt x="373" y="776" on="0"/>
        <pt x="309" y="736" on="0"/>
        <pt x="245" y="700" on="0"/>
        <pt x="220" y="688" on="1"/>
      </contour>
      <contour>
        <pt x="490" y="0" on="1"/>
        <pt x="113" y="0" on="1"/>
        <pt x="113" y="620" on="1"/>
        <pt x="197" y="620" on="1"/>
        <pt x="197" y="71" on="1"/>
        <pt x="498" y="71" on="1"/>
      </contour>
    </TTGlyph>
    <TTGlyph name="Lcaron" xMin="113" yMin="0" xMax="498" yMax="701">
      <contour>
        <pt x="368" y="463" on="1"/>
        <pt x="382" y="497" on="0"/>
        <pt x="395" y="561" on="0"/>
        <pt x="395" y="591" on="1"/>
        <pt x="395" y="619" on="0"/>
        <pt x="386" y="673" on="0"/>
        <pt x="379" y="700" on="1"/>
        <pt x="470" y="701" on="1"/>
        <pt x="471" y="689" on="0"/>
        <pt x="473" y="665" on="0"/>
        <pt x="473" y="654" on="1"/>
        <pt x="473" y="604" on="0"/>
        <pt x="441" y="504" on="0"/>
        <pt x="405" y="450" on="1"/>
      </contour>
      <contour>
        <pt x="490" y="0" on="1"/>
        <pt x="113" y="0" on="1"/>
        <pt x="113" y="620" on="1"/>
        <pt x="197" y="620" on="1"/>
        <pt x="197" y="71" on="1"/>
        <pt x="498" y="71" on="1"/>
      </contour>
    </TTGlyph>
    <TTGlyph name="Lcommaaccent" xMin="113" yMin="-277" xMax="498" yMax="620">
      <contour>
        <pt x="490" y="0" on="1"/>
        <pt x="113" y="0" on="1"/>
        <pt x="113" y="620" on="1"/>
        <pt x="197" y="620" on="1"/>
        <pt x="197" y="71" on="1"/>
        <pt x="498" y="71" on="1"/>
      </contour>
      <contour>
        <pt x="244" y="-264" on="1"/>
        <pt x="257" y="-238" on="0"/>
        <pt x="268" y="-187" on="0"/>
        <pt x="268" y="-163" on="1"/>
        <pt x="268" y="-139" on="0"/>
        <pt x="258" y="-94" on="0"/>
        <pt x="250" y="-72" on="1"/>
        <pt x="252" y="-72" on="0"/>
        <pt x="282" y="-70" on="0"/>
        <pt x="318" y="-69" on="0"/>
        <pt x="348" y="-67" on="0"/>
        <pt x="350" y="-67" on="1"/>
        <pt x="351" y="-75" on="0"/>
        <pt x="352" y="-91" on="0"/>
        <pt x="352" y="-99" on="1"/>
        <pt x="352" y="-143" on="0"/>
        <pt x="319" y="-237" on="0"/>
        <pt x="285" y="-277" on="1"/>
      </contour>
    </TTGlyph>
    <TTGlyph name="Ldot" xMin="113" yMin="0" xMax="498" yMax="620">
      <contour>
        <pt x="490" y="0" on="1"/>
        <pt x="113" y="0" on="1"/>
        <pt x="113" y="620" on="1"/>
        <pt x="197" y="620" on="1"/>
        <pt x="197" y="71" on="1"/>
        <pt x="498" y="71" on="1"/>
      </contour>
      <contour>
        <pt x="473" y="266" on="1"/>
        <pt x="381" y="266" on="1"/>
        <pt x="387" y="374" on="1"/>
        <pt x="479" y="374" on="1"/>
      </contour>
    </TTGlyph>
    <TTGlyph name="Lslash" xMin="31" yMin="0" xMax="498" yMax="620">
      <contour>
        <pt x="490" y="0" on="1"/>
        <pt x="113" y="0" on="1"/>
        <pt x="113" y="294" on="1"/>
        <pt x="45" y="259" on="1"/>
        <pt x="31" y="316" on="1"/>
        <pt x="113" y="358" on="1"/>
        <pt x="113" y="620" on="1"/>
        <pt x="197" y="620" on="1"/>
        <pt x="197" y="401" on="1"/>
        <pt x="334" y="472" on="1"/>
        <pt x="348" y="415" on="1"/>
        <pt x="197" y="337" on="1"/>
        <pt x="197" y="71" on="1"/>
        <pt x="498" y="71" on="1"/>
      </contour>
    </TTGlyph>
    <TTGlyph name="M" xMin="66" yMin="0" xMax="483" yMax="620">
      <contour>
        <pt x="390" y="620" on="1"/>
        <pt x="483" y="620" on="1"/>
        <pt x="483" y="0" on="1"/>
        <pt x="404" y="0" on="1"/>
        <pt x="408" y="481" on="1"/>
        <pt x="404" y="481" on="1"/>
        <pt x="302" y="108" on="1"/>
        <pt x="246" y="108" on="1"/>
        <pt x="142" y="481" on="1"/>
        <pt x="138" y="481" on="1"/>
        <pt x="142" y="0" on="1"/>
        <pt x="66" y="0" on="1"/>
        <pt x="66" y="620" on="1"/>
        <pt x="160" y="620" on="1"/>
        <pt x="160" y="620" on="0"/>
        <pt x="192" y="506" on="0"/>
        <pt x="232" y="361" on="0"/>
        <pt x="269" y="227" on="0"/>
        <pt x="274" y="208" on="1"/>
        <pt x="278" y="208" on="1"/>
        <pt x="283" y="227" on="0"/>
        <pt x="320" y="361" on="0"/>
        <pt x="359" y="506" on="0"/>
        <pt x="390" y="620" on="0"/>
      </contour>
    </TTGlyph>
    <TTGlyph name="N" xMin="80" yMin="0" xMax="471" yMax="620">
      <contour>
        <pt x="392" y="0" on="1"/>
        <pt x="159" y="481" on="1"/>
        <pt x="154" y="481" on="1"/>
        <pt x="157" y="0" on="1"/>
        <pt x="80" y="0" on="1"/>
        <pt x="80" y="620" on="1"/>
        <pt x="167" y="620" on="1"/>
        <pt x="392" y="148" on="1"/>
        <pt x="396" y="148" on="1"/>
        <pt x="393" y="620" on="1"/>
        <pt x="471" y="620" on="1"/>
        <pt x="471" y="0" on="1"/>
      </contour>
    </TTGlyph>
    <TTGlyph name="Nacute" xMin="80" yMin="0" xMax="471" yMax="902">
      <contour>
        <pt x="169" y="724" on="1"/>
        <pt x="191" y="739" on="0"/>
        <pt x="243" y="782" on="0"/>
        <pt x="295" y="831" on="0"/>
        <pt x="344" y="881" on="0"/>
        <pt x="362" y="902" on="1"/>
        <pt x="427" y="839" on="1"/>
        <pt x="405" y="819" on="0"/>
        <pt x="345" y="776" on="0"/>
        <pt x="281" y="736" on="0"/>
        <pt x="217" y="700" on="0"/>
        <pt x="192" y="688" on="1"/>
      </contour>
      <contour>
        <pt x="392" y="0" on="1"/>
        <pt x="159" y="481" on="1"/>
        <pt x="154" y="481" on="1"/>
        <pt x="157" y="0" on="1"/>
        <pt x="80" y="0" on="1"/>
        <pt x="80" y="620" on="1"/>
        <pt x="167" y="620" on="1"/>
        <pt x="392" y="148" on="1"/>
        <pt x="396" y="148" on="1"/>
        <pt x="393" y="620" on="1"/>
        <pt x="471" y="620" on="1"/>
        <pt x="471" y="0" on="1"/>
      </contour>
    </TTGlyph>
    <TTGlyph name="Ncaron" xMin="80" yMin="0" xMax="471" yMax="877">
      <contour>
        <pt x="282" y="685" on="1"/>
        <pt x="278" y="685" on="1"/>
        <pt x="102" y="828" on="1"/>
        <pt x="153" y="877" on="1"/>
        <pt x="286" y="764" on="1"/>
        <pt x="417" y="876" on="1"/>
        <pt x="458" y="836" on="1"/>
      </contour>
      <contour>
        <pt x="392" y="0" on="1"/>
        <pt x="159" y="481" on="1"/>
        <pt x="154" y="481" on="1"/>
        <pt x="157" y="0" on="1"/>
        <pt x="80" y="0" on="1"/>
        <pt x="80" y="620" on="1"/>
        <pt x="167" y="620" on="1"/>
        <pt x="392" y="148" on="1"/>
        <pt x="396" y="148" on="1"/>
        <pt x="393" y="620" on="1"/>
        <pt x="471" y="620" on="1"/>
        <pt x="471" y="0" on="1"/>
      </contour>
    </TTGlyph>
    <TTGlyph name="Ncommaaccent" xMin="80" yMin="-277" xMax="471" yMax="620">
      <contour>
        <pt x="392" y="0" on="1"/>
        <pt x="159" y="481" on="1"/>
        <pt x="154" y="481" on="1"/>
        <pt x="157" y="0" on="1"/>
        <pt x="80" y="0" on="1"/>
        <pt x="80" y="620" on="1"/>
        <pt x="167" y="620" on="1"/>
        <pt x="392" y="148" on="1"/>
        <pt x="396" y="148" on="1"/>
        <pt x="393" y="620" on="1"/>
        <pt x="471" y="620" on="1"/>
        <pt x="471" y="0" on="1"/>
      </contour>
      <contour>
        <pt x="215" y="-264" on="1"/>
        <pt x="228" y="-238" on="0"/>
        <pt x="239" y="-187" on="0"/>
        <pt x="239" y="-163" on="1"/>
        <pt x="239" y="-139" on="0"/>
        <pt x="229" y="-94" on="0"/>
        <pt x="221" y="-72" on="1"/>
        <pt x="223" y="-72" on="0"/>
        <pt x="253" y="-70" on="0"/>
        <pt x="289" y="-69" on="0"/>
        <pt x="319" y="-67" on="0"/>
        <pt x="321" y="-67" on="1"/>
        <pt x="322" y="-75" on="0"/>
        <pt x="323" y="-91" on="0"/>
        <pt x="323" y="-99" on="1"/>
        <pt x="323" y="-143" on="0"/>
        <pt x="290" y="-237" on="0"/>
        <pt x="256" y="-277" on="1"/>
      </contour>
    </TTGlyph>
    <TTGlyph name="Ntilde" xMin="80" yMin="0" xMax="483" yMax="864">
      <contour>
        <pt x="351" y="697" on="1"/>
        <pt x="327" y="697" on="0"/>
        <pt x="287" y="728" on="0"/>
        <pt x="252" y="766" on="0"/>
        <pt x="220" y="797" on="0"/>
        <pt x="204" y="797" on="1"/>
        <pt x="185" y="797" on="0"/>
        <pt x="146" y="748" on="0"/>
        <pt x="126" y="705" on="1"/>
        <pt x="81" y="725" on="1"/>
        <pt x="107" y="788" on="0"/>
        <pt x="175" y="864" on="0"/>
        <pt x="213" y="864" on="1"/>
        <pt x="237" y="864" on="0"/>
        <pt x="277" y="832" on="0"/>
        <pt x="312" y="795" on="0"/>
        <pt x="344" y="763" on="0"/>
        <pt x="360" y="763" on="1"/>
        <pt x="379" y="763" on="0"/>
        <pt x="417" y="812" on="0"/>
        <pt x="437" y="856" on="1"/>
        <pt x="483" y="836" on="1"/>
        <pt x="456" y="773" on="0"/>
        <pt x="388" y="697" on="0"/>
      </contour>
      <contour>
        <pt x="392" y="0" on="1"/>
        <pt x="159" y="481" on="1"/>
        <pt x="154" y="481" on="1"/>
        <pt x="157" y="0" on="1"/>
        <pt x="80" y="0" on="1"/>
        <pt x="80" y="620" on="1"/>
        <pt x="167" y="620" on="1"/>
        <pt x="392" y="148" on="1"/>
        <pt x="396" y="148" on="1"/>
        <pt x="393" y="620" on="1"/>
        <pt x="471" y="620" on="1"/>
        <pt x="471" y="0" on="1"/>
      </contour>
    </TTGlyph>
    <TTGlyph name="O" xMin="46" yMin="-15" xMax="504" yMax="635">
      <contour>
        <pt x="264" y="-15" on="1"/>
        <pt x="161" y="-15" on="0"/>
        <pt x="46" y="147" on="0"/>
        <pt x="46" y="296" on="1"/>
        <pt x="46" y="459" on="0"/>
        <pt x="176" y="635" on="0"/>
        <pt x="286" y="635" on="1"/>
        <pt x="390" y="635" on="0"/>
        <pt x="504" y="473" on="0"/>
        <pt x="504" y="324" on="1"/>
        <pt x="504" y="321" on="1"/>
        <pt x="504" y="160" on="0"/>
        <pt x="373" y="-15" on="0"/>
      </contour>
      <contour>
        <pt x="272" y="566" on="1"/>
        <pt x="203" y="566" on="0"/>
        <pt x="131" y="438" on="0"/>
        <pt x="131" y="314" on="1"/>
        <pt x="131" y="187" on="0"/>
        <pt x="206" y="54" on="0"/>
        <pt x="278" y="54" on="1"/>
        <pt x="347" y="54" on="0"/>
        <pt x="419" y="182" on="0"/>
        <pt x="419" y="306" on="1"/>
        <pt x="419" y="433" on="0"/>
        <pt x="343" y="566" on="0"/>
      </contour>
    </TTGlyph>
    <TTGlyph name="OE" xMin="37" yMin="0" xMax="510" yMax="620">
      <contour>
        <pt x="120" y="312" on="1"/>
        <pt x="120" y="184" on="0"/>
        <pt x="192" y="71" on="0"/>
        <pt x="270" y="71" on="1"/>
        <pt x="270" y="548" on="1"/>
        <pt x="193" y="547" on="0"/>
        <pt x="120" y="436" on="0"/>
      </contour>
      <contour>
        <pt x="510" y="71" on="1"/>
        <pt x="504" y="0" on="1"/>
        <pt x="292" y="0" on="1"/>
        <pt x="162" y="0" on="0"/>
        <pt x="37" y="144" on="0"/>
        <pt x="37" y="298" on="1"/>
        <pt x="37" y="452" on="0"/>
        <pt x="165" y="620" on="0"/>
        <pt x="294" y="620" on="1"/>
        <pt x="506" y="620" on="1"/>
        <pt x="506" y="549" on="1"/>
        <pt x="342" y="549" on="1"/>
        <pt x="342" y="345" on="1"/>
        <pt x="479" y="345" on="1"/>
        <pt x="479" y="282" on="1"/>
        <pt x="342" y="282" on="1"/>
        <pt x="342" y="71" on="1"/>
      </contour>
    </TTGlyph>
    <TTGlyph name="Oacute" xMin="46" yMin="-15" xMax="504" yMax="909">
      <contour>
        <pt x="173" y="731" on="1"/>
        <pt x="195" y="746" on="0"/>
        <pt x="247" y="789" on="0"/>
        <pt x="299" y="838" on="0"/>
        <pt x="348" y="888" on="0"/>
        <pt x="366" y="909" on="1"/>
        <pt x="431" y="846" on="1"/>
        <pt x="409" y="826" on="0"/>
        <pt x="349" y="783" on="0"/>
        <pt x="285" y="743" on="0"/>
        <pt x="221" y="707" on="0"/>
        <pt x="196" y="695" on="1"/>
      </contour>
      <contour>
        <pt x="264" y="-15" on="1"/>
        <pt x="161" y="-15" on="0"/>
        <pt x="46" y="147" on="0"/>
        <pt x="46" y="296" on="1"/>
        <pt x="46" y="459" on="0"/>
        <pt x="176" y="635" on="0"/>
        <pt x="286" y="635" on="1"/>
        <pt x="390" y="635" on="0"/>
        <pt x="504" y="473" on="0"/>
        <pt x="504" y="324" on="1"/>
        <pt x="504" y="321" on="1"/>
        <pt x="504" y="160" on="0"/>
        <pt x="373" y="-15" on="0"/>
      </contour>
      <contour>
        <pt x="272" y="566" on="1"/>
        <pt x="203" y="566" on="0"/>
        <pt x="131" y="438" on="0"/>
        <pt x="131" y="314" on="1"/>
        <pt x="131" y="187" on="0"/>
        <pt x="206" y="54" on="0"/>
        <pt x="278" y="54" on="1"/>
        <pt x="347" y="54" on="0"/>
        <pt x="419" y="182" on="0"/>
        <pt x="419" y="306" on="1"/>
        <pt x="419" y="433" on="0"/>
        <pt x="343" y="566" on="0"/>
      </contour>
    </TTGlyph>
    <TTGlyph name="Obreve" xMin="46" yMin="-15" xMax="504" yMax="879">
      <contour>
        <pt x="277" y="702" on="1"/>
        <pt x="225" y="702" on="0"/>
        <pt x="132" y="774" on="0"/>
        <pt x="92" y="846" on="1"/>
        <pt x="149" y="879" on="1"/>
        <pt x="186" y="819" on="0"/>
        <pt x="247" y="768" on="0"/>
        <pt x="284" y="768" on="1"/>
        <pt x="323" y="768" on="0"/>
        <pt x="387" y="823" on="0"/>
        <pt x="422" y="875" on="1"/>
        <pt x="470" y="850" on="1"/>
        <pt x="428" y="781" on="0"/>
        <pt x="330" y="702" on="0"/>
      </contour>
      <contour>
        <pt x="264" y="-15" on="1"/>
        <pt x="161" y="-15" on="0"/>
        <pt x="46" y="147" on="0"/>
        <pt x="46" y="296" on="1"/>
        <pt x="46" y="459" on="0"/>
        <pt x="176" y="635" on="0"/>
        <pt x="286" y="635" on="1"/>
        <pt x="390" y="635" on="0"/>
        <pt x="504" y="473" on="0"/>
        <pt x="504" y="324" on="1"/>
        <pt x="504" y="321" on="1"/>
        <pt x="504" y="160" on="0"/>
        <pt x="373" y="-15" on="0"/>
      </contour>
      <contour>
        <pt x="272" y="566" on="1"/>
        <pt x="203" y="566" on="0"/>
        <pt x="131" y="438" on="0"/>
        <pt x="131" y="314" on="1"/>
        <pt x="131" y="187" on="0"/>
        <pt x="206" y="54" on="0"/>
        <pt x="278" y="54" on="1"/>
        <pt x="347" y="54" on="0"/>
        <pt x="419" y="182" on="0"/>
        <pt x="419" y="306" on="1"/>
        <pt x="419" y="433" on="0"/>
        <pt x="343" y="566" on="0"/>
      </contour>
    </TTGlyph>
    <TTGlyph name="Ocircumflex" xMin="46" yMin="-15" xMax="504" yMax="890">
      <contour>
        <pt x="405" y="697" on="1"/>
        <pt x="272" y="811" on="1"/>
        <pt x="140" y="698" on="1"/>
        <pt x="100" y="737" on="1"/>
        <pt x="276" y="890" on="1"/>
        <pt x="280" y="890" on="1"/>
        <pt x="456" y="746" on="1"/>
      </contour>
      <contour>
        <pt x="264" y="-15" on="1"/>
        <pt x="161" y="-15" on="0"/>
        <pt x="46" y="147" on="0"/>
        <pt x="46" y="296" on="1"/>
        <pt x="46" y="459" on="0"/>
        <pt x="176" y="635" on="0"/>
        <pt x="286" y="635" on="1"/>
        <pt x="390" y="635" on="0"/>
        <pt x="504" y="473" on="0"/>
        <pt x="504" y="324" on="1"/>
        <pt x="504" y="321" on="1"/>
        <pt x="504" y="160" on="0"/>
        <pt x="373" y="-15" on="0"/>
      </contour>
      <contour>
        <pt x="272" y="566" on="1"/>
        <pt x="203" y="566" on="0"/>
        <pt x="131" y="438" on="0"/>
        <pt x="131" y="314" on="1"/>
        <pt x="131" y="187" on="0"/>
        <pt x="206" y="54" on="0"/>
        <pt x="278" y="54" on="1"/>
        <pt x="347" y="54" on="0"/>
        <pt x="419" y="182" on="0"/>
        <pt x="419" y="306" on="1"/>
        <pt x="419" y="433" on="0"/>
        <pt x="343" y="566" on="0"/>
      </contour>
    </TTGlyph>
    <TTGlyph name="Odieresis" xMin="46" yMin="-15" xMax="504" yMax="842">
      <contour>
        <pt x="430" y="706" on="1"/>
        <pt x="348" y="706" on="1"/>
        <pt x="349" y="842" on="1"/>
        <pt x="432" y="842" on="1"/>
      </contour>
      <contour>
        <pt x="210" y="706" on="1"/>
        <pt x="128" y="706" on="1"/>
        <pt x="129" y="842" on="1"/>
        <pt x="212" y="842" on="1"/>
      </contour>
      <contour>
        <pt x="264" y="-15" on="1"/>
        <pt x="161" y="-15" on="0"/>
        <pt x="46" y="147" on="0"/>
        <pt x="46" y="296" on="1"/>
        <pt x="46" y="459" on="0"/>
        <pt x="176" y="635" on="0"/>
        <pt x="286" y="635" on="1"/>
        <pt x="390" y="635" on="0"/>
        <pt x="504" y="473" on="0"/>
        <pt x="504" y="324" on="1"/>
        <pt x="504" y="321" on="1"/>
        <pt x="504" y="160" on="0"/>
        <pt x="373" y="-15" on="0"/>
      </contour>
      <contour>
        <pt x="272" y="566" on="1"/>
        <pt x="203" y="566" on="0"/>
        <pt x="131" y="438" on="0"/>
        <pt x="131" y="314" on="1"/>
        <pt x="131" y="187" on="0"/>
        <pt x="206" y="54" on="0"/>
        <pt x="278" y="54" on="1"/>
        <pt x="347" y="54" on="0"/>
        <pt x="419" y="182" on="0"/>
        <pt x="419" y="306" on="1"/>
        <pt x="419" y="433" on="0"/>
        <pt x="343" y="566" on="0"/>
      </contour>
    </TTGlyph>
    <TTGlyph name="Ograve" xMin="46" yMin="-15" xMax="504" yMax="905">
      <contour>
        <pt x="379" y="725" on="1"/>
        <pt x="355" y="689" on="1"/>
        <pt x="330" y="702" on="0"/>
        <pt x="268" y="738" on="0"/>
        <pt x="205" y="778" on="0"/>
        <pt x="145" y="820" on="0"/>
        <pt x="122" y="838" on="1"/>
        <pt x="182" y="905" on="1"/>
        <pt x="201" y="885" on="0"/>
        <pt x="252" y="835" on="0"/>
        <pt x="306" y="786" on="0"/>
        <pt x="358" y="741" on="0"/>
      </contour>
      <contour>
        <pt x="264" y="-15" on="1"/>
        <pt x="161" y="-15" on="0"/>
        <pt x="46" y="147" on="0"/>
        <pt x="46" y="296" on="1"/>
        <pt x="46" y="459" on="0"/>
        <pt x="176" y="635" on="0"/>
        <pt x="286" y="635" on="1"/>
        <pt x="390" y="635" on="0"/>
        <pt x="504" y="473" on="0"/>
        <pt x="504" y="324" on="1"/>
        <pt x="504" y="321" on="1"/>
        <pt x="504" y="160" on="0"/>
        <pt x="373" y="-15" on="0"/>
      </contour>
      <contour>
        <pt x="272" y="566" on="1"/>
        <pt x="203" y="566" on="0"/>
        <pt x="131" y="438" on="0"/>
        <pt x="131" y="314" on="1"/>
        <pt x="131" y="187" on="0"/>
        <pt x="206" y="54" on="0"/>
        <pt x="278" y="54" on="1"/>
        <pt x="347" y="54" on="0"/>
        <pt x="419" y="182" on="0"/>
        <pt x="419" y="306" on="1"/>
        <pt x="419" y="433" on="0"/>
        <pt x="343" y="566" on="0"/>
      </contour>
    </TTGlyph>
    <TTGlyph name="Ohungarumlaut" xMin="46" yMin="-15" xMax="526" yMax="922">
      <contour>
        <pt x="130" y="723" on="1"/>
        <pt x="144" y="744" on="0"/>
        <pt x="175" y="795" on="0"/>
        <pt x="203" y="848" on="0"/>
        <pt x="227" y="900" on="0"/>
        <pt x="236" y="922" on="1"/>
        <pt x="317" y="883" on="1"/>
        <pt x="292" y="841" on="0"/>
        <pt x="208" y="736" on="0"/>
        <pt x="169" y="697" on="1"/>
      </contour>
      <contour>
        <pt x="338" y="721" on="1"/>
        <pt x="366" y="763" on="0"/>
        <pt x="425" y="873" on="0"/>
        <pt x="442" y="917" on="1"/>
        <pt x="526" y="882" on="1"/>
        <pt x="500" y="840" on="0"/>
        <pt x="417" y="736" on="0"/>
        <pt x="377" y="697" on="1"/>
      </contour>
      <contour>
        <pt x="264" y="-15" on="1"/>
        <pt x="161" y="-15" on="0"/>
        <pt x="46" y="147" on="0"/>
        <pt x="46" y="296" on="1"/>
        <pt x="46" y="459" on="0"/>
        <pt x="176" y="635" on="0"/>
        <pt x="286" y="635" on="1"/>
        <pt x="390" y="635" on="0"/>
        <pt x="504" y="473" on="0"/>
        <pt x="504" y="324" on="1"/>
        <pt x="504" y="321" on="1"/>
        <pt x="504" y="160" on="0"/>
        <pt x="373" y="-15" on="0"/>
      </contour>
      <contour>
        <pt x="272" y="566" on="1"/>
        <pt x="203" y="566" on="0"/>
        <pt x="131" y="438" on="0"/>
        <pt x="131" y="314" on="1"/>
        <pt x="131" y="187" on="0"/>
        <pt x="206" y="54" on="0"/>
        <pt x="278" y="54" on="1"/>
        <pt x="347" y="54" on="0"/>
        <pt x="419" y="182" on="0"/>
        <pt x="419" y="306" on="1"/>
        <pt x="419" y="433" on="0"/>
        <pt x="343" y="566" on="0"/>
      </contour>
    </TTGlyph>
    <TTGlyph name="Omacron" xMin="46" yMin="-15" xMax="504" yMax="811">
      <contour>
        <pt x="445" y="811" on="1"/>
        <pt x="445" y="741" on="1"/>
        <pt x="111" y="741" on="1"/>
        <pt x="111" y="811" on="1"/>
      </contour>
      <contour>
        <pt x="264" y="-15" on="1"/>
        <pt x="161" y="-15" on="0"/>
        <pt x="46" y="147" on="0"/>
        <pt x="46" y="296" on="1"/>
        <pt x="46" y="459" on="0"/>
        <pt x="176" y="635" on="0"/>
        <pt x="286" y="635" on="1"/>
        <pt x="390" y="635" on="0"/>
        <pt x="504" y="473" on="0"/>
        <pt x="504" y="324" on="1"/>
        <pt x="504" y="321" on="1"/>
        <pt x="504" y="160" on="0"/>
        <pt x="373" y="-15" on="0"/>
      </contour>
      <contour>
        <pt x="272" y="566" on="1"/>
        <pt x="203" y="566" on="0"/>
        <pt x="131" y="438" on="0"/>
        <pt x="131" y="314" on="1"/>
        <pt x="131" y="187" on="0"/>
        <pt x="206" y="54" on="0"/>
        <pt x="278" y="54" on="1"/>
        <pt x="347" y="54" on="0"/>
        <pt x="419" y="182" on="0"/>
        <pt x="419" y="306" on="1"/>
        <pt x="419" y="433" on="0"/>
        <pt x="343" y="566" on="0"/>
      </contour>
    </TTGlyph>
    <TTGlyph name="Omega" xMin="46" yMin="0" xMax="505" yMax="634">
      <contour>
        <pt x="229" y="5" on="1"/>
        <pt x="227" y="0" on="1"/>
        <pt x="46" y="0" on="1"/>
        <pt x="46" y="66" on="1"/>
        <pt x="144" y="66" on="1"/>
        <pt x="107" y="153" on="0"/>
        <pt x="71" y="310" on="0"/>
        <pt x="71" y="376" on="1"/>
        <pt x="71" y="491" on="0"/>
        <pt x="180" y="634" on="0"/>
        <pt x="279" y="634" on="1"/>
        <pt x="377" y="634" on="0"/>
        <pt x="481" y="492" on="0"/>
        <pt x="481" y="378" on="1"/>
        <pt x="481" y="312" on="0"/>
        <pt x="444" y="154" on="0"/>
        <pt x="406" y="66" on="1"/>
        <pt x="505" y="66" on="1"/>
        <pt x="505" y="0" on="1"/>
        <pt x="324" y="0" on="1"/>
        <pt x="322" y="5" on="1"/>
        <pt x="363" y="112" on="0"/>
        <pt x="401" y="293" on="0"/>
        <pt x="401" y="362" on="1"/>
        <pt x="401" y="455" on="0"/>
        <pt x="336" y="559" on="0"/>
        <pt x="275" y="559" on="1"/>
        <pt x="214" y="559" on="0"/>
        <pt x="148" y="456" on="0"/>
        <pt x="148" y="364" on="1"/>
        <pt x="148" y="295" on="0"/>
        <pt x="188" y="114" on="0"/>
      </contour>
    </TTGlyph>
    <TTGlyph name="Oslash" xMin="46" yMin="-36" xMax="504" yMax="656">
      <contour>
        <pt x="130" y="314" on="1"/>
        <pt x="130" y="261" on="0"/>
        <pt x="143" y="176" on="0"/>
        <pt x="156" y="144" on="1"/>
        <pt x="365" y="524" on="1"/>
        <pt x="347" y="545" on="0"/>
        <pt x="300" y="566" on="0"/>
        <pt x="272" y="566" on="1"/>
        <pt x="203" y="566" on="0"/>
        <pt x="130" y="439" on="0"/>
      </contour>
      <contour>
        <pt x="278" y="54" on="1"/>
        <pt x="347" y="54" on="0"/>
        <pt x="420" y="181" on="0"/>
        <pt x="420" y="306" on="1"/>
        <pt x="420" y="359" on="0"/>
        <pt x="407" y="445" on="0"/>
        <pt x="394" y="476" on="1"/>
        <pt x="185" y="96" on="1"/>
        <pt x="202" y="75" on="0"/>
        <pt x="250" y="54" on="0"/>
      </contour>
      <contour>
        <pt x="264" y="-15" on="1"/>
        <pt x="230" y="-15" on="0"/>
        <pt x="173" y="3" on="0"/>
        <pt x="149" y="19" on="1"/>
        <pt x="119" y="-36" on="1"/>
        <pt x="67" y="-8" on="1"/>
        <pt x="106" y="62" on="1"/>
        <pt x="77" y="102" on="0"/>
        <pt x="46" y="220" on="0"/>
        <pt x="46" y="296" on="1"/>
        <pt x="46" y="459" on="0"/>
        <pt x="176" y="635" on="0"/>
        <pt x="286" y="635" on="1"/>
        <pt x="320" y="635" on="0"/>
        <pt x="379" y="617" on="0"/>
        <pt x="403" y="600" on="1"/>
        <pt x="432" y="656" on="1"/>
        <pt x="485" y="628" on="1"/>
        <pt x="446" y="557" on="1"/>
        <pt x="474" y="517" on="0"/>
        <pt x="504" y="399" on="0"/>
        <pt x="504" y="324" on="1"/>
        <pt x="504" y="321" on="1"/>
        <pt x="504" y="160" on="0"/>
        <pt x="373" y="-15" on="0"/>
      </contour>
    </TTGlyph>
    <TTGlyph name="Oslashacute" xMin="46" yMin="-36" xMax="504" yMax="910">
      <contour>
        <pt x="170" y="732" on="1"/>
        <pt x="192" y="747" on="0"/>
        <pt x="244" y="790" on="0"/>
        <pt x="296" y="839" on="0"/>
        <pt x="345" y="889" on="0"/>
        <pt x="363" y="910" on="1"/>
        <pt x="428" y="847" on="1"/>
        <pt x="406" y="827" on="0"/>
        <pt x="346" y="784" on="0"/>
        <pt x="282" y="744" on="0"/>
        <pt x="218" y="708" on="0"/>
        <pt x="193" y="696" on="1"/>
      </contour>
      <contour>
        <pt x="130" y="314" on="1"/>
        <pt x="130" y="261" on="0"/>
        <pt x="143" y="176" on="0"/>
        <pt x="156" y="144" on="1"/>
        <pt x="365" y="524" on="1"/>
        <pt x="347" y="545" on="0"/>
        <pt x="300" y="566" on="0"/>
        <pt x="272" y="566" on="1"/>
        <pt x="203" y="566" on="0"/>
        <pt x="130" y="439" on="0"/>
      </contour>
      <contour>
        <pt x="278" y="54" on="1"/>
        <pt x="347" y="54" on="0"/>
        <pt x="420" y="181" on="0"/>
        <pt x="420" y="306" on="1"/>
        <pt x="420" y="359" on="0"/>
        <pt x="407" y="445" on="0"/>
        <pt x="394" y="476" on="1"/>
        <pt x="185" y="96" on="1"/>
        <pt x="202" y="75" on="0"/>
        <pt x="250" y="54" on="0"/>
      </contour>
      <contour>
        <pt x="264" y="-15" on="1"/>
        <pt x="230" y="-15" on="0"/>
        <pt x="173" y="3" on="0"/>
        <pt x="149" y="19" on="1"/>
        <pt x="119" y="-36" on="1"/>
        <pt x="67" y="-8" on="1"/>
        <pt x="106" y="62" on="1"/>
        <pt x="77" y="102" on="0"/>
        <pt x="46" y="220" on="0"/>
        <pt x="46" y="296" on="1"/>
        <pt x="46" y="459" on="0"/>
        <pt x="176" y="635" on="0"/>
        <pt x="286" y="635" on="1"/>
        <pt x="320" y="635" on="0"/>
        <pt x="379" y="617" on="0"/>
        <pt x="403" y="600" on="1"/>
        <pt x="432" y="656" on="1"/>
        <pt x="485" y="628" on="1"/>
        <pt x="446" y="557" on="1"/>
        <pt x="474" y="517" on="0"/>
        <pt x="504" y="399" on="0"/>
        <pt x="504" y="324" on="1"/>
        <pt x="504" y="321" on="1"/>
        <pt x="504" y="160" on="0"/>
        <pt x="373" y="-15" on="0"/>
      </contour>
    </TTGlyph>
    <TTGlyph name="Otilde" xMin="46" yMin="-15" xMax="504" yMax="871">
      <contour>
        <pt x="355" y="704" on="1"/>
        <pt x="331" y="704" on="0"/>
        <pt x="291" y="735" on="0"/>
        <pt x="256" y="773" on="0"/>
        <pt x="224" y="804" on="0"/>
        <pt x="208" y="804" on="1"/>
        <pt x="189" y="804" on="0"/>
        <pt x="150" y="755" on="0"/>
        <pt x="130" y="712" on="1"/>
        <pt x="85" y="732" on="1"/>
        <pt x="111" y="795" on="0"/>
        <pt x="179" y="871" on="0"/>
        <pt x="217" y="871" on="1"/>
        <pt x="241" y="871" on="0"/>
        <pt x="281" y="839" on="0"/>
        <pt x="316" y="802" on="0"/>
        <pt x="348" y="770" on="0"/>
        <pt x="364" y="770" on="1"/>
        <pt x="383" y="770" on="0"/>
        <pt x="421" y="819" on="0"/>
        <pt x="441" y="863" on="1"/>
        <pt x="487" y="843" on="1"/>
        <pt x="460" y="780" on="0"/>
        <pt x="392" y="704" on="0"/>
      </contour>
      <contour>
        <pt x="264" y="-15" on="1"/>
        <pt x="161" y="-15" on="0"/>
        <pt x="46" y="147" on="0"/>
        <pt x="46" y="296" on="1"/>
        <pt x="46" y="459" on="0"/>
        <pt x="176" y="635" on="0"/>
        <pt x="286" y="635" on="1"/>
        <pt x="390" y="635" on="0"/>
        <pt x="504" y="473" on="0"/>
        <pt x="504" y="324" on="1"/>
        <pt x="504" y="321" on="1"/>
        <pt x="504" y="160" on="0"/>
        <pt x="373" y="-15" on="0"/>
      </contour>
      <contour>
        <pt x="272" y="566" on="1"/>
        <pt x="203" y="566" on="0"/>
        <pt x="131" y="438" on="0"/>
        <pt x="131" y="314" on="1"/>
        <pt x="131" y="187" on="0"/>
        <pt x="206" y="54" on="0"/>
        <pt x="278" y="54" on="1"/>
        <pt x="347" y="54" on="0"/>
        <pt x="419" y="182" on="0"/>
        <pt x="419" y="306" on="1"/>
        <pt x="419" y="433" on="0"/>
        <pt x="343" y="566" on="0"/>
      </contour>
    </TTGlyph>
    <TTGlyph name="P" xMin="98" yMin="0" xMax="501" yMax="629">
      <contour>
        <pt x="181" y="0" on="1"/>
        <pt x="98" y="0" on="1"/>
        <pt x="98" y="619" on="1"/>
        <pt x="133" y="624" on="0"/>
        <pt x="198" y="629" on="0"/>
        <pt x="227" y="629" on="1"/>
        <pt x="363" y="629" on="0"/>
        <pt x="501" y="523" on="0"/>
        <pt x="501" y="430" on="1"/>
        <pt x="501" y="375" on="0"/>
        <pt x="455" y="293" on="0"/>
        <pt x="371" y="237" on="0"/>
        <pt x="253" y="205" on="0"/>
        <pt x="181" y="200" on="1"/>
      </contour>
      <contour>
        <pt x="228" y="272" on="1"/>
        <pt x="321" y="272" on="0"/>
        <pt x="419" y="339" on="0"/>
        <pt x="419" y="414" on="1"/>
        <pt x="419" y="482" on="0"/>
        <pt x="332" y="558" on="0"/>
        <pt x="244" y="558" on="1"/>
        <pt x="229" y="558" on="0"/>
        <pt x="197" y="556" on="0"/>
        <pt x="181" y="554" on="1"/>
        <pt x="181" y="274" on="1"/>
        <pt x="194" y="273" on="0"/>
        <pt x="217" y="272" on="0"/>
      </contour>
    </TTGlyph>
    <TTGlyph name="Q" xMin="46" yMin="-135" xMax="504" yMax="635">
      <contour>
        <pt x="447" y="-135" on="1"/>
        <pt x="221" y="-55" on="1"/>
        <pt x="235" y="-13" on="1"/>
        <pt x="145" y="-3" on="0"/>
        <pt x="46" y="158" on="0"/>
        <pt x="46" y="296" on="1"/>
        <pt x="46" y="459" on="0"/>
        <pt x="176" y="635" on="0"/>
        <pt x="286" y="635" on="1"/>
        <pt x="390" y="635" on="0"/>
        <pt x="504" y="473" on="0"/>
        <pt x="504" y="324" on="1"/>
        <pt x="504" y="321" on="1"/>
        <pt x="504" y="181" on="0"/>
        <pt x="404" y="11" on="0"/>
        <pt x="319" y="-9" on="1"/>
        <pt x="319" y="-10" on="1"/>
        <pt x="471" y="-66" on="1"/>
      </contour>
      <contour>
        <pt x="272" y="566" on="1"/>
        <pt x="202" y="566" on="0"/>
        <pt x="131" y="438" on="0"/>
        <pt x="131" y="314" on="1"/>
        <pt x="131" y="187" on="0"/>
        <pt x="205" y="54" on="0"/>
        <pt x="278" y="54" on="1"/>
        <pt x="347" y="54" on="0"/>
        <pt x="419" y="182" on="0"/>
        <pt x="419" y="306" on="1"/>
        <pt x="419" y="433" on="0"/>
        <pt x="344" y="566" on="0"/>
      </contour>
    </TTGlyph>
    <TTGlyph name="R" xMin="92" yMin="-10" xMax="517" yMax="630">
      <contour>
        <pt x="428" y="-10" on="1"/>
        <pt x="302" y="230" on="1"/>
        <pt x="175" y="226" on="1"/>
        <pt x="175" y="0" on="1"/>
        <pt x="92" y="0" on="1"/>
        <pt x="92" y="619" on="1"/>
        <pt x="130" y="625" on="0"/>
        <pt x="198" y="630" on="0"/>
        <pt x="228" y="630" on="1"/>
        <pt x="362" y="630" on="0"/>
        <pt x="473" y="530" on="0"/>
        <pt x="473" y="452" on="1"/>
        <pt x="473" y="391" on="0"/>
        <pt x="414" y="303" on="0"/>
        <pt x="369" y="271" on="1"/>
        <pt x="517" y="3" on="1"/>
      </contour>
      <contour>
        <pt x="175" y="555" on="1"/>
        <pt x="175" y="287" on="1"/>
        <pt x="310" y="291" on="1"/>
        <pt x="346" y="315" on="0"/>
        <pt x="391" y="387" on="0"/>
        <pt x="391" y="434" on="1"/>
        <pt x="391" y="491" on="0"/>
        <pt x="317" y="560" on="0"/>
        <pt x="238" y="560" on="1"/>
        <pt x="224" y="560" on="0"/>
        <pt x="192" y="557" on="0"/>
      </contour>
    </TTGlyph>
    <TTGlyph name="R_p" xMin="38" yMin="-172" xMax="528" yMax="628">
      <contour>
        <pt x="210" y="-3" on="1"/>
        <pt x="151" y="232" on="1"/>
        <pt x="105" y="229" on="1"/>
        <pt x="105" y="0" on="1"/>
        <pt x="38" y="0" on="1"/>
        <pt x="38" y="619" on="1"/>
        <pt x="59" y="623" on="0"/>
        <pt x="97" y="628" on="0"/>
        <pt x="113" y="628" on="1"/>
        <pt x="194" y="628" on="0"/>
        <pt x="259" y="531" on="0"/>
        <pt x="259" y="453" on="1"/>
        <pt x="259" y="393" on="0"/>
        <pt x="231" y="302" on="0"/>
        <pt x="206" y="272" on="1"/>
        <pt x="277" y="6" on="1"/>
      </contour>
      <contour>
        <pt x="105" y="561" on="1"/>
        <pt x="105" y="287" on="1"/>
        <pt x="160" y="289" on="1"/>
        <pt x="175" y="316" on="0"/>
        <pt x="192" y="394" on="0"/>
        <pt x="192" y="437" on="1"/>
        <pt x="192" y="499" on="0"/>
        <pt x="160" y="563" on="0"/>
        <pt x="125" y="563" on="1"/>
        <pt x="121" y="563" on="0"/>
        <pt x="110" y="562" on="0"/>
      </contour>
      <contour>
        <pt x="405" y="55" on="1"/>
        <pt x="437" y="55" on="0"/>
        <pt x="463" y="145" on="0"/>
        <pt x="463" y="245" on="1"/>
        <pt x="463" y="343" on="0"/>
        <pt x="439" y="436" on="0"/>
        <pt x="414" y="436" on="1"/>
        <pt x="403" y="436" on="0"/>
        <pt x="380" y="423" on="0"/>
        <pt x="370" y="413" on="1"/>
        <pt x="371" y="350" on="0"/>
        <pt x="372" y="183" on="0"/>
        <pt x="372" y="64" on="1"/>
        <pt x="379" y="59" on="0"/>
        <pt x="396" y="55" on="0"/>
      </contour>
      <contour>
        <pt x="372" y="-164" on="1"/>
        <pt x="306" y="-172" on="1"/>
        <pt x="306" y="-2" on="1"/>
        <pt x="306" y="173" on="0"/>
        <pt x="304" y="410" on="0"/>
        <pt x="302" y="486" on="1"/>
        <pt x="364" y="491" on="1"/>
        <pt x="366" y="457" on="1"/>
        <pt x="379" y="474" on="0"/>
        <pt x="419" y="501" on="0"/>
        <pt x="442" y="501" on="1"/>
        <pt x="487" y="501" on="0"/>
        <pt x="528" y="378" on="0"/>
        <pt x="528" y="271" on="1"/>
        <pt x="528" y="124" on="0"/>
        <pt x="459" y="-12" on="0"/>
        <pt x="396" y="-12" on="1"/>
        <pt x="390" y="-12" on="0"/>
        <pt x="378" y="-10" on="0"/>
        <pt x="372" y="-9" on="1"/>
      </contour>
    </TTGlyph>
    <TTGlyph name="Racute" xMin="92" yMin="-10" xMax="517" yMax="910">
      <contour>
        <pt x="159" y="732" on="1"/>
        <pt x="181" y="747" on="0"/>
        <pt x="233" y="790" on="0"/>
        <pt x="285" y="839" on="0"/>
        <pt x="334" y="889" on="0"/>
        <pt x="352" y="910" on="1"/>
        <pt x="417" y="847" on="1"/>
        <pt x="395" y="827" on="0"/>
        <pt x="335" y="784" on="0"/>
        <pt x="271" y="744" on="0"/>
        <pt x="207" y="708" on="0"/>
        <pt x="182" y="696" on="1"/>
      </contour>
      <contour>
        <pt x="428" y="-10" on="1"/>
        <pt x="302" y="230" on="1"/>
        <pt x="175" y="226" on="1"/>
        <pt x="175" y="0" on="1"/>
        <pt x="92" y="0" on="1"/>
        <pt x="92" y="619" on="1"/>
        <pt x="130" y="625" on="0"/>
        <pt x="198" y="630" on="0"/>
        <pt x="228" y="630" on="1"/>
        <pt x="362" y="630" on="0"/>
        <pt x="473" y="530" on="0"/>
        <pt x="473" y="452" on="1"/>
        <pt x="473" y="391" on="0"/>
        <pt x="414" y="303" on="0"/>
        <pt x="369" y="271" on="1"/>
        <pt x="517" y="3" on="1"/>
      </contour>
      <contour>
        <pt x="175" y="555" on="1"/>
        <pt x="175" y="287" on="1"/>
        <pt x="310" y="291" on="1"/>
        <pt x="346" y="315" on="0"/>
        <pt x="391" y="387" on="0"/>
        <pt x="391" y="434" on="1"/>
        <pt x="391" y="491" on="0"/>
        <pt x="317" y="560" on="0"/>
        <pt x="238" y="560" on="1"/>
        <pt x="224" y="560" on="0"/>
        <pt x="192" y="557" on="0"/>
      </contour>
    </TTGlyph>
    <TTGlyph name="Rcaron" xMin="92" yMin="-10" xMax="517" yMax="885">
      <contour>
        <pt x="272" y="693" on="1"/>
        <pt x="268" y="693" on="1"/>
        <pt x="92" y="836" on="1"/>
        <pt x="143" y="885" on="1"/>
        <pt x="276" y="772" on="1"/>
        <pt x="407" y="884" on="1"/>
        <pt x="448" y="844" on="1"/>
      </contour>
      <contour>
        <pt x="428" y="-10" on="1"/>
        <pt x="302" y="230" on="1"/>
        <pt x="175" y="226" on="1"/>
        <pt x="175" y="0" on="1"/>
        <pt x="92" y="0" on="1"/>
        <pt x="92" y="619" on="1"/>
        <pt x="130" y="625" on="0"/>
        <pt x="198" y="630" on="0"/>
        <pt x="228" y="630" on="1"/>
        <pt x="362" y="630" on="0"/>
        <pt x="473" y="530" on="0"/>
        <pt x="473" y="452" on="1"/>
        <pt x="473" y="391" on="0"/>
        <pt x="414" y="303" on="0"/>
        <pt x="369" y="271" on="1"/>
        <pt x="517" y="3" on="1"/>
      </contour>
      <contour>
        <pt x="175" y="555" on="1"/>
        <pt x="175" y="287" on="1"/>
        <pt x="310" y="291" on="1"/>
        <pt x="346" y="315" on="0"/>
        <pt x="391" y="387" on="0"/>
        <pt x="391" y="434" on="1"/>
        <pt x="391" y="491" on="0"/>
        <pt x="317" y="560" on="0"/>
        <pt x="238" y="560" on="1"/>
        <pt x="224" y="560" on="0"/>
        <pt x="192" y="557" on="0"/>
      </contour>
    </TTGlyph>
    <TTGlyph name="Rcommaaccent" xMin="92" yMin="-287" xMax="517" yMax="630">
      <contour>
        <pt x="428" y="-10" on="1"/>
        <pt x="302" y="230" on="1"/>
        <pt x="175" y="226" on="1"/>
        <pt x="175" y="0" on="1"/>
        <pt x="92" y="0" on="1"/>
        <pt x="92" y="619" on="1"/>
        <pt x="130" y="625" on="0"/>
        <pt x="198" y="630" on="0"/>
        <pt x="228" y="630" on="1"/>
        <pt x="362" y="630" on="0"/>
        <pt x="473" y="530" on="0"/>
        <pt x="473" y="452" on="1"/>
        <pt x="473" y="391" on="0"/>
        <pt x="414" y="303" on="0"/>
        <pt x="369" y="271" on="1"/>
        <pt x="517" y="3" on="1"/>
      </contour>
      <contour>
        <pt x="175" y="555" on="1"/>
        <pt x="175" y="287" on="1"/>
        <pt x="310" y="291" on="1"/>
        <pt x="346" y="315" on="0"/>
        <pt x="391" y="387" on="0"/>
        <pt x="391" y="434" on="1"/>
        <pt x="391" y="491" on="0"/>
        <pt x="317" y="560" on="0"/>
        <pt x="238" y="560" on="1"/>
        <pt x="224" y="560" on="0"/>
        <pt x="192" y="557" on="0"/>
      </contour>
      <contour>
        <pt x="240" y="-274" on="1"/>
        <pt x="253" y="-248" on="0"/>
        <pt x="264" y="-197" on="0"/>
        <pt x="264" y="-173" on="1"/>
        <pt x="264" y="-149" on="0"/>
        <pt x="254" y="-104" on="0"/>
        <pt x="246" y="-82" on="1"/>
        <pt x="248" y="-82" on="0"/>
        <pt x="278" y="-80" on="0"/>
        <pt x="314" y="-79" on="0"/>
        <pt x="344" y="-77" on="0"/>
        <pt x="346" y="-77" on="1"/>
        <pt x="347" y="-85" on="0"/>
        <pt x="348" y="-101" on="0"/>
        <pt x="348" y="-109" on="1"/>
        <pt x="348" y="-153" on="0"/>
        <pt x="315" y="-247" on="0"/>
        <pt x="281" y="-287" on="1"/>
      </contour>
    </TTGlyph>
    <TTGlyph name="S" xMin="85" yMin="-8" xMax="479" yMax="626">
      <contour>
        <pt x="86" y="71" on="1"/>
        <pt x="111" y="69" on="0"/>
        <pt x="156" y="67" on="0"/>
        <pt x="175" y="67" on="1"/>
        <pt x="294" y="67" on="0"/>
        <pt x="394" y="125" on="0"/>
        <pt x="394" y="162" on="1"/>
        <pt x="394" y="205" on="0"/>
        <pt x="297" y="268" on="0"/>
        <pt x="182" y="330" on="0"/>
        <pt x="85" y="405" on="0"/>
        <pt x="85" y="459" on="1"/>
        <pt x="85" y="490" on="0"/>
        <pt x="119" y="550" on="0"/>
        <pt x="192" y="597" on="0"/>
        <pt x="308" y="626" on="0"/>
        <pt x="389" y="626" on="1"/>
        <pt x="401" y="626" on="0"/>
        <pt x="426" y="626" on="0"/>
        <pt x="439" y="625" on="1"/>
        <pt x="444" y="548" on="1"/>
        <pt x="421" y="549" on="0"/>
        <pt x="379" y="551" on="0"/>
        <pt x="360" y="551" on="1"/>
        <pt x="250" y="551" on="0"/>
        <pt x="170" y="505" on="0"/>
        <pt x="170" y="472" on="1"/>
        <pt x="170" y="432" on="0"/>
        <pt x="267" y="370" on="0"/>
        <pt x="382" y="307" on="0"/>
        <pt x="479" y="229" on="0"/>
        <pt x="479" y="174" on="1"/>
        <pt x="479" y="141" on="0"/>
        <pt x="442" y="76" on="0"/>
        <pt x="363" y="24" on="0"/>
        <pt x="234" y="-8" on="0"/>
        <pt x="143" y="-8" on="1"/>
        <pt x="130" y="-8" on="0"/>
        <pt x="100" y="-7" on="0"/>
        <pt x="85" y="-6" on="1"/>
      </contour>
    </TTGlyph>
    <TTGlyph name="Sacute" xMin="85" yMin="-8" xMax="479" yMax="906">
      <contour>
        <pt x="188" y="728" on="1"/>
        <pt x="210" y="743" on="0"/>
        <pt x="262" y="786" on="0"/>
        <pt x="314" y="835" on="0"/>
        <pt x="363" y="885" on="0"/>
        <pt x="381" y="906" on="1"/>
        <pt x="446" y="843" on="1"/>
        <pt x="424" y="823" on="0"/>
        <pt x="364" y="780" on="0"/>
        <pt x="300" y="740" on="0"/>
        <pt x="236" y="704" on="0"/>
        <pt x="211" y="692" on="1"/>
      </contour>
      <contour>
        <pt x="86" y="71" on="1"/>
        <pt x="111" y="69" on="0"/>
        <pt x="156" y="67" on="0"/>
        <pt x="175" y="67" on="1"/>
        <pt x="294" y="67" on="0"/>
        <pt x="394" y="125" on="0"/>
        <pt x="394" y="162" on="1"/>
        <pt x="394" y="205" on="0"/>
        <pt x="297" y="268" on="0"/>
        <pt x="182" y="330" on="0"/>
        <pt x="85" y="405" on="0"/>
        <pt x="85" y="459" on="1"/>
        <pt x="85" y="490" on="0"/>
        <pt x="119" y="550" on="0"/>
        <pt x="192" y="597" on="0"/>
        <pt x="308" y="626" on="0"/>
        <pt x="389" y="626" on="1"/>
        <pt x="401" y="626" on="0"/>
        <pt x="426" y="626" on="0"/>
        <pt x="439" y="625" on="1"/>
        <pt x="444" y="548" on="1"/>
        <pt x="421" y="549" on="0"/>
        <pt x="379" y="551" on="0"/>
        <pt x="360" y="551" on="1"/>
        <pt x="250" y="551" on="0"/>
        <pt x="170" y="505" on="0"/>
        <pt x="170" y="472" on="1"/>
        <pt x="170" y="432" on="0"/>
        <pt x="267" y="370" on="0"/>
        <pt x="382" y="307" on="0"/>
        <pt x="479" y="229" on="0"/>
        <pt x="479" y="174" on="1"/>
        <pt x="479" y="141" on="0"/>
        <pt x="442" y="76" on="0"/>
        <pt x="363" y="24" on="0"/>
        <pt x="234" y="-8" on="0"/>
        <pt x="143" y="-8" on="1"/>
        <pt x="130" y="-8" on="0"/>
        <pt x="100" y="-7" on="0"/>
        <pt x="85" y="-6" on="1"/>
      </contour>
    </TTGlyph>
    <TTGlyph name="Scaron" xMin="85" yMin="-8" xMax="479" yMax="881">
      <contour>
        <pt x="301" y="689" on="1"/>
        <pt x="297" y="689" on="1"/>
        <pt x="121" y="832" on="1"/>
        <pt x="172" y="881" on="1"/>
        <pt x="305" y="768" on="1"/>
        <pt x="436" y="880" on="1"/>
        <pt x="477" y="840" on="1"/>
      </contour>
      <contour>
        <pt x="86" y="71" on="1"/>
        <pt x="111" y="69" on="0"/>
        <pt x="156" y="67" on="0"/>
        <pt x="175" y="67" on="1"/>
        <pt x="294" y="67" on="0"/>
        <pt x="394" y="125" on="0"/>
        <pt x="394" y="162" on="1"/>
        <pt x="394" y="205" on="0"/>
        <pt x="297" y="268" on="0"/>
        <pt x="182" y="330" on="0"/>
        <pt x="85" y="405" on="0"/>
        <pt x="85" y="459" on="1"/>
        <pt x="85" y="490" on="0"/>
        <pt x="119" y="550" on="0"/>
        <pt x="192" y="597" on="0"/>
        <pt x="308" y="626" on="0"/>
        <pt x="389" y="626" on="1"/>
        <pt x="401" y="626" on="0"/>
        <pt x="426" y="626" on="0"/>
        <pt x="439" y="625" on="1"/>
        <pt x="444" y="548" on="1"/>
        <pt x="421" y="549" on="0"/>
        <pt x="379" y="551" on="0"/>
        <pt x="360" y="551" on="1"/>
        <pt x="250" y="551" on="0"/>
        <pt x="170" y="505" on="0"/>
        <pt x="170" y="472" on="1"/>
        <pt x="170" y="432" on="0"/>
        <pt x="267" y="370" on="0"/>
        <pt x="382" y="307" on="0"/>
        <pt x="479" y="229" on="0"/>
        <pt x="479" y="174" on="1"/>
        <pt x="479" y="141" on="0"/>
        <pt x="442" y="76" on="0"/>
        <pt x="363" y="24" on="0"/>
        <pt x="234" y="-8" on="0"/>
        <pt x="143" y="-8" on="1"/>
        <pt x="130" y="-8" on="0"/>
        <pt x="100" y="-7" on="0"/>
        <pt x="85" y="-6" on="1"/>
      </contour>
    </TTGlyph>
    <TTGlyph name="Scedilla" xMin="85" yMin="-225" xMax="479" yMax="626">
      <contour>
        <pt x="177" y="-225" on="1"/>
        <pt x="171" y="-161" on="1"/>
        <pt x="233" y="-152" on="0"/>
        <pt x="288" y="-129" on="0"/>
        <pt x="288" y="-113" on="1"/>
        <pt x="288" y="-97" on="0"/>
        <pt x="243" y="-52" on="0"/>
        <pt x="194" y="-23" on="1"/>
        <pt x="203" y="-6" on="1"/>
        <pt x="189" y="-7" on="0"/>
        <pt x="159" y="-8" on="0"/>
        <pt x="143" y="-8" on="1"/>
        <pt x="130" y="-8" on="0"/>
        <pt x="100" y="-7" on="0"/>
        <pt x="85" y="-6" on="1"/>
        <pt x="86" y="71" on="1"/>
        <pt x="111" y="69" on="0"/>
        <pt x="156" y="67" on="0"/>
        <pt x="175" y="67" on="1"/>
        <pt x="294" y="67" on="0"/>
        <pt x="394" y="125" on="0"/>
        <pt x="394" y="162" on="1"/>
        <pt x="394" y="205" on="0"/>
        <pt x="297" y="268" on="0"/>
        <pt x="182" y="330" on="0"/>
        <pt x="85" y="405" on="0"/>
        <pt x="85" y="459" on="1"/>
        <pt x="85" y="490" on="0"/>
        <pt x="119" y="550" on="0"/>
        <pt x="192" y="597" on="0"/>
        <pt x="308" y="626" on="0"/>
        <pt x="389" y="626" on="1"/>
        <pt x="401" y="626" on="0"/>
        <pt x="426" y="626" on="0"/>
        <pt x="439" y="625" on="1"/>
        <pt x="444" y="548" on="1"/>
        <pt x="421" y="549" on="0"/>
        <pt x="379" y="551" on="0"/>
        <pt x="360" y="551" on="1"/>
        <pt x="250" y="551" on="0"/>
        <pt x="170" y="505" on="0"/>
        <pt x="170" y="472" on="1"/>
        <pt x="170" y="432" on="0"/>
        <pt x="267" y="370" on="0"/>
        <pt x="382" y="307" on="0"/>
        <pt x="479" y="229" on="0"/>
        <pt x="479" y="174" on="1"/>
        <pt x="479" y="147" on="0"/>
        <pt x="454" y="92" on="0"/>
        <pt x="400" y="45" on="0"/>
        <pt x="313" y="8" on="0"/>
        <pt x="253" y="-1" on="1"/>
        <pt x="309" y="-33" on="0"/>
        <pt x="360" y="-94" on="0"/>
        <pt x="360" y="-121" on="1"/>
        <pt x="360" y="-158" on="0"/>
        <pt x="268" y="-214" on="0"/>
      </contour>
    </TTGlyph>
    <TTGlyph name="Scommaaccent" xMin="85" yMin="-288" xMax="479" yMax="626">
      <contour>
        <pt x="86" y="71" on="1"/>
        <pt x="111" y="69" on="0"/>
        <pt x="156" y="67" on="0"/>
        <pt x="175" y="67" on="1"/>
        <pt x="294" y="67" on="0"/>
        <pt x="394" y="125" on="0"/>
        <pt x="394" y="162" on="1"/>
        <pt x="394" y="205" on="0"/>
        <pt x="297" y="268" on="0"/>
        <pt x="182" y="330" on="0"/>
        <pt x="85" y="405" on="0"/>
        <pt x="85" y="459" on="1"/>
        <pt x="85" y="490" on="0"/>
        <pt x="119" y="550" on="0"/>
        <pt x="192" y="597" on="0"/>
        <pt x="308" y="626" on="0"/>
        <pt x="389" y="626" on="1"/>
        <pt x="401" y="626" on="0"/>
        <pt x="426" y="626" on="0"/>
        <pt x="439" y="625" on="1"/>
        <pt x="444" y="548" on="1"/>
        <pt x="421" y="549" on="0"/>
        <pt x="379" y="551" on="0"/>
        <pt x="360" y="551" on="1"/>
        <pt x="250" y="551" on="0"/>
        <pt x="170" y="505" on="0"/>
        <pt x="170" y="472" on="1"/>
        <pt x="170" y="432" on="0"/>
        <pt x="267" y="370" on="0"/>
        <pt x="382" y="307" on="0"/>
        <pt x="479" y="229" on="0"/>
        <pt x="479" y="174" on="1"/>
        <pt x="479" y="141" on="0"/>
        <pt x="442" y="76" on="0"/>
        <pt x="363" y="24" on="0"/>
        <pt x="234" y="-8" on="0"/>
        <pt x="143" y="-8" on="1"/>
        <pt x="130" y="-8" on="0"/>
        <pt x="100" y="-7" on="0"/>
        <pt x="85" y="-6" on="1"/>
      </contour>
      <contour>
        <pt x="214" y="-275" on="1"/>
        <pt x="227" y="-249" on="0"/>
        <pt x="238" y="-198" on="0"/>
        <pt x="238" y="-174" on="1"/>
        <pt x="238" y="-150" on="0"/>
        <pt x="228" y="-105" on="0"/>
        <pt x="220" y="-83" on="1"/>
        <pt x="222" y="-83" on="0"/>
        <pt x="252" y="-81" on="0"/>
        <pt x="288" y="-80" on="0"/>
        <pt x="318" y="-78" on="0"/>
        <pt x="320" y="-78" on="1"/>
        <pt x="321" y="-86" on="0"/>
        <pt x="322" y="-102" on="0"/>
        <pt x="322" y="-110" on="1"/>
        <pt x="322" y="-154" on="0"/>
        <pt x="289" y="-248" on="0"/>
        <pt x="255" y="-288" on="1"/>
      </contour>
    </TTGlyph>
    <TTGlyph name="T" xMin="39" yMin="0" xMax="509" yMax="620">
      <contour>
        <pt x="318" y="549" on="1"/>
        <pt x="318" y="0" on="1"/>
        <pt x="234" y="0" on="1"/>
        <pt x="234" y="549" on="1"/>
        <pt x="39" y="549" on="1"/>
        <pt x="46" y="620" on="1"/>
        <pt x="509" y="620" on="1"/>
        <pt x="509" y="549" on="1"/>
      </contour>
    </TTGlyph>
    <TTGlyph name="Tcaron" xMin="39" yMin="0" xMax="509" yMax="877">
      <contour>
        <pt x="280" y="685" on="1"/>
        <pt x="276" y="685" on="1"/>
        <pt x="100" y="828" on="1"/>
        <pt x="151" y="877" on="1"/>
        <pt x="284" y="764" on="1"/>
        <pt x="415" y="876" on="1"/>
        <pt x="456" y="836" on="1"/>
      </contour>
      <contour>
        <pt x="318" y="549" on="1"/>
        <pt x="318" y="0" on="1"/>
        <pt x="234" y="0" on="1"/>
        <pt x="234" y="549" on="1"/>
        <pt x="39" y="549" on="1"/>
        <pt x="46" y="620" on="1"/>
        <pt x="509" y="620" on="1"/>
        <pt x="509" y="549" on="1"/>
      </contour>
    </TTGlyph>
    <TTGlyph name="Tcommaaccent" xMin="39" yMin="-277" xMax="509" yMax="620">
      <contour>
        <pt x="318" y="549" on="1"/>
        <pt x="318" y="0" on="1"/>
        <pt x="234" y="0" on="1"/>
        <pt x="234" y="549" on="1"/>
        <pt x="39" y="549" on="1"/>
        <pt x="46" y="620" on="1"/>
        <pt x="509" y="620" on="1"/>
        <pt x="509" y="549" on="1"/>
      </contour>
      <contour>
        <pt x="214" y="-264" on="1"/>
        <pt x="227" y="-238" on="0"/>
        <pt x="238" y="-187" on="0"/>
        <pt x="238" y="-163" on="1"/>
        <pt x="238" y="-139" on="0"/>
        <pt x="228" y="-94" on="0"/>
        <pt x="220" y="-72" on="1"/>
        <pt x="222" y="-72" on="0"/>
        <pt x="252" y="-70" on="0"/>
        <pt x="288" y="-69" on="0"/>
        <pt x="318" y="-67" on="0"/>
        <pt x="320" y="-67" on="1"/>
        <pt x="321" y="-75" on="0"/>
        <pt x="322" y="-91" on="0"/>
        <pt x="322" y="-99" on="1"/>
        <pt x="322" y="-143" on="0"/>
        <pt x="289" y="-237" on="0"/>
        <pt x="255" y="-277" on="1"/>
      </contour>
    </TTGlyph>
    <TTGlyph name="Thorn" xMin="99" yMin="0" xMax="504" yMax="620">
      <contour>
        <pt x="182" y="0" on="1"/>
        <pt x="99" y="0" on="1"/>
        <pt x="99" y="620" on="1"/>
        <pt x="182" y="620" on="1"/>
        <pt x="182" y="522" on="1"/>
        <pt x="196" y="523" on="0"/>
        <pt x="225" y="524" on="0"/>
        <pt x="238" y="524" on="1"/>
        <pt x="368" y="524" on="0"/>
        <pt x="504" y="421" on="0"/>
        <pt x="504" y="330" on="1"/>
        <pt x="504" y="276" on="0"/>
        <pt x="457" y="195" on="0"/>
        <pt x="373" y="140" on="0"/>
        <pt x="254" y="109" on="0"/>
        <pt x="182" y="104" on="1"/>
      </contour>
      <contour>
        <pt x="224" y="176" on="1"/>
        <pt x="319" y="176" on="0"/>
        <pt x="422" y="241" on="0"/>
        <pt x="422" y="314" on="1"/>
        <pt x="422" y="380" on="0"/>
        <pt x="330" y="454" on="0"/>
        <pt x="242" y="454" on="1"/>
        <pt x="228" y="454" on="0"/>
        <pt x="198" y="452" on="0"/>
        <pt x="182" y="450" on="1"/>
        <pt x="182" y="177" on="1"/>
        <pt x="193" y="177" on="0"/>
        <pt x="214" y="176" on="0"/>
      </contour>
    </TTGlyph>
    <TTGlyph name="U" xMin="75" yMin="-15" xMax="474" yMax="620">
      <contour>
        <pt x="270" y="-15" on="1"/>
        <pt x="179" y="-15" on="0"/>
        <pt x="75" y="96" on="0"/>
        <pt x="75" y="200" on="1"/>
        <pt x="75" y="620" on="1"/>
        <pt x="159" y="620" on="1"/>
        <pt x="159" y="206" on="1"/>
        <pt x="159" y="130" on="0"/>
        <pt x="223" y="57" on="0"/>
        <pt x="278" y="57" on="1"/>
        <pt x="335" y="57" on="0"/>
        <pt x="391" y="121" on="0"/>
        <pt x="391" y="191" on="1"/>
        <pt x="391" y="620" on="1"/>
        <pt x="474" y="620" on="1"/>
        <pt x="474" y="204" on="1"/>
        <pt x="474" y="100" on="0"/>
        <pt x="365" y="-15" on="0"/>
      </contour>
    </TTGlyph>
    <TTGlyph name="Uacute" xMin="75" yMin="-15" xMax="474" yMax="902">
      <contour>
        <pt x="170" y="724" on="1"/>
        <pt x="192" y="739" on="0"/>
        <pt x="244" y="782" on="0"/>
        <pt x="296" y="831" on="0"/>
        <pt x="345" y="881" on="0"/>
        <pt x="363" y="902" on="1"/>
        <pt x="428" y="839" on="1"/>
        <pt x="406" y="819" on="0"/>
        <pt x="346" y="776" on="0"/>
        <pt x="282" y="736" on="0"/>
        <pt x="218" y="700" on="0"/>
        <pt x="193" y="688" on="1"/>
      </contour>
      <contour>
        <pt x="270" y="-15" on="1"/>
        <pt x="179" y="-15" on="0"/>
        <pt x="75" y="96" on="0"/>
        <pt x="75" y="200" on="1"/>
        <pt x="75" y="620" on="1"/>
        <pt x="159" y="620" on="1"/>
        <pt x="159" y="206" on="1"/>
        <pt x="159" y="130" on="0"/>
        <pt x="223" y="57" on="0"/>
        <pt x="278" y="57" on="1"/>
        <pt x="335" y="57" on="0"/>
        <pt x="391" y="121" on="0"/>
        <pt x="391" y="191" on="1"/>
        <pt x="391" y="620" on="1"/>
        <pt x="474" y="620" on="1"/>
        <pt x="474" y="204" on="1"/>
        <pt x="474" y="100" on="0"/>
        <pt x="365" y="-15" on="0"/>
      </contour>
    </TTGlyph>
    <TTGlyph name="Ubreve" xMin="75" yMin="-15" xMax="474" yMax="872">
      <contour>
        <pt x="274" y="695" on="1"/>
        <pt x="222" y="695" on="0"/>
        <pt x="129" y="767" on="0"/>
        <pt x="89" y="839" on="1"/>
        <pt x="146" y="872" on="1"/>
        <pt x="183" y="812" on="0"/>
        <pt x="244" y="761" on="0"/>
        <pt x="281" y="761" on="1"/>
        <pt x="320" y="761" on="0"/>
        <pt x="384" y="816" on="0"/>
        <pt x="419" y="868" on="1"/>
        <pt x="467" y="843" on="1"/>
        <pt x="425" y="774" on="0"/>
        <pt x="327" y="695" on="0"/>
      </contour>
      <contour>
        <pt x="270" y="-15" on="1"/>
        <pt x="179" y="-15" on="0"/>
        <pt x="75" y="96" on="0"/>
        <pt x="75" y="200" on="1"/>
        <pt x="75" y="620" on="1"/>
        <pt x="159" y="620" on="1"/>
        <pt x="159" y="206" on="1"/>
        <pt x="159" y="130" on="0"/>
        <pt x="223" y="57" on="0"/>
        <pt x="278" y="57" on="1"/>
        <pt x="335" y="57" on="0"/>
        <pt x="391" y="121" on="0"/>
        <pt x="391" y="191" on="1"/>
        <pt x="391" y="620" on="1"/>
        <pt x="474" y="620" on="1"/>
        <pt x="474" y="204" on="1"/>
        <pt x="474" y="100" on="0"/>
        <pt x="365" y="-15" on="0"/>
      </contour>
    </TTGlyph>
    <TTGlyph name="Ucircumflex" xMin="75" yMin="-15" xMax="474" yMax="883">
      <contour>
        <pt x="402" y="690" on="1"/>
        <pt x="269" y="804" on="1"/>
        <pt x="137" y="691" on="1"/>
        <pt x="97" y="730" on="1"/>
        <pt x="273" y="883" on="1"/>
        <pt x="277" y="883" on="1"/>
        <pt x="453" y="739" on="1"/>
      </contour>
      <contour>
        <pt x="270" y="-15" on="1"/>
        <pt x="179" y="-15" on="0"/>
        <pt x="75" y="96" on="0"/>
        <pt x="75" y="200" on="1"/>
        <pt x="75" y="620" on="1"/>
        <pt x="159" y="620" on="1"/>
        <pt x="159" y="206" on="1"/>
        <pt x="159" y="130" on="0"/>
        <pt x="223" y="57" on="0"/>
        <pt x="278" y="57" on="1"/>
        <pt x="335" y="57" on="0"/>
        <pt x="391" y="121" on="0"/>
        <pt x="391" y="191" on="1"/>
        <pt x="391" y="620" on="1"/>
        <pt x="474" y="620" on="1"/>
        <pt x="474" y="204" on="1"/>
        <pt x="474" y="100" on="0"/>
        <pt x="365" y="-15" on="0"/>
      </contour>
    </TTGlyph>
    <TTGlyph name="Udieresis" xMin="75" yMin="-15" xMax="474" yMax="835">
      <contour>
        <pt x="427" y="699" on="1"/>
        <pt x="345" y="699" on="1"/>
        <pt x="346" y="835" on="1"/>
        <pt x="429" y="835" on="1"/>
      </contour>
      <contour>
        <pt x="207" y="699" on="1"/>
        <pt x="125" y="699" on="1"/>
        <pt x="126" y="835" on="1"/>
        <pt x="209" y="835" on="1"/>
      </contour>
      <contour>
        <pt x="270" y="-15" on="1"/>
        <pt x="179" y="-15" on="0"/>
        <pt x="75" y="96" on="0"/>
        <pt x="75" y="200" on="1"/>
        <pt x="75" y="620" on="1"/>
        <pt x="159" y="620" on="1"/>
        <pt x="159" y="206" on="1"/>
        <pt x="159" y="130" on="0"/>
        <pt x="223" y="57" on="0"/>
        <pt x="278" y="57" on="1"/>
        <pt x="335" y="57" on="0"/>
        <pt x="391" y="121" on="0"/>
        <pt x="391" y="191" on="1"/>
        <pt x="391" y="620" on="1"/>
        <pt x="474" y="620" on="1"/>
        <pt x="474" y="204" on="1"/>
        <pt x="474" y="100" on="0"/>
        <pt x="365" y="-15" on="0"/>
      </contour>
    </TTGlyph>
    <TTGlyph name="Ugrave" xMin="75" yMin="-15" xMax="474" yMax="898">
      <contour>
        <pt x="376" y="718" on="1"/>
        <pt x="352" y="682" on="1"/>
        <pt x="327" y="695" on="0"/>
        <pt x="265" y="731" on="0"/>
        <pt x="202" y="771" on="0"/>
        <pt x="142" y="813" on="0"/>
        <pt x="119" y="831" on="1"/>
        <pt x="179" y="898" on="1"/>
        <pt x="198" y="878" on="0"/>
        <pt x="249" y="828" on="0"/>
        <pt x="303" y="779" on="0"/>
        <pt x="355" y="734" on="0"/>
      </contour>
      <contour>
        <pt x="270" y="-15" on="1"/>
        <pt x="179" y="-15" on="0"/>
        <pt x="75" y="96" on="0"/>
        <pt x="75" y="200" on="1"/>
        <pt x="75" y="620" on="1"/>
        <pt x="159" y="620" on="1"/>
        <pt x="159" y="206" on="1"/>
        <pt x="159" y="130" on="0"/>
        <pt x="223" y="57" on="0"/>
        <pt x="278" y="57" on="1"/>
        <pt x="335" y="57" on="0"/>
        <pt x="391" y="121" on="0"/>
        <pt x="391" y="191" on="1"/>
        <pt x="391" y="620" on="1"/>
        <pt x="474" y="620" on="1"/>
        <pt x="474" y="204" on="1"/>
        <pt x="474" y="100" on="0"/>
        <pt x="365" y="-15" on="0"/>
      </contour>
    </TTGlyph>
    <TTGlyph name="Uhungarumlaut" xMin="75" yMin="-15" xMax="522" yMax="915">
      <contour>
        <pt x="126" y="716" on="1"/>
        <pt x="140" y="737" on="0"/>
        <pt x="171" y="788" on="0"/>
        <pt x="199" y="841" on="0"/>
        <pt x="223" y="893" on="0"/>
        <pt x="232" y="915" on="1"/>
        <pt x="313" y="876" on="1"/>
        <pt x="288" y="834" on="0"/>
        <pt x="204" y="729" on="0"/>
        <pt x="165" y="690" on="1"/>
      </contour>
      <contour>
        <pt x="334" y="714" on="1"/>
        <pt x="362" y="756" on="0"/>
        <pt x="421" y="866" on="0"/>
        <pt x="438" y="910" on="1"/>
        <pt x="522" y="875" on="1"/>
        <pt x="496" y="833" on="0"/>
        <pt x="413" y="729" on="0"/>
        <pt x="373" y="690" on="1"/>
      </contour>
      <contour>
        <pt x="270" y="-15" on="1"/>
        <pt x="179" y="-15" on="0"/>
        <pt x="75" y="96" on="0"/>
        <pt x="75" y="200" on="1"/>
        <pt x="75" y="620" on="1"/>
        <pt x="159" y="620" on="1"/>
        <pt x="159" y="206" on="1"/>
        <pt x="159" y="130" on="0"/>
        <pt x="223" y="57" on="0"/>
        <pt x="278" y="57" on="1"/>
        <pt x="335" y="57" on="0"/>
        <pt x="391" y="121" on="0"/>
        <pt x="391" y="191" on="1"/>
        <pt x="391" y="620" on="1"/>
        <pt x="474" y="620" on="1"/>
        <pt x="474" y="204" on="1"/>
        <pt x="474" y="100" on="0"/>
        <pt x="365" y="-15" on="0"/>
      </contour>
    </TTGlyph>
    <TTGlyph name="Umacron" xMin="75" yMin="-15" xMax="474" yMax="804">
      <contour>
        <pt x="442" y="804" on="1"/>
        <pt x="442" y="734" on="1"/>
        <pt x="108" y="734" on="1"/>
        <pt x="108" y="804" on="1"/>
      </contour>
      <contour>
        <pt x="270" y="-15" on="1"/>
        <pt x="179" y="-15" on="0"/>
        <pt x="75" y="96" on="0"/>
        <pt x="75" y="200" on="1"/>
        <pt x="75" y="620" on="1"/>
        <pt x="159" y="620" on="1"/>
        <pt x="159" y="206" on="1"/>
        <pt x="159" y="130" on="0"/>
        <pt x="223" y="57" on="0"/>
        <pt x="278" y="57" on="1"/>
        <pt x="335" y="57" on="0"/>
        <pt x="391" y="121" on="0"/>
        <pt x="391" y="191" on="1"/>
        <pt x="391" y="620" on="1"/>
        <pt x="474" y="620" on="1"/>
        <pt x="474" y="204" on="1"/>
        <pt x="474" y="100" on="0"/>
        <pt x="365" y="-15" on="0"/>
      </contour>
    </TTGlyph>
    <TTGlyph name="Uogonek" xMin="75" yMin="-216" xMax="474" yMax="620">
      <contour>
        <pt x="366" y="-216" on="1"/>
        <pt x="265" y="-208" on="0"/>
        <pt x="181" y="-159" on="0"/>
        <pt x="181" y="-122" on="1"/>
        <pt x="181" y="-96" on="0"/>
        <pt x="218" y="-45" on="0"/>
        <pt x="265" y="-16" on="1"/>
        <pt x="174" y="-12" on="0"/>
        <pt x="75" y="100" on="0"/>
        <pt x="75" y="200" on="1"/>
        <pt x="75" y="620" on="1"/>
        <pt x="159" y="620" on="1"/>
        <pt x="159" y="206" on="1"/>
        <pt x="159" y="130" on="0"/>
        <pt x="223" y="57" on="0"/>
        <pt x="278" y="57" on="1"/>
        <pt x="335" y="57" on="0"/>
        <pt x="391" y="121" on="0"/>
        <pt x="391" y="191" on="1"/>
        <pt x="391" y="620" on="1"/>
        <pt x="474" y="620" on="1"/>
        <pt x="474" y="204" on="1"/>
        <pt x="474" y="134" on="0"/>
        <pt x="427" y="43" on="0"/>
        <pt x="374" y="9" on="1"/>
        <pt x="310" y="-33" on="0"/>
        <pt x="256" y="-80" on="0"/>
        <pt x="256" y="-100" on="1"/>
        <pt x="256" y="-119" on="0"/>
        <pt x="310" y="-144" on="0"/>
        <pt x="373" y="-150" on="1"/>
      </contour>
    </TTGlyph>
    <TTGlyph name="Uring" xMin="75" yMin="-15" xMax="474" yMax="890">
      <contour>
        <pt x="274" y="890" on="1"/>
        <pt x="332" y="890" on="0"/>
        <pt x="406" y="828" on="0"/>
        <pt x="406" y="786" on="1"/>
        <pt x="406" y="740" on="0"/>
        <pt x="334" y="678" on="0"/>
        <pt x="274" y="678" on="1"/>
        <pt x="217" y="678" on="0"/>
        <pt x="143" y="739" on="0"/>
        <pt x="143" y="782" on="1"/>
        <pt x="143" y="828" on="0"/>
        <pt x="214" y="890" on="0"/>
      </contour>
      <contour>
        <pt x="270" y="-15" on="1"/>
        <pt x="179" y="-15" on="0"/>
        <pt x="75" y="96" on="0"/>
        <pt x="75" y="200" on="1"/>
        <pt x="75" y="620" on="1"/>
        <pt x="159" y="620" on="1"/>
        <pt x="159" y="206" on="1"/>
        <pt x="159" y="130" on="0"/>
        <pt x="223" y="57" on="0"/>
        <pt x="278" y="57" on="1"/>
        <pt x="335" y="57" on="0"/>
        <pt x="391" y="121" on="0"/>
        <pt x="391" y="191" on="1"/>
        <pt x="391" y="620" on="1"/>
        <pt x="474" y="620" on="1"/>
        <pt x="474" y="204" on="1"/>
        <pt x="474" y="100" on="0"/>
        <pt x="365" y="-15" on="0"/>
      </contour>
    </TTGlyph>
    <TTGlyph name="V" xMin="38" yMin="-1" xMax="512" yMax="623">
      <contour>
        <pt x="335" y="-1" on="1"/>
        <pt x="216" y="-1" on="1"/>
        <pt x="168" y="154" on="0"/>
        <pt x="79" y="463" on="0"/>
        <pt x="38" y="617" on="1"/>
        <pt x="123" y="623" on="1"/>
        <pt x="157" y="487" on="0"/>
        <pt x="232" y="210" on="0"/>
        <pt x="272" y="74" on="1"/>
        <pt x="281" y="74" on="1"/>
        <pt x="321" y="210" on="0"/>
        <pt x="395" y="484" on="0"/>
        <pt x="429" y="620" on="1"/>
        <pt x="512" y="620" on="1"/>
        <pt x="471" y="466" on="0"/>
        <pt x="383" y="154" on="0"/>
      </contour>
    </TTGlyph>
    <TTGlyph name="W" xMin="51" yMin="0" xMax="500" yMax="620">
      <contour>
        <pt x="364" y="0" on="1"/>
        <pt x="274" y="330" on="1"/>
        <pt x="187" y="0" on="1"/>
        <pt x="99" y="0" on="1"/>
        <pt x="93" y="44" on="0"/>
        <pt x="81" y="174" on="0"/>
        <pt x="68" y="334" on="0"/>
        <pt x="56" y="520" on="0"/>
        <pt x="51" y="620" on="1"/>
        <pt x="133" y="620" on="1"/>
        <pt x="135" y="574" on="0"/>
        <pt x="143" y="418" on="0"/>
        <pt x="152" y="261" on="0"/>
        <pt x="160" y="129" on="0"/>
        <pt x="162" y="106" on="1"/>
        <pt x="166" y="106" on="1"/>
        <pt x="191" y="197" on="0"/>
        <pt x="231" y="355" on="0"/>
        <pt x="252" y="436" on="1"/>
        <pt x="302" y="436" on="1"/>
        <pt x="324" y="355" on="0"/>
        <pt x="369" y="188" on="0"/>
        <pt x="391" y="106" on="1"/>
        <pt x="394" y="106" on="1"/>
        <pt x="397" y="129" on="0"/>
        <pt x="405" y="261" on="0"/>
        <pt x="413" y="418" on="0"/>
        <pt x="420" y="574" on="0"/>
        <pt x="422" y="620" on="1"/>
        <pt x="500" y="620" on="1"/>
        <pt x="495" y="520" on="0"/>
        <pt x="483" y="334" on="0"/>
        <pt x="470" y="174" on="0"/>
        <pt x="457" y="44" on="0"/>
        <pt x="451" y="0" on="1"/>
      </contour>
    </TTGlyph>
    <TTGlyph name="Wacute" xMin="51" yMin="0" xMax="500" yMax="902">
      <contour>
        <pt x="174" y="724" on="1"/>
        <pt x="196" y="739" on="0"/>
        <pt x="248" y="782" on="0"/>
        <pt x="300" y="831" on="0"/>
        <pt x="349" y="881" on="0"/>
        <pt x="367" y="902" on="1"/>
        <pt x="432" y="839" on="1"/>
        <pt x="410" y="819" on="0"/>
        <pt x="350" y="776" on="0"/>
        <pt x="286" y="736" on="0"/>
        <pt x="222" y="700" on="0"/>
        <pt x="197" y="688" on="1"/>
      </contour>
      <contour>
        <pt x="364" y="0" on="1"/>
        <pt x="274" y="330" on="1"/>
        <pt x="187" y="0" on="1"/>
        <pt x="99" y="0" on="1"/>
        <pt x="93" y="44" on="0"/>
        <pt x="81" y="174" on="0"/>
        <pt x="68" y="334" on="0"/>
        <pt x="56" y="520" on="0"/>
        <pt x="51" y="620" on="1"/>
        <pt x="133" y="620" on="1"/>
        <pt x="135" y="574" on="0"/>
        <pt x="143" y="418" on="0"/>
        <pt x="152" y="261" on="0"/>
        <pt x="160" y="129" on="0"/>
        <pt x="162" y="106" on="1"/>
        <pt x="166" y="106" on="1"/>
        <pt x="191" y="197" on="0"/>
        <pt x="231" y="355" on="0"/>
        <pt x="252" y="436" on="1"/>
        <pt x="302" y="436" on="1"/>
        <pt x="324" y="355" on="0"/>
        <pt x="369" y="188" on="0"/>
        <pt x="391" y="106" on="1"/>
        <pt x="394" y="106" on="1"/>
        <pt x="397" y="129" on="0"/>
        <pt x="405" y="261" on="0"/>
        <pt x="413" y="418" on="0"/>
        <pt x="420" y="574" on="0"/>
        <pt x="422" y="620" on="1"/>
        <pt x="500" y="620" on="1"/>
        <pt x="495" y="520" on="0"/>
        <pt x="483" y="334" on="0"/>
        <pt x="470" y="174" on="0"/>
        <pt x="457" y="44" on="0"/>
        <pt x="451" y="0" on="1"/>
      </contour>
    </TTGlyph>
    <TTGlyph name="Wcircumflex" xMin="51" yMin="0" xMax="500" yMax="883">
      <contour>
        <pt x="406" y="690" on="1"/>
        <pt x="273" y="804" on="1"/>
        <pt x="141" y="691" on="1"/>
        <pt x="101" y="730" on="1"/>
        <pt x="277" y="883" on="1"/>
        <pt x="281" y="883" on="1"/>
        <pt x="457" y="739" on="1"/>
      </contour>
      <contour>
        <pt x="364" y="0" on="1"/>
        <pt x="274" y="330" on="1"/>
        <pt x="187" y="0" on="1"/>
        <pt x="99" y="0" on="1"/>
        <pt x="93" y="44" on="0"/>
        <pt x="81" y="174" on="0"/>
        <pt x="68" y="334" on="0"/>
        <pt x="56" y="520" on="0"/>
        <pt x="51" y="620" on="1"/>
        <pt x="133" y="620" on="1"/>
        <pt x="135" y="574" on="0"/>
        <pt x="143" y="418" on="0"/>
        <pt x="152" y="261" on="0"/>
        <pt x="160" y="129" on="0"/>
        <pt x="162" y="106" on="1"/>
        <pt x="166" y="106" on="1"/>
        <pt x="191" y="197" on="0"/>
        <pt x="231" y="355" on="0"/>
        <pt x="252" y="436" on="1"/>
        <pt x="302" y="436" on="1"/>
        <pt x="324" y="355" on="0"/>
        <pt x="369" y="188" on="0"/>
        <pt x="391" y="106" on="1"/>
        <pt x="394" y="106" on="1"/>
        <pt x="397" y="129" on="0"/>
        <pt x="405" y="261" on="0"/>
        <pt x="413" y="418" on="0"/>
        <pt x="420" y="574" on="0"/>
        <pt x="422" y="620" on="1"/>
        <pt x="500" y="620" on="1"/>
        <pt x="495" y="520" on="0"/>
        <pt x="483" y="334" on="0"/>
        <pt x="470" y="174" on="0"/>
        <pt x="457" y="44" on="0"/>
        <pt x="451" y="0" on="1"/>
      </contour>
    </TTGlyph>
    <TTGlyph name="Wdieresis" xMin="51" yMin="0" xMax="500" yMax="835">
      <contour>
        <pt x="431" y="699" on="1"/>
        <pt x="349" y="699" on="1"/>
        <pt x="350" y="835" on="1"/>
        <pt x="433" y="835" on="1"/>
      </contour>
      <contour>
        <pt x="211" y="699" on="1"/>
        <pt x="129" y="699" on="1"/>
        <pt x="130" y="835" on="1"/>
        <pt x="213" y="835" on="1"/>
      </contour>
      <contour>
        <pt x="364" y="0" on="1"/>
        <pt x="274" y="330" on="1"/>
        <pt x="187" y="0" on="1"/>
        <pt x="99" y="0" on="1"/>
        <pt x="93" y="44" on="0"/>
        <pt x="81" y="174" on="0"/>
        <pt x="68" y="334" on="0"/>
        <pt x="56" y="520" on="0"/>
        <pt x="51" y="620" on="1"/>
        <pt x="133" y="620" on="1"/>
        <pt x="135" y="574" on="0"/>
        <pt x="143" y="418" on="0"/>
        <pt x="152" y="261" on="0"/>
        <pt x="160" y="129" on="0"/>
        <pt x="162" y="106" on="1"/>
        <pt x="166" y="106" on="1"/>
        <pt x="191" y="197" on="0"/>
        <pt x="231" y="355" on="0"/>
        <pt x="252" y="436" on="1"/>
        <pt x="302" y="436" on="1"/>
        <pt x="324" y="355" on="0"/>
        <pt x="369" y="188" on="0"/>
        <pt x="391" y="106" on="1"/>
        <pt x="394" y="106" on="1"/>
        <pt x="397" y="129" on="0"/>
        <pt x="405" y="261" on="0"/>
        <pt x="413" y="418" on="0"/>
        <pt x="420" y="574" on="0"/>
        <pt x="422" y="620" on="1"/>
        <pt x="500" y="620" on="1"/>
        <pt x="495" y="520" on="0"/>
        <pt x="483" y="334" on="0"/>
        <pt x="470" y="174" on="0"/>
        <pt x="457" y="44" on="0"/>
        <pt x="451" y="0" on="1"/>
      </contour>
    </TTGlyph>
    <TTGlyph name="Wgrave" xMin="51" yMin="0" xMax="500" yMax="898">
      <contour>
        <pt x="379" y="718" on="1"/>
        <pt x="355" y="682" on="1"/>
        <pt x="330" y="695" on="0"/>
        <pt x="268" y="731" on="0"/>
        <pt x="205" y="771" on="0"/>
        <pt x="145" y="813" on="0"/>
        <pt x="122" y="831" on="1"/>
        <pt x="182" y="898" on="1"/>
        <pt x="201" y="878" on="0"/>
        <pt x="252" y="828" on="0"/>
        <pt x="306" y="779" on="0"/>
        <pt x="358" y="734" on="0"/>
      </contour>
      <contour>
        <pt x="364" y="0" on="1"/>
        <pt x="274" y="330" on="1"/>
        <pt x="187" y="0" on="1"/>
        <pt x="99" y="0" on="1"/>
        <pt x="93" y="44" on="0"/>
        <pt x="81" y="174" on="0"/>
        <pt x="68" y="334" on="0"/>
        <pt x="56" y="520" on="0"/>
        <pt x="51" y="620" on="1"/>
        <pt x="133" y="620" on="1"/>
        <pt x="135" y="574" on="0"/>
        <pt x="143" y="418" on="0"/>
        <pt x="152" y="261" on="0"/>
        <pt x="160" y="129" on="0"/>
        <pt x="162" y="106" on="1"/>
        <pt x="166" y="106" on="1"/>
        <pt x="191" y="197" on="0"/>
        <pt x="231" y="355" on="0"/>
        <pt x="252" y="436" on="1"/>
        <pt x="302" y="436" on="1"/>
        <pt x="324" y="355" on="0"/>
        <pt x="369" y="188" on="0"/>
        <pt x="391" y="106" on="1"/>
        <pt x="394" y="106" on="1"/>
        <pt x="397" y="129" on="0"/>
        <pt x="405" y="261" on="0"/>
        <pt x="413" y="418" on="0"/>
        <pt x="420" y="574" on="0"/>
        <pt x="422" y="620" on="1"/>
        <pt x="500" y="620" on="1"/>
        <pt x="495" y="520" on="0"/>
        <pt x="483" y="334" on="0"/>
        <pt x="470" y="174" on="0"/>
        <pt x="457" y="44" on="0"/>
        <pt x="451" y="0" on="1"/>
      </contour>
    </TTGlyph>
    <TTGlyph name="X" xMin="40" yMin="-3" xMax="513" yMax="623">
      <contour>
        <pt x="421" y="-3" on="1"/>
        <pt x="272" y="253" on="1"/>
        <pt x="129" y="0" on="1"/>
        <pt x="40" y="0" on="1"/>
        <pt x="224" y="310" on="1"/>
        <pt x="40" y="617" on="1"/>
        <pt x="131" y="623" on="1"/>
        <pt x="280" y="367" on="1"/>
        <pt x="423" y="620" on="1"/>
        <pt x="513" y="620" on="1"/>
        <pt x="329" y="310" on="1"/>
        <pt x="512" y="3" on="1"/>
      </contour>
    </TTGlyph>
    <TTGlyph name="Y" xMin="33" yMin="0" xMax="517" yMax="622">
      <contour>
        <pt x="318" y="0" on="1"/>
        <pt x="234" y="0" on="1"/>
        <pt x="234" y="206" on="1"/>
        <pt x="33" y="618" on="1"/>
        <pt x="122" y="622" on="1"/>
        <pt x="278" y="286" on="1"/>
        <pt x="431" y="620" on="1"/>
        <pt x="517" y="620" on="1"/>
        <pt x="318" y="206" on="1"/>
      </contour>
    </TTGlyph>
    <TTGlyph name="Yacute" xMin="33" yMin="0" xMax="517" yMax="904">
      <contour>
        <pt x="173" y="726" on="1"/>
        <pt x="195" y="741" on="0"/>
        <pt x="247" y="784" on="0"/>
        <pt x="299" y="833" on="0"/>
        <pt x="348" y="883" on="0"/>
        <pt x="366" y="904" on="1"/>
        <pt x="431" y="841" on="1"/>
        <pt x="409" y="821" on="0"/>
        <pt x="349" y="778" on="0"/>
        <pt x="285" y="738" on="0"/>
        <pt x="221" y="702" on="0"/>
        <pt x="196" y="690" on="1"/>
      </contour>
      <contour>
        <pt x="318" y="0" on="1"/>
        <pt x="234" y="0" on="1"/>
        <pt x="234" y="206" on="1"/>
        <pt x="33" y="618" on="1"/>
        <pt x="122" y="622" on="1"/>
        <pt x="278" y="286" on="1"/>
        <pt x="431" y="620" on="1"/>
        <pt x="517" y="620" on="1"/>
        <pt x="318" y="206" on="1"/>
      </contour>
    </TTGlyph>
    <TTGlyph name="Ycircumflex" xMin="33" yMin="0" xMax="517" yMax="885">
      <contour>
        <pt x="405" y="692" on="1"/>
        <pt x="272" y="806" on="1"/>
        <pt x="140" y="693" on="1"/>
        <pt x="100" y="732" on="1"/>
        <pt x="276" y="885" on="1"/>
        <pt x="280" y="885" on="1"/>
        <pt x="456" y="741" on="1"/>
      </contour>
      <contour>
        <pt x="318" y="0" on="1"/>
        <pt x="234" y="0" on="1"/>
        <pt x="234" y="206" on="1"/>
        <pt x="33" y="618" on="1"/>
        <pt x="122" y="622" on="1"/>
        <pt x="278" y="286" on="1"/>
        <pt x="431" y="620" on="1"/>
        <pt x="517" y="620" on="1"/>
        <pt x="318" y="206" on="1"/>
      </contour>
    </TTGlyph>
    <TTGlyph name="Ydieresis" xMin="33" yMin="0" xMax="517" yMax="837">
      <contour>
        <pt x="430" y="701" on="1"/>
        <pt x="348" y="701" on="1"/>
        <pt x="349" y="837" on="1"/>
        <pt x="432" y="837" on="1"/>
      </contour>
      <contour>
        <pt x="210" y="701" on="1"/>
        <pt x="128" y="701" on="1"/>
        <pt x="129" y="837" on="1"/>
        <pt x="212" y="837" on="1"/>
      </contour>
      <contour>
        <pt x="318" y="0" on="1"/>
        <pt x="234" y="0" on="1"/>
        <pt x="234" y="206" on="1"/>
        <pt x="33" y="618" on="1"/>
        <pt x="122" y="622" on="1"/>
        <pt x="278" y="286" on="1"/>
        <pt x="431" y="620" on="1"/>
        <pt x="517" y="620" on="1"/>
        <pt x="318" y="206" on="1"/>
      </contour>
    </TTGlyph>
    <TTGlyph name="Ygrave" xMin="33" yMin="0" xMax="517" yMax="900">
      <contour>
        <pt x="378" y="720" on="1"/>
        <pt x="354" y="684" on="1"/>
        <pt x="329" y="697" on="0"/>
        <pt x="267" y="733" on="0"/>
        <pt x="204" y="773" on="0"/>
        <pt x="144" y="815" on="0"/>
        <pt x="121" y="833" on="1"/>
        <pt x="181" y="900" on="1"/>
        <pt x="200" y="880" on="0"/>
        <pt x="251" y="830" on="0"/>
        <pt x="305" y="781" on="0"/>
        <pt x="357" y="736" on="0"/>
      </contour>
      <contour>
        <pt x="318" y="0" on="1"/>
        <pt x="234" y="0" on="1"/>
        <pt x="234" y="206" on="1"/>
        <pt x="33" y="618" on="1"/>
        <pt x="122" y="622" on="1"/>
        <pt x="278" y="286" on="1"/>
        <pt x="431" y="620" on="1"/>
        <pt x="517" y="620" on="1"/>
        <pt x="318" y="206" on="1"/>
      </contour>
    </TTGlyph>
    <TTGlyph name="Z" xMin="67" yMin="0" xMax="488" yMax="620">
      <contour>
        <pt x="481" y="0" on="1"/>
        <pt x="67" y="0" on="1"/>
        <pt x="67" y="71" on="1"/>
        <pt x="392" y="548" on="1"/>
        <pt x="71" y="547" on="1"/>
        <pt x="77" y="620" on="1"/>
        <pt x="481" y="620" on="1"/>
        <pt x="481" y="549" on="1"/>
        <pt x="158" y="72" on="1"/>
        <pt x="488" y="73" on="1"/>
      </contour>
    </TTGlyph>
    <TTGlyph name="Zacute" xMin="67" yMin="0" xMax="488" yMax="902">
      <contour>
        <pt x="182" y="724" on="1"/>
        <pt x="204" y="739" on="0"/>
        <pt x="256" y="782" on="0"/>
        <pt x="308" y="831" on="0"/>
        <pt x="357" y="881" on="0"/>
        <pt x="375" y="902" on="1"/>
        <pt x="440" y="839" on="1"/>
        <pt x="418" y="819" on="0"/>
        <pt x="358" y="776" on="0"/>
        <pt x="294" y="736" on="0"/>
        <pt x="230" y="700" on="0"/>
        <pt x="205" y="688" on="1"/>
      </contour>
      <contour>
        <pt x="481" y="0" on="1"/>
        <pt x="67" y="0" on="1"/>
        <pt x="67" y="71" on="1"/>
        <pt x="392" y="548" on="1"/>
        <pt x="71" y="547" on="1"/>
        <pt x="77" y="620" on="1"/>
        <pt x="481" y="620" on="1"/>
        <pt x="481" y="549" on="1"/>
        <pt x="158" y="72" on="1"/>
        <pt x="488" y="73" on="1"/>
      </contour>
    </TTGlyph>
    <TTGlyph name="Zcaron" xMin="67" yMin="0" xMax="488" yMax="877">
      <contour>
        <pt x="295" y="685" on="1"/>
        <pt x="291" y="685" on="1"/>
        <pt x="115" y="828" on="1"/>
        <pt x="166" y="877" on="1"/>
        <pt x="299" y="764" on="1"/>
        <pt x="430" y="876" on="1"/>
        <pt x="471" y="836" on="1"/>
      </contour>
      <contour>
        <pt x="481" y="0" on="1"/>
        <pt x="67" y="0" on="1"/>
        <pt x="67" y="71" on="1"/>
        <pt x="392" y="548" on="1"/>
        <pt x="71" y="547" on="1"/>
        <pt x="77" y="620" on="1"/>
        <pt x="481" y="620" on="1"/>
        <pt x="481" y="549" on="1"/>
        <pt x="158" y="72" on="1"/>
        <pt x="488" y="73" on="1"/>
      </contour>
    </TTGlyph>
    <TTGlyph name="Zdotaccent" xMin="67" yMin="0" xMax="488" yMax="835">
      <contour>
        <pt x="329" y="699" on="1"/>
        <pt x="246" y="699" on="1"/>
        <pt x="249" y="835" on="1"/>
        <pt x="334" y="835" on="1"/>
      </contour>
      <contour>
        <pt x="481" y="0" on="1"/>
        <pt x="67" y="0" on="1"/>
        <pt x="67" y="71" on="1"/>
        <pt x="392" y="548" on="1"/>
        <pt x="71" y="547" on="1"/>
        <pt x="77" y="620" on="1"/>
        <pt x="481" y="620" on="1"/>
        <pt x="481" y="549" on="1"/>
        <pt x="158" y="72" on="1"/>
        <pt x="488" y="73" on="1"/>
      </contour>
    </TTGlyph>
    <TTGlyph name="a" xMin="67" yMin="-12" xMax="472" yMax="499">
      <contour>
        <pt x="248" y="52" on="1"/>
        <pt x="285" y="52" on="0"/>
        <pt x="359" y="83" on="0"/>
        <pt x="387" y="105" on="1"/>
        <pt x="386" y="129" on="0"/>
        <pt x="385" y="185" on="0"/>
        <pt x="385" y="221" on="1"/>
        <pt x="362" y="223" on="0"/>
        <pt x="321" y="226" on="0"/>
        <pt x="303" y="226" on="1"/>
        <pt x="216" y="226" on="0"/>
        <pt x="147" y="176" on="0"/>
        <pt x="147" y="134" on="1"/>
        <pt x="147" y="95" on="0"/>
        <pt x="202" y="52" on="0"/>
      </contour>
      <contour>
        <pt x="398" y="-3" on="1"/>
        <pt x="397" y="4" on="0"/>
        <pt x="392" y="44" on="0"/>
        <pt x="391" y="60" on="1"/>
        <pt x="361" y="32" on="0"/>
        <pt x="274" y="-12" on="0"/>
        <pt x="217" y="-12" on="1"/>
        <pt x="151" y="-12" on="0"/>
        <pt x="67" y="56" on="0"/>
        <pt x="67" y="115" on="1"/>
        <pt x="67" y="184" on="0"/>
        <pt x="200" y="281" on="0"/>
        <pt x="338" y="281" on="1"/>
        <pt x="349" y="281" on="0"/>
        <pt x="372" y="281" on="0"/>
        <pt x="384" y="280" on="1"/>
        <pt x="381" y="322" on="0"/>
        <pt x="352" y="377" on="0"/>
        <pt x="287" y="410" on="0"/>
        <pt x="178" y="426" on="0"/>
        <pt x="96" y="429" on="1"/>
        <pt x="105" y="499" on="1"/>
        <pt x="211" y="496" on="0"/>
        <pt x="350" y="468" on="0"/>
        <pt x="431" y="409" on="0"/>
        <pt x="464" y="314" on="0"/>
        <pt x="464" y="243" on="1"/>
        <pt x="464" y="167" on="0"/>
        <pt x="469" y="54" on="0"/>
        <pt x="472" y="2" on="1"/>
      </contour>
    </TTGlyph>
    <TTGlyph name="aacute" xMin="67" yMin="-12" xMax="472" yMax="776">
      <contour>
        <pt x="168" y="598" on="1"/>
        <pt x="190" y="613" on="0"/>
        <pt x="242" y="656" on="0"/>
        <pt x="294" y="705" on="0"/>
        <pt x="343" y="755" on="0"/>
        <pt x="361" y="776" on="1"/>
        <pt x="426" y="713" on="1"/>
        <pt x="404" y="693" on="0"/>
        <pt x="344" y="650" on="0"/>
        <pt x="280" y="610" on="0"/>
        <pt x="216" y="574" on="0"/>
        <pt x="191" y="562" on="1"/>
      </contour>
      <contour>
        <pt x="248" y="52" on="1"/>
        <pt x="285" y="52" on="0"/>
        <pt x="359" y="83" on="0"/>
        <pt x="387" y="105" on="1"/>
        <pt x="386" y="129" on="0"/>
        <pt x="385" y="185" on="0"/>
        <pt x="385" y="221" on="1"/>
        <pt x="362" y="223" on="0"/>
        <pt x="321" y="226" on="0"/>
        <pt x="303" y="226" on="1"/>
        <pt x="216" y="226" on="0"/>
        <pt x="147" y="176" on="0"/>
        <pt x="147" y="134" on="1"/>
        <pt x="147" y="95" on="0"/>
        <pt x="202" y="52" on="0"/>
      </contour>
      <contour>
        <pt x="398" y="-3" on="1"/>
        <pt x="397" y="4" on="0"/>
        <pt x="392" y="44" on="0"/>
        <pt x="391" y="60" on="1"/>
        <pt x="361" y="32" on="0"/>
        <pt x="274" y="-12" on="0"/>
        <pt x="217" y="-12" on="1"/>
        <pt x="151" y="-12" on="0"/>
        <pt x="67" y="56" on="0"/>
        <pt x="67" y="115" on="1"/>
        <pt x="67" y="184" on="0"/>
        <pt x="200" y="281" on="0"/>
        <pt x="338" y="281" on="1"/>
        <pt x="349" y="281" on="0"/>
        <pt x="372" y="281" on="0"/>
        <pt x="384" y="280" on="1"/>
        <pt x="381" y="322" on="0"/>
        <pt x="352" y="377" on="0"/>
        <pt x="287" y="410" on="0"/>
        <pt x="178" y="426" on="0"/>
        <pt x="96" y="429" on="1"/>
        <pt x="105" y="499" on="1"/>
        <pt x="211" y="496" on="0"/>
        <pt x="350" y="468" on="0"/>
        <pt x="431" y="409" on="0"/>
        <pt x="464" y="314" on="0"/>
        <pt x="464" y="243" on="1"/>
        <pt x="464" y="167" on="0"/>
        <pt x="469" y="54" on="0"/>
        <pt x="472" y="2" on="1"/>
      </contour>
    </TTGlyph>
    <TTGlyph name="abreve" xMin="67" yMin="-12" xMax="472" yMax="746">
      <contour>
        <pt x="273" y="569" on="1"/>
        <pt x="221" y="569" on="0"/>
        <pt x="128" y="641" on="0"/>
        <pt x="88" y="713" on="1"/>
        <pt x="145" y="746" on="1"/>
        <pt x="182" y="686" on="0"/>
        <pt x="243" y="635" on="0"/>
        <pt x="280" y="635" on="1"/>
        <pt x="319" y="635" on="0"/>
        <pt x="383" y="690" on="0"/>
        <pt x="418" y="742" on="1"/>
        <pt x="466" y="717" on="1"/>
        <pt x="424" y="648" on="0"/>
        <pt x="326" y="569" on="0"/>
      </contour>
      <contour>
        <pt x="248" y="52" on="1"/>
        <pt x="285" y="52" on="0"/>
        <pt x="359" y="83" on="0"/>
        <pt x="387" y="105" on="1"/>
        <pt x="386" y="129" on="0"/>
        <pt x="385" y="185" on="0"/>
        <pt x="385" y="221" on="1"/>
        <pt x="362" y="223" on="0"/>
        <pt x="321" y="226" on="0"/>
        <pt x="303" y="226" on="1"/>
        <pt x="216" y="226" on="0"/>
        <pt x="147" y="176" on="0"/>
        <pt x="147" y="134" on="1"/>
        <pt x="147" y="95" on="0"/>
        <pt x="202" y="52" on="0"/>
      </contour>
      <contour>
        <pt x="398" y="-3" on="1"/>
        <pt x="397" y="4" on="0"/>
        <pt x="392" y="44" on="0"/>
        <pt x="391" y="60" on="1"/>
        <pt x="361" y="32" on="0"/>
        <pt x="274" y="-12" on="0"/>
        <pt x="217" y="-12" on="1"/>
        <pt x="151" y="-12" on="0"/>
        <pt x="67" y="56" on="0"/>
        <pt x="67" y="115" on="1"/>
        <pt x="67" y="184" on="0"/>
        <pt x="200" y="281" on="0"/>
        <pt x="338" y="281" on="1"/>
        <pt x="349" y="281" on="0"/>
        <pt x="372" y="281" on="0"/>
        <pt x="384" y="280" on="1"/>
        <pt x="381" y="322" on="0"/>
        <pt x="352" y="377" on="0"/>
        <pt x="287" y="410" on="0"/>
        <pt x="178" y="426" on="0"/>
        <pt x="96" y="429" on="1"/>
        <pt x="105" y="499" on="1"/>
        <pt x="211" y="496" on="0"/>
        <pt x="350" y="468" on="0"/>
        <pt x="431" y="409" on="0"/>
        <pt x="464" y="314" on="0"/>
        <pt x="464" y="243" on="1"/>
        <pt x="464" y="167" on="0"/>
        <pt x="469" y="54" on="0"/>
        <pt x="472" y="2" on="1"/>
      </contour>
    </TTGlyph>
    <TTGlyph name="acircumflex" xMin="67" yMin="-12" xMax="472" yMax="757">
      <contour>
        <pt x="401" y="564" on="1"/>
        <pt x="268" y="678" on="1"/>
        <pt x="136" y="565" on="1"/>
        <pt x="96" y="604" on="1"/>
        <pt x="272" y="757" on="1"/>
        <pt x="276" y="757" on="1"/>
        <pt x="452" y="613" on="1"/>
      </contour>
      <contour>
        <pt x="248" y="52" on="1"/>
        <pt x="285" y="52" on="0"/>
        <pt x="359" y="83" on="0"/>
        <pt x="387" y="105" on="1"/>
        <pt x="386" y="129" on="0"/>
        <pt x="385" y="185" on="0"/>
        <pt x="385" y="221" on="1"/>
        <pt x="362" y="223" on="0"/>
        <pt x="321" y="226" on="0"/>
        <pt x="303" y="226" on="1"/>
        <pt x="216" y="226" on="0"/>
        <pt x="147" y="176" on="0"/>
        <pt x="147" y="134" on="1"/>
        <pt x="147" y="95" on="0"/>
        <pt x="202" y="52" on="0"/>
      </contour>
      <contour>
        <pt x="398" y="-3" on="1"/>
        <pt x="397" y="4" on="0"/>
        <pt x="392" y="44" on="0"/>
        <pt x="391" y="60" on="1"/>
        <pt x="361" y="32" on="0"/>
        <pt x="274" y="-12" on="0"/>
        <pt x="217" y="-12" on="1"/>
        <pt x="151" y="-12" on="0"/>
        <pt x="67" y="56" on="0"/>
        <pt x="67" y="115" on="1"/>
        <pt x="67" y="184" on="0"/>
        <pt x="200" y="281" on="0"/>
        <pt x="338" y="281" on="1"/>
        <pt x="349" y="281" on="0"/>
        <pt x="372" y="281" on="0"/>
        <pt x="384" y="280" on="1"/>
        <pt x="381" y="322" on="0"/>
        <pt x="352" y="377" on="0"/>
        <pt x="287" y="410" on="0"/>
        <pt x="178" y="426" on="0"/>
        <pt x="96" y="429" on="1"/>
        <pt x="105" y="499" on="1"/>
        <pt x="211" y="496" on="0"/>
        <pt x="350" y="468" on="0"/>
        <pt x="431" y="409" on="0"/>
        <pt x="464" y="314" on="0"/>
        <pt x="464" y="243" on="1"/>
        <pt x="464" y="167" on="0"/>
        <pt x="469" y="54" on="0"/>
        <pt x="472" y="2" on="1"/>
      </contour>
    </TTGlyph>
    <TTGlyph name="acute" xMin="162" yMin="558" xMax="420" yMax="772">
      <contour>
        <pt x="162" y="594" on="1"/>
        <pt x="184" y="609" on="0"/>
        <pt x="236" y="652" on="0"/>
        <pt x="288" y="701" on="0"/>
        <pt x="337" y="751" on="0"/>
        <pt x="355" y="772" on="1"/>
        <pt x="420" y="709" on="1"/>
        <pt x="398" y="689" on="0"/>
        <pt x="338" y="646" on="0"/>
        <pt x="274" y="606" on="0"/>
        <pt x="210" y="570" on="0"/>
        <pt x="185" y="558" on="1"/>
      </contour>
    </TTGlyph>
    <TTGlyph name="adieresis" xMin="67" yMin="-12" xMax="472" yMax="709">
      <contour>
        <pt x="425" y="573" on="1"/>
        <pt x="343" y="573" on="1"/>
        <pt x="344" y="709" on="1"/>
        <pt x="427" y="709" on="1"/>
      </contour>
      <contour>
        <pt x="205" y="573" on="1"/>
        <pt x="123" y="573" on="1"/>
        <pt x="124" y="709" on="1"/>
        <pt x="207" y="709" on="1"/>
      </contour>
      <contour>
        <pt x="248" y="52" on="1"/>
        <pt x="285" y="52" on="0"/>
        <pt x="359" y="83" on="0"/>
        <pt x="387" y="105" on="1"/>
        <pt x="386" y="129" on="0"/>
        <pt x="385" y="185" on="0"/>
        <pt x="385" y="221" on="1"/>
        <pt x="362" y="223" on="0"/>
        <pt x="321" y="226" on="0"/>
        <pt x="303" y="226" on="1"/>
        <pt x="216" y="226" on="0"/>
        <pt x="147" y="176" on="0"/>
        <pt x="147" y="134" on="1"/>
        <pt x="147" y="95" on="0"/>
        <pt x="202" y="52" on="0"/>
      </contour>
      <contour>
        <pt x="398" y="-3" on="1"/>
        <pt x="397" y="4" on="0"/>
        <pt x="392" y="44" on="0"/>
        <pt x="391" y="60" on="1"/>
        <pt x="361" y="32" on="0"/>
        <pt x="274" y="-12" on="0"/>
        <pt x="217" y="-12" on="1"/>
        <pt x="151" y="-12" on="0"/>
        <pt x="67" y="56" on="0"/>
        <pt x="67" y="115" on="1"/>
        <pt x="67" y="184" on="0"/>
        <pt x="200" y="281" on="0"/>
        <pt x="338" y="281" on="1"/>
        <pt x="349" y="281" on="0"/>
        <pt x="372" y="281" on="0"/>
        <pt x="384" y="280" on="1"/>
        <pt x="381" y="322" on="0"/>
        <pt x="352" y="377" on="0"/>
        <pt x="287" y="410" on="0"/>
        <pt x="178" y="426" on="0"/>
        <pt x="96" y="429" on="1"/>
        <pt x="105" y="499" on="1"/>
        <pt x="211" y="496" on="0"/>
        <pt x="350" y="468" on="0"/>
        <pt x="431" y="409" on="0"/>
        <pt x="464" y="314" on="0"/>
        <pt x="464" y="243" on="1"/>
        <pt x="464" y="167" on="0"/>
        <pt x="469" y="54" on="0"/>
        <pt x="472" y="2" on="1"/>
      </contour>
    </TTGlyph>
    <TTGlyph name="ae" xMin="34" yMin="-7" xMax="515" yMax="496">
      <contour>
        <pt x="375" y="429" on="1"/>
        <pt x="341" y="429" on="0"/>
        <pt x="306" y="355" on="0"/>
        <pt x="304" y="275" on="1"/>
        <pt x="439" y="277" on="1"/>
        <pt x="439" y="278" on="0"/>
        <pt x="439" y="283" on="0"/>
        <pt x="439" y="284" on="1"/>
        <pt x="439" y="355" on="0"/>
        <pt x="409" y="429" on="0"/>
      </contour>
      <contour>
        <pt x="169" y="58" on="1"/>
        <pt x="194" y="58" on="0"/>
        <pt x="234" y="87" on="0"/>
        <pt x="249" y="110" on="1"/>
        <pt x="241" y="134" on="0"/>
        <pt x="234" y="191" on="0"/>
        <pt x="234" y="223" on="1"/>
        <pt x="233" y="223" on="1"/>
        <pt x="170" y="223" on="0"/>
        <pt x="110" y="180" on="0"/>
        <pt x="110" y="135" on="1"/>
        <pt x="110" y="96" on="0"/>
        <pt x="143" y="58" on="0"/>
      </contour>
      <contour>
        <pt x="497" y="-6" on="1"/>
        <pt x="404" y="-5" on="0"/>
        <pt x="295" y="33" on="0"/>
        <pt x="269" y="69" on="1"/>
        <pt x="250" y="39" on="0"/>
        <pt x="184" y="-7" on="0"/>
        <pt x="140" y="-7" on="1"/>
        <pt x="94" y="-7" on="0"/>
        <pt x="34" y="58" on="0"/>
        <pt x="34" y="116" on="1"/>
        <pt x="34" y="190" on="0"/>
        <pt x="133" y="273" on="0"/>
        <pt x="234" y="275" on="1"/>
        <pt x="233" y="318" on="0"/>
        <pt x="217" y="374" on="0"/>
        <pt x="178" y="406" on="0"/>
        <pt x="109" y="422" on="0"/>
        <pt x="55" y="425" on="1"/>
        <pt x="61" y="494" on="1"/>
        <pt x="149" y="489" on="0"/>
        <pt x="246" y="453" on="0"/>
        <pt x="267" y="410" on="1"/>
        <pt x="286" y="451" on="0"/>
        <pt x="347" y="496" on="0"/>
        <pt x="387" y="496" on="1"/>
        <pt x="450" y="496" on="0"/>
        <pt x="515" y="380" on="0"/>
        <pt x="515" y="277" on="1"/>
        <pt x="515" y="266" on="0"/>
        <pt x="514" y="242" on="0"/>
        <pt x="513" y="229" on="1"/>
        <pt x="304" y="224" on="1"/>
        <pt x="304" y="181" on="0"/>
        <pt x="320" y="121" on="0"/>
        <pt x="364" y="83" on="0"/>
        <pt x="442" y="63" on="0"/>
        <pt x="504" y="62" on="1"/>
      </contour>
    </TTGlyph>
    <TTGlyph name="aeacute" xMin="34" yMin="-7" xMax="515" yMax="772">
      <contour>
        <pt x="170" y="594" on="1"/>
        <pt x="192" y="609" on="0"/>
        <pt x="244" y="652" on="0"/>
        <pt x="296" y="701" on="0"/>
        <pt x="345" y="751" on="0"/>
        <pt x="363" y="772" on="1"/>
        <pt x="428" y="709" on="1"/>
        <pt x="406" y="689" on="0"/>
        <pt x="346" y="646" on="0"/>
        <pt x="282" y="606" on="0"/>
        <pt x="218" y="570" on="0"/>
        <pt x="193" y="558" on="1"/>
      </contour>
      <contour>
        <pt x="375" y="429" on="1"/>
        <pt x="341" y="429" on="0"/>
        <pt x="306" y="355" on="0"/>
        <pt x="304" y="275" on="1"/>
        <pt x="439" y="277" on="1"/>
        <pt x="439" y="278" on="0"/>
        <pt x="439" y="283" on="0"/>
        <pt x="439" y="284" on="1"/>
        <pt x="439" y="355" on="0"/>
        <pt x="409" y="429" on="0"/>
      </contour>
      <contour>
        <pt x="169" y="58" on="1"/>
        <pt x="194" y="58" on="0"/>
        <pt x="234" y="87" on="0"/>
        <pt x="249" y="110" on="1"/>
        <pt x="241" y="134" on="0"/>
        <pt x="234" y="191" on="0"/>
        <pt x="234" y="223" on="1"/>
        <pt x="233" y="223" on="1"/>
        <pt x="170" y="223" on="0"/>
        <pt x="110" y="180" on="0"/>
        <pt x="110" y="135" on="1"/>
        <pt x="110" y="96" on="0"/>
        <pt x="143" y="58" on="0"/>
      </contour>
      <contour>
        <pt x="497" y="-6" on="1"/>
        <pt x="404" y="-5" on="0"/>
        <pt x="295" y="33" on="0"/>
        <pt x="269" y="69" on="1"/>
        <pt x="250" y="39" on="0"/>
        <pt x="184" y="-7" on="0"/>
        <pt x="140" y="-7" on="1"/>
        <pt x="94" y="-7" on="0"/>
        <pt x="34" y="58" on="0"/>
        <pt x="34" y="116" on="1"/>
        <pt x="34" y="190" on="0"/>
        <pt x="133" y="273" on="0"/>
        <pt x="234" y="275" on="1"/>
        <pt x="233" y="318" on="0"/>
        <pt x="217" y="374" on="0"/>
        <pt x="178" y="406" on="0"/>
        <pt x="109" y="422" on="0"/>
        <pt x="55" y="425" on="1"/>
        <pt x="61" y="494" on="1"/>
        <pt x="149" y="489" on="0"/>
        <pt x="246" y="453" on="0"/>
        <pt x="267" y="410" on="1"/>
        <pt x="286" y="451" on="0"/>
        <pt x="347" y="496" on="0"/>
        <pt x="387" y="496" on="1"/>
        <pt x="450" y="496" on="0"/>
        <pt x="515" y="380" on="0"/>
        <pt x="515" y="277" on="1"/>
        <pt x="515" y="266" on="0"/>
        <pt x="514" y="242" on="0"/>
        <pt x="513" y="229" on="1"/>
        <pt x="304" y="224" on="1"/>
        <pt x="304" y="181" on="0"/>
        <pt x="320" y="121" on="0"/>
        <pt x="364" y="83" on="0"/>
        <pt x="442" y="63" on="0"/>
        <pt x="504" y="62" on="1"/>
      </contour>
    </TTGlyph>
    <TTGlyph name="agrave" xMin="67" yMin="-12" xMax="472" yMax="772">
      <contour>
        <pt x="374" y="592" on="1"/>
        <pt x="350" y="556" on="1"/>
        <pt x="325" y="569" on="0"/>
        <pt x="263" y="605" on="0"/>
        <pt x="200" y="645" on="0"/>
        <pt x="140" y="687" on="0"/>
        <pt x="117" y="705" on="1"/>
        <pt x="177" y="772" on="1"/>
        <pt x="196" y="752" on="0"/>
        <pt x="247" y="702" on="0"/>
        <pt x="301" y="653" on="0"/>
        <pt x="353" y="608" on="0"/>
      </contour>
      <contour>
        <pt x="248" y="52" on="1"/>
        <pt x="285" y="52" on="0"/>
        <pt x="359" y="83" on="0"/>
        <pt x="387" y="105" on="1"/>
        <pt x="386" y="129" on="0"/>
        <pt x="385" y="185" on="0"/>
        <pt x="385" y="221" on="1"/>
        <pt x="362" y="223" on="0"/>
        <pt x="321" y="226" on="0"/>
        <pt x="303" y="226" on="1"/>
        <pt x="216" y="226" on="0"/>
        <pt x="147" y="176" on="0"/>
        <pt x="147" y="134" on="1"/>
        <pt x="147" y="95" on="0"/>
        <pt x="202" y="52" on="0"/>
      </contour>
      <contour>
        <pt x="398" y="-3" on="1"/>
        <pt x="397" y="4" on="0"/>
        <pt x="392" y="44" on="0"/>
        <pt x="391" y="60" on="1"/>
        <pt x="361" y="32" on="0"/>
        <pt x="274" y="-12" on="0"/>
        <pt x="217" y="-12" on="1"/>
        <pt x="151" y="-12" on="0"/>
        <pt x="67" y="56" on="0"/>
        <pt x="67" y="115" on="1"/>
        <pt x="67" y="184" on="0"/>
        <pt x="200" y="281" on="0"/>
        <pt x="338" y="281" on="1"/>
        <pt x="349" y="281" on="0"/>
        <pt x="372" y="281" on="0"/>
        <pt x="384" y="280" on="1"/>
        <pt x="381" y="322" on="0"/>
        <pt x="352" y="377" on="0"/>
        <pt x="287" y="410" on="0"/>
        <pt x="178" y="426" on="0"/>
        <pt x="96" y="429" on="1"/>
        <pt x="105" y="499" on="1"/>
        <pt x="211" y="496" on="0"/>
        <pt x="350" y="468" on="0"/>
        <pt x="431" y="409" on="0"/>
        <pt x="464" y="314" on="0"/>
        <pt x="464" y="243" on="1"/>
        <pt x="464" y="167" on="0"/>
        <pt x="469" y="54" on="0"/>
        <pt x="472" y="2" on="1"/>
      </contour>
    </TTGlyph>
    <TTGlyph name="amacron" xMin="67" yMin="-12" xMax="472" yMax="678">
      <contour>
        <pt x="440" y="678" on="1"/>
        <pt x="440" y="608" on="1"/>
        <pt x="106" y="608" on="1"/>
        <pt x="106" y="678" on="1"/>
      </contour>
      <contour>
        <pt x="248" y="52" on="1"/>
        <pt x="285" y="52" on="0"/>
        <pt x="359" y="83" on="0"/>
        <pt x="387" y="105" on="1"/>
        <pt x="386" y="129" on="0"/>
        <pt x="385" y="185" on="0"/>
        <pt x="385" y="221" on="1"/>
        <pt x="362" y="223" on="0"/>
        <pt x="321" y="226" on="0"/>
        <pt x="303" y="226" on="1"/>
        <pt x="216" y="226" on="0"/>
        <pt x="147" y="176" on="0"/>
        <pt x="147" y="134" on="1"/>
        <pt x="147" y="95" on="0"/>
        <pt x="202" y="52" on="0"/>
      </contour>
      <contour>
        <pt x="398" y="-3" on="1"/>
        <pt x="397" y="4" on="0"/>
        <pt x="392" y="44" on="0"/>
        <pt x="391" y="60" on="1"/>
        <pt x="361" y="32" on="0"/>
        <pt x="274" y="-12" on="0"/>
        <pt x="217" y="-12" on="1"/>
        <pt x="151" y="-12" on="0"/>
        <pt x="67" y="56" on="0"/>
        <pt x="67" y="115" on="1"/>
        <pt x="67" y="184" on="0"/>
        <pt x="200" y="281" on="0"/>
        <pt x="338" y="281" on="1"/>
        <pt x="349" y="281" on="0"/>
        <pt x="372" y="281" on="0"/>
        <pt x="384" y="280" on="1"/>
        <pt x="381" y="322" on="0"/>
        <pt x="352" y="377" on="0"/>
        <pt x="287" y="410" on="0"/>
        <pt x="178" y="426" on="0"/>
        <pt x="96" y="429" on="1"/>
        <pt x="105" y="499" on="1"/>
        <pt x="211" y="496" on="0"/>
        <pt x="350" y="468" on="0"/>
        <pt x="431" y="409" on="0"/>
        <pt x="464" y="314" on="0"/>
        <pt x="464" y="243" on="1"/>
        <pt x="464" y="167" on="0"/>
        <pt x="469" y="54" on="0"/>
        <pt x="472" y="2" on="1"/>
      </contour>
    </TTGlyph>
    <TTGlyph name="ampersand" xMin="38" yMin="-13" xMax="517" yMax="632">
      <contour>
        <pt x="517" y="38" on="1"/>
        <pt x="452" y="-13" on="1"/>
        <pt x="428" y="18" on="0"/>
        <pt x="382" y="74" on="0"/>
        <pt x="361" y="99" on="1"/>
        <pt x="323" y="42" on="0"/>
        <pt x="230" y="-12" on="0"/>
        <pt x="182" y="-12" on="1"/>
        <pt x="111" y="-12" on="0"/>
        <pt x="38" y="70" on="0"/>
        <pt x="38" y="130" on="1"/>
        <pt x="38" y="186" on="0"/>
        <pt x="105" y="282" on="0"/>
        <pt x="171" y="324" on="1"/>
        <pt x="141" y="363" on="0"/>
        <pt x="111" y="427" on="0"/>
        <pt x="111" y="459" on="1"/>
        <pt x="111" y="490" on="0"/>
        <pt x="137" y="553" on="0"/>
        <pt x="199" y="601" on="0"/>
        <pt x="301" y="632" on="0"/>
        <pt x="377" y="632" on="1"/>
        <pt x="390" y="632" on="1"/>
        <pt x="396" y="556" on="1"/>
        <pt x="387" y="557" on="0"/>
        <pt x="369" y="557" on="0"/>
        <pt x="361" y="557" on="1"/>
        <pt x="261" y="557" on="0"/>
        <pt x="191" y="501" on="0"/>
        <pt x="191" y="464" on="1"/>
        <pt x="191" y="425" on="0"/>
        <pt x="276" y="318" on="0"/>
        <pt x="365" y="217" on="1"/>
        <pt x="382" y="257" on="0"/>
        <pt x="413" y="354" on="0"/>
        <pt x="423" y="405" on="1"/>
        <pt x="493" y="396" on="1"/>
        <pt x="477" y="330" on="0"/>
        <pt x="431" y="213" on="0"/>
        <pt x="406" y="169" on="1"/>
        <pt x="431" y="141" on="0"/>
        <pt x="486" y="75" on="0"/>
      </contour>
      <contour>
        <pt x="199" y="55" on="1"/>
        <pt x="230" y="55" on="0"/>
        <pt x="294" y="98" on="0"/>
        <pt x="323" y="144" on="1"/>
        <pt x="287" y="187" on="0"/>
        <pt x="226" y="257" on="0"/>
        <pt x="202" y="285" on="1"/>
        <pt x="158" y="254" on="0"/>
        <pt x="115" y="182" on="0"/>
        <pt x="115" y="147" on="1"/>
        <pt x="115" y="107" on="0"/>
        <pt x="158" y="55" on="0"/>
      </contour>
    </TTGlyph>
    <TTGlyph name="aogonek" xMin="67" yMin="-214" xMax="472" yMax="499">
      <contour>
        <pt x="450" y="-214" on="1"/>
        <pt x="349" y="-207" on="0"/>
        <pt x="264" y="-157" on="0"/>
        <pt x="264" y="-121" on="1"/>
        <pt x="264" y="-91" on="0"/>
        <pt x="325" y="-28" on="0"/>
        <pt x="397" y="9" on="1"/>
        <pt x="396" y="24" on="0"/>
        <pt x="390" y="68" on="0"/>
        <pt x="389" y="84" on="1"/>
        <pt x="358" y="47" on="0"/>
        <pt x="267" y="-12" on="0"/>
        <pt x="210" y="-12" on="1"/>
        <pt x="147" y="-12" on="0"/>
        <pt x="67" y="56" on="0"/>
        <pt x="67" y="115" on="1"/>
        <pt x="67" y="184" on="0"/>
        <pt x="200" y="281" on="0"/>
        <pt x="338" y="281" on="1"/>
        <pt x="349" y="281" on="0"/>
        <pt x="372" y="281" on="0"/>
        <pt x="384" y="280" on="1"/>
        <pt x="381" y="322" on="0"/>
        <pt x="352" y="377" on="0"/>
        <pt x="287" y="410" on="0"/>
        <pt x="178" y="426" on="0"/>
        <pt x="96" y="429" on="1"/>
        <pt x="105" y="499" on="1"/>
        <pt x="211" y="496" on="0"/>
        <pt x="350" y="468" on="0"/>
        <pt x="431" y="409" on="0"/>
        <pt x="464" y="314" on="0"/>
        <pt x="464" y="243" on="1"/>
        <pt x="464" y="167" on="0"/>
        <pt x="469" y="54" on="0"/>
        <pt x="472" y="2" on="1"/>
        <pt x="395" y="-34" on="0"/>
        <pt x="340" y="-83" on="0"/>
        <pt x="340" y="-100" on="1"/>
        <pt x="340" y="-118" on="0"/>
        <pt x="394" y="-142" on="0"/>
        <pt x="457" y="-149" on="1"/>
      </contour>
      <contour>
        <pt x="242" y="52" on="1"/>
        <pt x="280" y="52" on="0"/>
        <pt x="358" y="96" on="0"/>
        <pt x="386" y="128" on="1"/>
        <pt x="385" y="149" on="0"/>
        <pt x="385" y="191" on="0"/>
        <pt x="385" y="221" on="1"/>
        <pt x="362" y="223" on="0"/>
        <pt x="321" y="226" on="0"/>
        <pt x="303" y="226" on="1"/>
        <pt x="216" y="226" on="0"/>
        <pt x="147" y="176" on="0"/>
        <pt x="147" y="134" on="1"/>
        <pt x="147" y="94" on="0"/>
        <pt x="199" y="52" on="0"/>
      </contour>
    </TTGlyph>
    <TTGlyph name="approxequal" xMin="54" yMin="100" xMax="492" yMax="489">
      <contour>
        <pt x="362" y="313" on="1"/>
        <pt x="333" y="313" on="0"/>
        <pt x="283" y="347" on="0"/>
        <pt x="241" y="386" on="0"/>
        <pt x="203" y="420" on="0"/>
        <pt x="184" y="420" on="1"/>
        <pt x="162" y="420" on="0"/>
        <pt x="124" y="360" on="0"/>
        <pt x="104" y="314" on="1"/>
        <pt x="54" y="334" on="1"/>
        <pt x="82" y="410" on="0"/>
        <pt x="148" y="489" on="0"/>
        <pt x="191" y="489" on="1"/>
        <pt x="220" y="489" on="0"/>
        <pt x="268" y="455" on="0"/>
        <pt x="309" y="415" on="0"/>
        <pt x="346" y="381" on="0"/>
        <pt x="364" y="381" on="1"/>
        <pt x="386" y="381" on="0"/>
        <pt x="422" y="440" on="0"/>
        <pt x="441" y="484" on="1"/>
        <pt x="492" y="463" on="1"/>
        <pt x="464" y="388" on="0"/>
        <pt x="405" y="313" on="0"/>
      </contour>
      <contour>
        <pt x="362" y="100" on="1"/>
        <pt x="333" y="100" on="0"/>
        <pt x="283" y="134" on="0"/>
        <pt x="241" y="173" on="0"/>
        <pt x="203" y="207" on="0"/>
        <pt x="185" y="207" on="1"/>
        <pt x="163" y="207" on="0"/>
        <pt x="124" y="147" on="0"/>
        <pt x="105" y="101" on="1"/>
        <pt x="54" y="121" on="1"/>
        <pt x="82" y="197" on="0"/>
        <pt x="148" y="276" on="0"/>
        <pt x="191" y="276" on="1"/>
        <pt x="220" y="276" on="0"/>
        <pt x="268" y="242" on="0"/>
        <pt x="309" y="202" on="0"/>
        <pt x="346" y="168" on="0"/>
        <pt x="364" y="168" on="1"/>
        <pt x="386" y="168" on="0"/>
        <pt x="423" y="227" on="0"/>
        <pt x="442" y="271" on="1"/>
        <pt x="492" y="250" on="1"/>
        <pt x="464" y="175" on="0"/>
        <pt x="405" y="100" on="0"/>
      </contour>
    </TTGlyph>
    <TTGlyph name="aring" xMin="67" yMin="-12" xMax="472" yMax="764">
      <contour>
        <pt x="272" y="764" on="1"/>
        <pt x="330" y="764" on="0"/>
        <pt x="404" y="702" on="0"/>
        <pt x="404" y="660" on="1"/>
        <pt x="404" y="614" on="0"/>
        <pt x="332" y="552" on="0"/>
        <pt x="272" y="552" on="1"/>
        <pt x="215" y="552" on="0"/>
        <pt x="141" y="613" on="0"/>
        <pt x="141" y="656" on="1"/>
        <pt x="141" y="702" on="0"/>
        <pt x="212" y="764" on="0"/>
      </contour>
      <contour>
        <pt x="248" y="52" on="1"/>
        <pt x="285" y="52" on="0"/>
        <pt x="359" y="83" on="0"/>
        <pt x="387" y="105" on="1"/>
        <pt x="386" y="129" on="0"/>
        <pt x="385" y="185" on="0"/>
        <pt x="385" y="221" on="1"/>
        <pt x="362" y="223" on="0"/>
        <pt x="321" y="226" on="0"/>
        <pt x="303" y="226" on="1"/>
        <pt x="216" y="226" on="0"/>
        <pt x="147" y="176" on="0"/>
        <pt x="147" y="134" on="1"/>
        <pt x="147" y="95" on="0"/>
        <pt x="202" y="52" on="0"/>
      </contour>
      <contour>
        <pt x="398" y="-3" on="1"/>
        <pt x="397" y="4" on="0"/>
        <pt x="392" y="44" on="0"/>
        <pt x="391" y="60" on="1"/>
        <pt x="361" y="32" on="0"/>
        <pt x="274" y="-12" on="0"/>
        <pt x="217" y="-12" on="1"/>
        <pt x="151" y="-12" on="0"/>
        <pt x="67" y="56" on="0"/>
        <pt x="67" y="115" on="1"/>
        <pt x="67" y="184" on="0"/>
        <pt x="200" y="281" on="0"/>
        <pt x="338" y="281" on="1"/>
        <pt x="349" y="281" on="0"/>
        <pt x="372" y="281" on="0"/>
        <pt x="384" y="280" on="1"/>
        <pt x="381" y="322" on="0"/>
        <pt x="352" y="377" on="0"/>
        <pt x="287" y="410" on="0"/>
        <pt x="178" y="426" on="0"/>
        <pt x="96" y="429" on="1"/>
        <pt x="105" y="499" on="1"/>
        <pt x="211" y="496" on="0"/>
        <pt x="350" y="468" on="0"/>
        <pt x="431" y="409" on="0"/>
        <pt x="464" y="314" on="0"/>
        <pt x="464" y="243" on="1"/>
        <pt x="464" y="167" on="0"/>
        <pt x="469" y="54" on="0"/>
        <pt x="472" y="2" on="1"/>
      </contour>
    </TTGlyph>
    <TTGlyph name="aringacute" xMin="67" yMin="-12" xMax="472" yMax="1020">
      <contour>
        <pt x="168" y="842" on="1"/>
        <pt x="190" y="857" on="0"/>
        <pt x="242" y="900" on="0"/>
        <pt x="294" y="949" on="0"/>
        <pt x="343" y="999" on="0"/>
        <pt x="361" y="1020" on="1"/>
        <pt x="426" y="957" on="1"/>
        <pt x="404" y="937" on="0"/>
        <pt x="344" y="894" on="0"/>
        <pt x="280" y="854" on="0"/>
        <pt x="216" y="818" on="0"/>
        <pt x="191" y="806" on="1"/>
      </contour>
      <contour>
        <pt x="272" y="764" on="1"/>
        <pt x="330" y="764" on="0"/>
        <pt x="404" y="702" on="0"/>
        <pt x="404" y="660" on="1"/>
        <pt x="404" y="614" on="0"/>
        <pt x="332" y="552" on="0"/>
        <pt x="272" y="552" on="1"/>
        <pt x="215" y="552" on="0"/>
        <pt x="141" y="613" on="0"/>
        <pt x="141" y="656" on="1"/>
        <pt x="141" y="702" on="0"/>
        <pt x="212" y="764" on="0"/>
      </contour>
      <contour>
        <pt x="248" y="52" on="1"/>
        <pt x="285" y="52" on="0"/>
        <pt x="359" y="83" on="0"/>
        <pt x="387" y="105" on="1"/>
        <pt x="386" y="129" on="0"/>
        <pt x="385" y="185" on="0"/>
        <pt x="385" y="221" on="1"/>
        <pt x="362" y="223" on="0"/>
        <pt x="321" y="226" on="0"/>
        <pt x="303" y="226" on="1"/>
        <pt x="216" y="226" on="0"/>
        <pt x="147" y="176" on="0"/>
        <pt x="147" y="134" on="1"/>
        <pt x="147" y="95" on="0"/>
        <pt x="202" y="52" on="0"/>
      </contour>
      <contour>
        <pt x="398" y="-3" on="1"/>
        <pt x="397" y="4" on="0"/>
        <pt x="392" y="44" on="0"/>
        <pt x="391" y="60" on="1"/>
        <pt x="361" y="32" on="0"/>
        <pt x="274" y="-12" on="0"/>
        <pt x="217" y="-12" on="1"/>
        <pt x="151" y="-12" on="0"/>
        <pt x="67" y="56" on="0"/>
        <pt x="67" y="115" on="1"/>
        <pt x="67" y="184" on="0"/>
        <pt x="200" y="281" on="0"/>
        <pt x="338" y="281" on="1"/>
        <pt x="349" y="281" on="0"/>
        <pt x="372" y="281" on="0"/>
        <pt x="384" y="280" on="1"/>
        <pt x="381" y="322" on="0"/>
        <pt x="352" y="377" on="0"/>
        <pt x="287" y="410" on="0"/>
        <pt x="178" y="426" on="0"/>
        <pt x="96" y="429" on="1"/>
        <pt x="105" y="499" on="1"/>
        <pt x="211" y="496" on="0"/>
        <pt x="350" y="468" on="0"/>
        <pt x="431" y="409" on="0"/>
        <pt x="464" y="314" on="0"/>
        <pt x="464" y="243" on="1"/>
        <pt x="464" y="167" on="0"/>
        <pt x="469" y="54" on="0"/>
        <pt x="472" y="2" on="1"/>
      </contour>
    </TTGlyph>
    <TTGlyph name="asciicircum" xMin="55" yMin="157" xMax="499" yMax="496">
      <contour>
        <pt x="438" y="157" on="1"/>
        <pt x="271" y="389" on="1"/>
        <pt x="111" y="157" on="1"/>
        <pt x="55" y="199" on="1"/>
        <pt x="264" y="493" on="1"/>
        <pt x="280" y="496" on="1"/>
        <pt x="499" y="200" on="1"/>
      </contour>
    </TTGlyph>
    <TTGlyph name="asciitilde" xMin="36" yMin="196" xMax="514" yMax="414">
      <contour>
        <pt x="373" y="196" on="1"/>
        <pt x="343" y="196" on="0"/>
        <pt x="287" y="241" on="0"/>
        <pt x="237" y="295" on="0"/>
        <pt x="192" y="340" on="0"/>
        <pt x="173" y="340" on="1"/>
        <pt x="150" y="340" on="0"/>
        <pt x="110" y="262" on="0"/>
        <pt x="90" y="204" on="1"/>
        <pt x="36" y="225" on="1"/>
        <pt x="64" y="314" on="0"/>
        <pt x="133" y="414" on="0"/>
        <pt x="179" y="414" on="1"/>
        <pt x="209" y="414" on="0"/>
        <pt x="264" y="369" on="0"/>
        <pt x="313" y="315" on="0"/>
        <pt x="357" y="270" on="0"/>
        <pt x="376" y="270" on="1"/>
        <pt x="399" y="270" on="0"/>
        <pt x="439" y="348" on="0"/>
        <pt x="460" y="406" on="1"/>
        <pt x="514" y="385" on="1"/>
        <pt x="485" y="294" on="0"/>
        <pt x="419" y="196" on="0"/>
      </contour>
    </TTGlyph>
    <TTGlyph name="asterisk" xMin="68" yMin="275" xMax="496" yMax="691">
      <contour>
        <pt x="366" y="275" on="1"/>
        <pt x="272" y="396" on="1"/>
        <pt x="157" y="294" on="1"/>
        <pt x="116" y="329" on="1"/>
        <pt x="203" y="455" on="1"/>
        <pt x="68" y="534" on="1"/>
        <pt x="90" y="583" on="1"/>
        <pt x="237" y="539" on="1"/>
        <pt x="270" y="691" on="1"/>
        <pt x="324" y="688" on="1"/>
        <pt x="329" y="532" on="1"/>
        <pt x="483" y="547" on="1"/>
        <pt x="496" y="497" on="1"/>
        <pt x="349" y="444" on="1"/>
        <pt x="411" y="303" on="1"/>
      </contour>
    </TTGlyph>
    <TTGlyph name="asterisk.alt" xMin="61" yMin="256" xMax="490" yMax="697">
      <contour>
        <pt x="308" y="549" on="1"/>
        <pt x="269" y="556" on="1"/>
        <pt x="271" y="697" on="1"/>
        <pt x="347" y="683" on="1"/>
      </contour>
      <contour>
        <pt x="229" y="541" on="1"/>
        <pt x="203" y="509" on="1"/>
        <pt x="83" y="583" on="1"/>
        <pt x="132" y="642" on="1"/>
      </contour>
      <contour>
        <pt x="354" y="484" on="1"/>
        <pt x="340" y="522" on="1"/>
        <pt x="464" y="590" on="1"/>
        <pt x="490" y="518" on="1"/>
      </contour>
      <contour>
        <pt x="197" y="469" on="1"/>
        <pt x="211" y="430" on="1"/>
        <pt x="87" y="363" on="1"/>
        <pt x="61" y="434" on="1"/>
      </contour>
      <contour>
        <pt x="322" y="412" on="1"/>
        <pt x="349" y="444" on="1"/>
        <pt x="469" y="369" on="1"/>
        <pt x="420" y="310" on="1"/>
      </contour>
      <contour>
        <pt x="243" y="404" on="1"/>
        <pt x="283" y="397" on="1"/>
        <pt x="280" y="256" on="1"/>
        <pt x="204" y="269" on="1"/>
      </contour>
    </TTGlyph>
    <TTGlyph name="at" xMin="50" yMin="-157" xMax="494" yMax="683">
      <contour>
        <pt x="369" y="-157" on="1"/>
        <pt x="278" y="-157" on="0"/>
        <pt x="155" y="-97" on="0"/>
        <pt x="82" y="8" on="0"/>
        <pt x="50" y="157" on="0"/>
        <pt x="50" y="245" on="1"/>
        <pt x="50" y="345" on="0"/>
        <pt x="91" y="507" on="0"/>
        <pt x="163" y="621" on="0"/>
        <pt x="263" y="683" on="0"/>
        <pt x="322" y="683" on="1"/>
        <pt x="409" y="683" on="0"/>
        <pt x="489" y="562" on="0"/>
        <pt x="489" y="450" on="1"/>
        <pt x="489" y="376" on="0"/>
        <pt x="490" y="266" on="0"/>
        <pt x="491" y="179" on="0"/>
        <pt x="493" y="108" on="0"/>
        <pt x="494" y="74" on="1"/>
        <pt x="427" y="66" on="1"/>
        <pt x="426" y="73" on="0"/>
        <pt x="424" y="98" on="0"/>
        <pt x="423" y="110" on="1"/>
        <pt x="402" y="85" on="0"/>
        <pt x="358" y="59" on="0"/>
        <pt x="328" y="59" on="1"/>
        <pt x="278" y="59" on="0"/>
        <pt x="213" y="161" on="0"/>
        <pt x="213" y="247" on="1"/>
        <pt x="213" y="362" on="0"/>
        <pt x="320" y="479" on="0"/>
        <pt x="405" y="479" on="1"/>
        <pt x="408" y="479" on="0"/>
        <pt x="414" y="479" on="0"/>
        <pt x="417" y="479" on="1"/>
        <pt x="413" y="547" on="0"/>
        <pt x="363" y="617" on="0"/>
        <pt x="313" y="617" on="1"/>
        <pt x="273" y="617" on="0"/>
        <pt x="202" y="571" on="0"/>
        <pt x="149" y="481" on="0"/>
        <pt x="119" y="345" on="0"/>
        <pt x="119" y="255" on="1"/>
        <pt x="119" y="176" on="0"/>
        <pt x="142" y="46" on="0"/>
        <pt x="199" y="-43" on="0"/>
        <pt x="300" y="-92" on="0"/>
        <pt x="378" y="-92" on="1"/>
        <pt x="394" y="-92" on="0"/>
        <pt x="430" y="-89" on="0"/>
        <pt x="449" y="-87" on="1"/>
        <pt x="449" y="-152" on="1"/>
        <pt x="427" y="-155" on="0"/>
        <pt x="388" y="-157" on="0"/>
      </contour>
      <contour>
        <pt x="354" y="123" on="1"/>
        <pt x="373" y="123" on="0"/>
        <pt x="405" y="142" on="0"/>
        <pt x="418" y="156" on="1"/>
        <pt x="418" y="408" on="1"/>
        <pt x="408" y="410" on="0"/>
        <pt x="389" y="413" on="0"/>
        <pt x="381" y="413" on="1"/>
        <pt x="327" y="413" on="0"/>
        <pt x="286" y="330" on="0"/>
        <pt x="286" y="261" on="1"/>
        <pt x="286" y="194" on="0"/>
        <pt x="320" y="123" on="0"/>
      </contour>
    </TTGlyph>
    <TTGlyph name="atilde" xMin="67" yMin="-12" xMax="482" yMax="738">
      <contour>
        <pt x="350" y="571" on="1"/>
        <pt x="326" y="571" on="0"/>
        <pt x="286" y="602" on="0"/>
        <pt x="251" y="640" on="0"/>
        <pt x="219" y="671" on="0"/>
        <pt x="203" y="671" on="1"/>
        <pt x="184" y="671" on="0"/>
        <pt x="145" y="622" on="0"/>
        <pt x="125" y="579" on="1"/>
        <pt x="80" y="599" on="1"/>
        <pt x="106" y="662" on="0"/>
        <pt x="174" y="738" on="0"/>
        <pt x="212" y="738" on="1"/>
        <pt x="236" y="738" on="0"/>
        <pt x="276" y="706" on="0"/>
        <pt x="311" y="669" on="0"/>
        <pt x="343" y="637" on="0"/>
        <pt x="359" y="637" on="1"/>
        <pt x="378" y="637" on="0"/>
        <pt x="416" y="686" on="0"/>
        <pt x="436" y="730" on="1"/>
        <pt x="482" y="710" on="1"/>
        <pt x="455" y="647" on="0"/>
        <pt x="387" y="571" on="0"/>
      </contour>
      <contour>
        <pt x="248" y="52" on="1"/>
        <pt x="285" y="52" on="0"/>
        <pt x="359" y="83" on="0"/>
        <pt x="387" y="105" on="1"/>
        <pt x="386" y="129" on="0"/>
        <pt x="385" y="185" on="0"/>
        <pt x="385" y="221" on="1"/>
        <pt x="362" y="223" on="0"/>
        <pt x="321" y="226" on="0"/>
        <pt x="303" y="226" on="1"/>
        <pt x="216" y="226" on="0"/>
        <pt x="147" y="176" on="0"/>
        <pt x="147" y="134" on="1"/>
        <pt x="147" y="95" on="0"/>
        <pt x="202" y="52" on="0"/>
      </contour>
      <contour>
        <pt x="398" y="-3" on="1"/>
        <pt x="397" y="4" on="0"/>
        <pt x="392" y="44" on="0"/>
        <pt x="391" y="60" on="1"/>
        <pt x="361" y="32" on="0"/>
        <pt x="274" y="-12" on="0"/>
        <pt x="217" y="-12" on="1"/>
        <pt x="151" y="-12" on="0"/>
        <pt x="67" y="56" on="0"/>
        <pt x="67" y="115" on="1"/>
        <pt x="67" y="184" on="0"/>
        <pt x="200" y="281" on="0"/>
        <pt x="338" y="281" on="1"/>
        <pt x="349" y="281" on="0"/>
        <pt x="372" y="281" on="0"/>
        <pt x="384" y="280" on="1"/>
        <pt x="381" y="322" on="0"/>
        <pt x="352" y="377" on="0"/>
        <pt x="287" y="410" on="0"/>
        <pt x="178" y="426" on="0"/>
        <pt x="96" y="429" on="1"/>
        <pt x="105" y="499" on="1"/>
        <pt x="211" y="496" on="0"/>
        <pt x="350" y="468" on="0"/>
        <pt x="431" y="409" on="0"/>
        <pt x="464" y="314" on="0"/>
        <pt x="464" y="243" on="1"/>
        <pt x="464" y="167" on="0"/>
        <pt x="469" y="54" on="0"/>
        <pt x="472" y="2" on="1"/>
      </contour>
    </TTGlyph>
    <TTGlyph name="b" xMin="90" yMin="-12" xMax="494" yMax="706">
      <contour>
        <pt x="234" y="-12" on="1"/>
        <pt x="196" y="-12" on="0"/>
        <pt x="124" y="1" on="0"/>
        <pt x="90" y="13" on="1"/>
        <pt x="90" y="699" on="1"/>
        <pt x="171" y="706" on="1"/>
        <pt x="171" y="446" on="1"/>
        <pt x="198" y="468" on="0"/>
        <pt x="269" y="501" on="0"/>
        <pt x="312" y="501" on="1"/>
        <pt x="390" y="501" on="0"/>
        <pt x="494" y="374" on="0"/>
        <pt x="494" y="267" on="1"/>
        <pt x="494" y="202" on="0"/>
        <pt x="451" y="99" on="0"/>
        <pt x="379" y="27" on="0"/>
        <pt x="285" y="-12" on="0"/>
      </contour>
      <contour>
        <pt x="262" y="58" on="1"/>
        <pt x="328" y="58" on="0"/>
        <pt x="414" y="154" on="0"/>
        <pt x="414" y="247" on="1"/>
        <pt x="414" y="338" on="0"/>
        <pt x="338" y="434" on="0"/>
        <pt x="280" y="434" on="1"/>
        <pt x="252" y="434" on="0"/>
        <pt x="195" y="413" on="0"/>
        <pt x="171" y="395" on="1"/>
        <pt x="171" y="75" on="1"/>
        <pt x="194" y="67" on="0"/>
        <pt x="240" y="58" on="0"/>
      </contour>
    </TTGlyph>
    <TTGlyph name="backslash" xMin="4" yMin="-181" xMax="542" yMax="724">
      <contour>
        <pt x="74" y="724" on="1"/>
        <pt x="542" y="-159" on="1"/>
        <pt x="468" y="-181" on="1"/>
        <pt x="4" y="694" on="1"/>
      </contour>
    </TTGlyph>
    <TTGlyph name="bar" xMin="239" yMin="-182" xMax="314" yMax="710">
      <contour>
        <pt x="239" y="704" on="1"/>
        <pt x="314" y="710" on="1"/>
        <pt x="314" y="-182" on="1"/>
        <pt x="239" y="-182" on="1"/>
      </contour>
    </TTGlyph>
    <TTGlyph name="braceleft" xMin="86" yMin="-209" xMax="485" yMax="726">
      <contour>
        <pt x="455" y="-209" on="1"/>
        <pt x="286" y="-155" on="0"/>
        <pt x="151" y="-71" on="0"/>
        <pt x="151" y="-16" on="1"/>
        <pt x="151" y="13" on="0"/>
        <pt x="180" y="61" on="0"/>
        <pt x="214" y="100" on="0"/>
        <pt x="243" y="135" on="0"/>
        <pt x="243" y="153" on="1"/>
        <pt x="243" y="181" on="0"/>
        <pt x="167" y="224" on="0"/>
        <pt x="86" y="229" on="1"/>
        <pt x="88" y="288" on="1"/>
        <pt x="181" y="296" on="0"/>
        <pt x="249" y="330" on="0"/>
        <pt x="249" y="352" on="1"/>
        <pt x="249" y="369" on="0"/>
        <pt x="218" y="403" on="0"/>
        <pt x="180" y="441" on="0"/>
        <pt x="148" y="487" on="0"/>
        <pt x="148" y="515" on="1"/>
        <pt x="148" y="566" on="0"/>
        <pt x="287" y="672" on="0"/>
        <pt x="459" y="726" on="1"/>
        <pt x="485" y="659" on="1"/>
        <pt x="350" y="621" on="0"/>
        <pt x="226" y="557" on="0"/>
        <pt x="226" y="523" on="1"/>
        <pt x="226" y="504" on="0"/>
        <pt x="256" y="465" on="0"/>
        <pt x="292" y="427" on="0"/>
        <pt x="322" y="387" on="0"/>
        <pt x="322" y="366" on="1"/>
        <pt x="322" y="338" on="0"/>
        <pt x="268" y="282" on="0"/>
        <pt x="205" y="265" on="1"/>
        <pt x="268" y="249" on="0"/>
        <pt x="320" y="194" on="0"/>
        <pt x="320" y="165" on="1"/>
        <pt x="320" y="141" on="0"/>
        <pt x="292" y="101" on="0"/>
        <pt x="260" y="63" on="0"/>
        <pt x="232" y="24" on="0"/>
        <pt x="232" y="2" on="1"/>
        <pt x="232" y="-38" on="0"/>
        <pt x="352" y="-103" on="0"/>
        <pt x="483" y="-143" on="1"/>
      </contour>
    </TTGlyph>
    <TTGlyph name="braceleft.cap" xMin="86" yMin="-161" xMax="485" yMax="774">
      <contour>
        <pt x="455" y="-161" on="1"/>
        <pt x="286" y="-107" on="0"/>
        <pt x="151" y="-23" on="0"/>
        <pt x="151" y="32" on="1"/>
        <pt x="151" y="61" on="0"/>
        <pt x="180" y="109" on="0"/>
        <pt x="214" y="148" on="0"/>
        <pt x="243" y="183" on="0"/>
        <pt x="243" y="201" on="1"/>
        <pt x="243" y="229" on="0"/>
        <pt x="167" y="272" on="0"/>
        <pt x="86" y="277" on="1"/>
        <pt x="88" y="336" on="1"/>
        <pt x="181" y="344" on="0"/>
        <pt x="249" y="378" on="0"/>
        <pt x="249" y="400" on="1"/>
        <pt x="249" y="417" on="0"/>
        <pt x="218" y="451" on="0"/>
        <pt x="180" y="489" on="0"/>
        <pt x="148" y="535" on="0"/>
        <pt x="148" y="563" on="1"/>
        <pt x="148" y="614" on="0"/>
        <pt x="287" y="720" on="0"/>
        <pt x="459" y="774" on="1"/>
        <pt x="485" y="707" on="1"/>
        <pt x="350" y="669" on="0"/>
        <pt x="226" y="605" on="0"/>
        <pt x="226" y="571" on="1"/>
        <pt x="226" y="552" on="0"/>
        <pt x="256" y="513" on="0"/>
        <pt x="292" y="475" on="0"/>
        <pt x="322" y="435" on="0"/>
        <pt x="322" y="414" on="1"/>
        <pt x="322" y="386" on="0"/>
        <pt x="268" y="330" on="0"/>
        <pt x="205" y="313" on="1"/>
        <pt x="268" y="297" on="0"/>
        <pt x="320" y="242" on="0"/>
        <pt x="320" y="213" on="1"/>
        <pt x="320" y="189" on="0"/>
        <pt x="292" y="149" on="0"/>
        <pt x="260" y="111" on="0"/>
        <pt x="232" y="72" on="0"/>
        <pt x="232" y="50" on="1"/>
        <pt x="232" y="10" on="0"/>
        <pt x="352" y="-55" on="0"/>
        <pt x="483" y="-95" on="1"/>
      </contour>
    </TTGlyph>
    <TTGlyph name="braceright" xMin="67" yMin="-208" xMax="466" yMax="727">
      <contour>
        <pt x="93" y="-208" on="1"/>
        <pt x="67" y="-140" on="1"/>
        <pt x="201" y="-103" on="0"/>
        <pt x="325" y="-38" on="0"/>
        <pt x="325" y="-4" on="1"/>
        <pt x="325" y="15" on="0"/>
        <pt x="295" y="53" on="0"/>
        <pt x="260" y="91" on="0"/>
        <pt x="230" y="132" on="0"/>
        <pt x="230" y="153" on="1"/>
        <pt x="230" y="180" on="0"/>
        <pt x="283" y="236" on="0"/>
        <pt x="346" y="254" on="1"/>
        <pt x="284" y="269" on="0"/>
        <pt x="231" y="324" on="0"/>
        <pt x="231" y="353" on="1"/>
        <pt x="231" y="377" on="0"/>
        <pt x="259" y="417" on="0"/>
        <pt x="292" y="455" on="0"/>
        <pt x="320" y="494" on="0"/>
        <pt x="320" y="516" on="1"/>
        <pt x="320" y="556" on="0"/>
        <pt x="200" y="621" on="0"/>
        <pt x="69" y="661" on="1"/>
        <pt x="97" y="727" on="1"/>
        <pt x="266" y="673" on="0"/>
        <pt x="401" y="589" on="0"/>
        <pt x="401" y="534" on="1"/>
        <pt x="401" y="505" on="0"/>
        <pt x="372" y="458" on="0"/>
        <pt x="337" y="418" on="0"/>
        <pt x="308" y="383" on="0"/>
        <pt x="308" y="365" on="1"/>
        <pt x="308" y="337" on="0"/>
        <pt x="384" y="294" on="0"/>
        <pt x="466" y="289" on="1"/>
        <pt x="463" y="231" on="1"/>
        <pt x="370" y="223" on="0"/>
        <pt x="302" y="189" on="0"/>
        <pt x="302" y="167" on="1"/>
        <pt x="302" y="150" on="0"/>
        <pt x="334" y="116" on="0"/>
        <pt x="371" y="77" on="0"/>
        <pt x="403" y="31" on="0"/>
        <pt x="403" y="3" on="1"/>
        <pt x="403" y="-48" on="0"/>
        <pt x="265" y="-154" on="0"/>
      </contour>
    </TTGlyph>
    <TTGlyph name="braceright.cap" xMin="67" yMin="-161" xMax="466" yMax="774">
      <contour>
        <pt x="93" y="-161" on="1"/>
        <pt x="67" y="-93" on="1"/>
        <pt x="201" y="-56" on="0"/>
        <pt x="325" y="9" on="0"/>
        <pt x="325" y="43" on="1"/>
        <pt x="325" y="62" on="0"/>
        <pt x="295" y="100" on="0"/>
        <pt x="260" y="138" on="0"/>
        <pt x="230" y="179" on="0"/>
        <pt x="230" y="200" on="1"/>
        <pt x="230" y="227" on="0"/>
        <pt x="283" y="283" on="0"/>
        <pt x="346" y="301" on="1"/>
        <pt x="284" y="316" on="0"/>
        <pt x="231" y="371" on="0"/>
        <pt x="231" y="400" on="1"/>
        <pt x="231" y="424" on="0"/>
        <pt x="259" y="464" on="0"/>
        <pt x="292" y="502" on="0"/>
        <pt x="320" y="541" on="0"/>
        <pt x="320" y="563" on="1"/>
        <pt x="320" y="603" on="0"/>
        <pt x="200" y="668" on="0"/>
        <pt x="69" y="708" on="1"/>
        <pt x="97" y="774" on="1"/>
        <pt x="266" y="720" on="0"/>
        <pt x="401" y="636" on="0"/>
        <pt x="401" y="581" on="1"/>
        <pt x="401" y="552" on="0"/>
        <pt x="372" y="505" on="0"/>
        <pt x="337" y="465" on="0"/>
        <pt x="308" y="430" on="0"/>
        <pt x="308" y="412" on="1"/>
        <pt x="308" y="384" on="0"/>
        <pt x="384" y="341" on="0"/>
        <pt x="466" y="336" on="1"/>
        <pt x="463" y="278" on="1"/>
        <pt x="370" y="270" on="0"/>
        <pt x="302" y="236" on="0"/>
        <pt x="302" y="214" on="1"/>
        <pt x="302" y="197" on="0"/>
        <pt x="334" y="163" on="0"/>
        <pt x="371" y="124" on="0"/>
        <pt x="403" y="78" on="0"/>
        <pt x="403" y="50" on="1"/>
        <pt x="403" y="-1" on="0"/>
        <pt x="265" y="-107" on="0"/>
      </contour>
    </TTGlyph>
    <TTGlyph name="bracketleft" xMin="137" yMin="-179" xMax="468" yMax="695">
      <contour>
        <pt x="137" y="-179" on="1"/>
        <pt x="137" y="695" on="1"/>
        <pt x="464" y="695" on="1"/>
        <pt x="464" y="629" on="1"/>
        <pt x="215" y="629" on="1"/>
        <pt x="215" y="-113" on="1"/>
        <pt x="468" y="-113" on="1"/>
        <pt x="461" y="-179" on="1"/>
      </contour>
    </TTGlyph>
    <TTGlyph name="bracketleft.cap" xMin="137" yMin="-131" xMax="468" yMax="743">
      <contour>
        <pt x="137" y="-131" on="1"/>
        <pt x="137" y="743" on="1"/>
        <pt x="464" y="743" on="1"/>
        <pt x="464" y="677" on="1"/>
        <pt x="215" y="677" on="1"/>
        <pt x="215" y="-65" on="1"/>
        <pt x="468" y="-65" on="1"/>
        <pt x="461" y="-131" on="1"/>
      </contour>
    </TTGlyph>
    <TTGlyph name="bracketright" xMin="86" yMin="-178" xMax="414" yMax="695">
      <contour>
        <pt x="89" y="-112" on="1"/>
        <pt x="337" y="-112" on="1"/>
        <pt x="337" y="629" on="1"/>
        <pt x="88" y="629" on="1"/>
        <pt x="88" y="695" on="1"/>
        <pt x="414" y="695" on="1"/>
        <pt x="414" y="-178" on="1"/>
        <pt x="86" y="-178" on="1"/>
      </contour>
    </TTGlyph>
    <TTGlyph name="bracketright.cap" xMin="86" yMin="-131" xMax="414" yMax="742">
      <contour>
        <pt x="89" y="-65" on="1"/>
        <pt x="337" y="-65" on="1"/>
        <pt x="337" y="676" on="1"/>
        <pt x="88" y="676" on="1"/>
        <pt x="88" y="742" on="1"/>
        <pt x="414" y="742" on="1"/>
        <pt x="414" y="-131" on="1"/>
        <pt x="86" y="-131" on="1"/>
      </contour>
    </TTGlyph>
</ttFont>
